<?xml version="1.0" encoding="UTF-8" standalone="no"?>
<!DOCTYPE svg PUBLIC "-//W3C//DTD SVG 1.1//EN"
 "http://www.w3.org/Graphics/SVG/1.1/DTD/svg11.dtd">
<!-- Generated by graphviz version 14.1.1 (20251213.1925)
 -->
<!-- Title: ApplicationFlowchart Pages: 1 -->
<svg width="3530pt" height="2328pt"
 viewBox="0.00 0.00 3530.00 2328.00" xmlns="http://www.w3.org/2000/svg" xmlns:xlink="http://www.w3.org/1999/xlink">
<g id="graph0" class="graph" transform="scale(1 1) rotate(0) translate(4 2323.8)">
<title>ApplicationFlowchart</title>
<polygon fill="white" stroke="none" points="-4,4 -4,-2323.8 3526,-2323.8 3526,4 -4,4"/>
<g id="clust1" class="cluster">
<title>cluster_guest</title>
<polygon fill="none" stroke="#7f7f7f" points="1716,-440 1716,-1027.6 2446,-1027.6 2446,-440 1716,-440"/>
<text xml:space="preserve" text-anchor="middle" x="2081" y="-1010.3" font-family="Times New Roman,serif" font-size="14.00">User (Guest mode)</text>
</g>
<g id="clust2" class="cluster">
<title>cluster_contrib</title>
<polygon fill="none" stroke="#7f7f7f" points="8,-8 8,-1027.6 1660,-1027.6 1660,-8 8,-8"/>
<text xml:space="preserve" text-anchor="middle" x="834" y="-1010.3" font-family="Times New Roman,serif" font-size="14.00">User (Contributor mode)</text>
</g>
<g id="clust3" class="cluster">
<title>cluster_admin</title>
<polygon fill="none" stroke="#7f7f7f" points="2454,-684.7 2454,-1268.8 3514,-1268.8 3514,-684.7 2454,-684.7"/>
<text xml:space="preserve" text-anchor="middle" x="2984" y="-1251.5" font-family="Times New Roman,serif" font-size="14.00">Admin mode</text>
</g>
<!-- Start -->
<g id="node1" class="node">
<title>Start</title>
<ellipse fill="none" stroke="black" cx="2668" cy="-2301.8" rx="93.48" ry="18"/>
<text xml:space="preserve" text-anchor="middle" x="2668" y="-2296.38" font-family="Arial" font-size="14.00">Start: User visits app</text>
</g>
<!-- AuthAction -->
<g id="node2" class="node">
<title>AuthAction</title>
<polygon fill="none" stroke="black" points="2668,-2103.8 2551.33,-2085.8 2668,-2067.8 2784.67,-2085.8 2668,-2103.8"/>
<text xml:space="preserve" text-anchor="middle" x="2668" y="-2080.38" font-family="Arial" font-size="14.00">Login or Sign Up?</text>
</g>
<!-- Start&#45;&gt;AuthAction -->
<g id="edge1" class="edge">
<title>Start&#45;&gt;AuthAction</title>
<path fill="none" stroke="black" d="M2668,-2283.38C2668,-2283.38 2668,-2115.68 2668,-2115.68"/>
<polygon fill="black" stroke="black" points="2671.5,-2115.68 2668,-2105.68 2664.5,-2115.68 2671.5,-2115.68"/>
</g>
<!-- LoginStep1 -->
<g id="node3" class="node">
<title>LoginStep1</title>
<polygon fill="none" stroke="black" points="2456.62,-1887.8 2297.38,-1887.8 2297.38,-1851.8 2456.62,-1851.8 2456.62,-1887.8"/>
<text xml:space="preserve" text-anchor="middle" x="2377" y="-1864.38" font-family="Arial" font-size="14.00">Enter email &amp; password</text>
</g>
<!-- AuthAction&#45;&gt;LoginStep1 -->
<g id="edge2" class="edge">
<title>AuthAction&#45;&gt;LoginStep1</title>
<path fill="none" stroke="black" d="M2564.79,-2083.38C2564.79,-2059.67 2564.79,-1870 2564.79,-1870 2564.79,-1870 2468.42,-1870 2468.42,-1870"/>
<polygon fill="black" stroke="black" points="2468.42,-1866.5 2458.42,-1870 2468.42,-1873.5 2468.42,-1866.5"/>
<text xml:space="preserve" text-anchor="middle" x="2548.29" y="-1930.96" font-family="Arial" font-size="14.00">Login</text>
</g>
<!-- SignupStep1 -->
<g id="node11" class="node">
<title>SignupStep1</title>
<polygon fill="none" stroke="black" points="2748.75,-1671.8 2587.25,-1671.8 2587.25,-1635.8 2748.75,-1635.8 2748.75,-1671.8"/>
<text xml:space="preserve" text-anchor="middle" x="2668" y="-1648.38" font-family="Arial" font-size="14.00">Enter registration details</text>
</g>
<!-- AuthAction&#45;&gt;SignupStep1 -->
<g id="edge11" class="edge">
<title>AuthAction&#45;&gt;SignupStep1</title>
<path fill="none" stroke="black" d="M2668,-2067.51C2668,-2067.51 2668,-1683.36 2668,-1683.36"/>
<polygon fill="black" stroke="black" points="2671.5,-1683.36 2668,-1673.36 2664.5,-1683.36 2671.5,-1683.36"/>
<text xml:space="preserve" text-anchor="middle" x="2644" y="-1877.89" font-family="Arial" font-size="14.00">Sign Up</text>
</g>
<!-- End -->
<g id="node14" class="node">
<title>End</title>
<ellipse fill="none" stroke="black" cx="2641" cy="-250" rx="27" ry="18"/>
<text xml:space="preserve" text-anchor="middle" x="2641" y="-244.57" font-family="Arial" font-size="14.00">End</text>
</g>
<!-- AuthAction&#45;&gt;End -->
<g id="edge15" class="edge">
<title>AuthAction&#45;&gt;End</title>
<path fill="none" stroke="black" d="M2771.21,-2083.34C2771.21,-2029.46 2771.21,-1110 2771.21,-1110 2771.21,-1110 2702.44,-1110 2702.44,-1110 2702.44,-1110 2702.44,-256 2702.44,-256 2702.44,-256 2678.21,-256 2678.21,-256"/>
<polygon fill="black" stroke="black" points="2678.21,-252.5 2668.21,-256 2678.21,-259.5 2678.21,-252.5"/>
<text xml:space="preserve" text-anchor="middle" x="2759.96" y="-1125.62" font-family="Arial" font-size="14.00">Exit</text>
</g>
<!-- LoginStep2 -->
<g id="node4" class="node">
<title>LoginStep2</title>
<polygon fill="none" stroke="black" points="2377,-1671.8 2261.03,-1653.8 2377,-1635.8 2492.97,-1653.8 2377,-1671.8"/>
<text xml:space="preserve" text-anchor="middle" x="2377" y="-1648.38" font-family="Arial" font-size="14.00">Credentials valid?</text>
</g>
<!-- LoginStep1&#45;&gt;LoginStep2 -->
<g id="edge3" class="edge">
<title>LoginStep1&#45;&gt;LoginStep2</title>
<path fill="none" stroke="black" d="M2377,-1851.38C2377,-1851.38 2377,-1683.68 2377,-1683.68"/>
<polygon fill="black" stroke="black" points="2380.5,-1683.68 2377,-1673.68 2373.5,-1683.68 2380.5,-1683.68"/>
</g>
<!-- LoginError -->
<g id="node5" class="node">
<title>LoginError</title>
<polygon fill="none" stroke="black" points="2187,-1454.05 2105,-1454.05 2105,-1418.05 2187,-1418.05 2187,-1454.05"/>
<text xml:space="preserve" text-anchor="middle" x="2146" y="-1430.62" font-family="Arial" font-size="14.00">Show error</text>
</g>
<!-- LoginStep2&#45;&gt;LoginError -->
<g id="edge4" class="edge">
<title>LoginStep2&#45;&gt;LoginError</title>
<path fill="none" stroke="black" d="M2259.11,-1654C2208.02,-1654 2159.67,-1654 2159.67,-1654 2159.67,-1654 2159.67,-1465.77 2159.67,-1465.77"/>
<polygon fill="black" stroke="black" points="2163.17,-1465.77 2159.67,-1455.77 2156.17,-1465.77 2163.17,-1465.77"/>
<text xml:space="preserve" text-anchor="middle" x="2151.04" y="-1612.06" font-family="Arial" font-size="14.00">No</text>
</g>
<!-- AdminCheck -->
<g id="node6" class="node">
<title>AdminCheck</title>
<polygon fill="none" stroke="black" points="2383,-1454.05 2259.27,-1436.05 2383,-1418.05 2506.73,-1436.05 2383,-1454.05"/>
<text xml:space="preserve" text-anchor="middle" x="2383" y="-1430.62" font-family="Arial" font-size="14.00">Admin credentials?</text>
</g>
<!-- LoginStep2&#45;&gt;AdminCheck -->
<g id="edge6" class="edge">
<title>LoginStep2&#45;&gt;AdminCheck</title>
<path fill="none" stroke="black" d="M2377,-1635.61C2377,-1635.61 2377,-1464.94 2377,-1464.94"/>
<polygon fill="black" stroke="black" points="2380.5,-1464.94 2377,-1454.94 2373.5,-1464.94 2380.5,-1464.94"/>
<text xml:space="preserve" text-anchor="middle" x="2365.75" y="-1552.73" font-family="Arial" font-size="14.00">Yes</text>
</g>
<!-- LoginError&#45;&gt;LoginStep1 -->
<g id="edge5" class="edge">
<title>LoginError&#45;&gt;LoginStep1</title>
<path fill="none" stroke="black" d="M2132.33,-1454.42C2132.33,-1537.02 2132.33,-1870 2132.33,-1870 2132.33,-1870 2285.37,-1870 2285.37,-1870"/>
<polygon fill="black" stroke="black" points="2285.37,-1873.5 2295.37,-1870 2285.37,-1866.5 2285.37,-1873.5"/>
</g>
<!-- AccountStatus -->
<g id="node7" class="node">
<title>AccountStatus</title>
<polygon fill="none" stroke="black" points="2085,-1236.3 1979.62,-1218.3 2085,-1200.3 2190.38,-1218.3 2085,-1236.3"/>
<text xml:space="preserve" text-anchor="middle" x="2085" y="-1212.88" font-family="Arial" font-size="14.00">Account status?</text>
</g>
<!-- AdminCheck&#45;&gt;AccountStatus -->
<g id="edge8" class="edge">
<title>AdminCheck&#45;&gt;AccountStatus</title>
<path fill="none" stroke="black" d="M2263.88,-1435.08C2263.88,-1419.35 2263.88,-1218 2263.88,-1218 2263.88,-1218 2202.9,-1218 2202.9,-1218"/>
<polygon fill="black" stroke="black" points="2202.9,-1214.5 2192.9,-1218 2202.9,-1221.5 2202.9,-1214.5"/>
<text xml:space="preserve" text-anchor="middle" x="2255.26" y="-1298.49" font-family="Arial" font-size="14.00">No</text>
</g>
<!-- AdminEntry -->
<g id="node8" class="node">
<title>AdminEntry</title>
<polygon fill="none" stroke="black" points="2745.25,-1236.3 2616.75,-1236.3 2616.75,-1200.3 2745.25,-1200.3 2745.25,-1236.3"/>
<text xml:space="preserve" text-anchor="middle" x="2681" y="-1212.88" font-family="Arial" font-size="14.00">Enter Admin mode</text>
</g>
<!-- AdminCheck&#45;&gt;AdminEntry -->
<g id="edge7" class="edge">
<title>AdminCheck&#45;&gt;AdminEntry</title>
<path fill="none" stroke="black" d="M2484.18,-1432.53C2484.18,-1404.03 2484.18,-1212 2484.18,-1212 2484.18,-1212 2604.77,-1212 2604.77,-1212"/>
<polygon fill="black" stroke="black" points="2604.77,-1215.5 2614.77,-1212 2604.77,-1208.5 2604.77,-1215.5"/>
<text xml:space="preserve" text-anchor="middle" x="2472.93" y="-1264.42" font-family="Arial" font-size="14.00">Yes</text>
</g>
<!-- GuestEntry -->
<g id="node9" class="node">
<title>GuestEntry</title>
<polygon fill="none" stroke="black" points="2148.5,-995.1 2021.5,-995.1 2021.5,-959.1 2148.5,-959.1 2148.5,-995.1"/>
<text xml:space="preserve" text-anchor="middle" x="2085" y="-971.68" font-family="Arial" font-size="14.00">Enter Guest mode</text>
</g>
<!-- AccountStatus&#45;&gt;GuestEntry -->
<g id="edge9" class="edge">
<title>AccountStatus&#45;&gt;GuestEntry</title>
<path fill="none" stroke="black" d="M2085,-1200.17C2085,-1200.17 2085,-1006.95 2085,-1006.95"/>
<polygon fill="black" stroke="black" points="2088.5,-1006.95 2085,-996.95 2081.5,-1006.95 2088.5,-1006.95"/>
<text xml:space="preserve" text-anchor="middle" x="2024.25" y="-1106.01" font-family="Arial" font-size="14.00">Suspended/Pending</text>
</g>
<!-- ContributorEntry -->
<g id="node10" class="node">
<title>ContributorEntry</title>
<polygon fill="none" stroke="black" points="1233.5,-995.1 1076.5,-995.1 1076.5,-959.1 1233.5,-959.1 1233.5,-995.1"/>
<text xml:space="preserve" text-anchor="middle" x="1155" y="-971.68" font-family="Arial" font-size="14.00">Enter Contributor mode</text>
</g>
<!-- AccountStatus&#45;&gt;ContributorEntry -->
<g id="edge10" class="edge">
<title>AccountStatus&#45;&gt;ContributorEntry</title>
<path fill="none" stroke="black" d="M1984.31,-1217.22C1984.31,-1199.82 1984.31,-977 1984.31,-977 1984.31,-977 1245.28,-977 1245.28,-977"/>
<polygon fill="black" stroke="black" points="1245.28,-973.5 1235.28,-977 1245.28,-980.5 1245.28,-973.5"/>
<text xml:space="preserve" text-anchor="middle" x="1691.41" y="-979.45" font-family="Arial" font-size="14.00">Active/Inactive</text>
</g>
<!-- AdminAction -->
<g id="node33" class="node">
<title>AdminAction</title>
<polygon fill="none" stroke="black" points="2949,-1020.3 2873.25,-977.1 2949,-933.9 3024.75,-977.1 2949,-1020.3"/>
<text xml:space="preserve" text-anchor="middle" x="2949" y="-971.68" font-family="Arial" font-size="14.00">Admin Action?</text>
</g>
<!-- AdminEntry&#45;&gt;AdminAction -->
<g id="edge46" class="edge">
<title>AdminEntry&#45;&gt;AdminAction</title>
<path fill="none" stroke="black" d="M2741.06,-1200.01C2741.06,-1148.84 2741.06,-1008 2741.06,-1008 2741.06,-1008 2915.23,-1008 2915.23,-1008"/>
<polygon fill="black" stroke="black" points="2915.23,-1011.5 2925.23,-1008 2915.23,-1004.5 2915.23,-1011.5"/>
</g>
<!-- GuestAction -->
<g id="node15" class="node">
<title>GuestAction</title>
<polygon fill="none" stroke="black" points="2061,-753.9 1989,-710.7 2061,-667.5 2133,-710.7 2061,-753.9"/>
<text xml:space="preserve" text-anchor="middle" x="2061" y="-705.28" font-family="Arial" font-size="14.00">Action?</text>
</g>
<!-- GuestEntry&#45;&gt;GuestAction -->
<g id="edge16" class="edge">
<title>GuestEntry&#45;&gt;GuestAction</title>
<path fill="none" stroke="black" d="M2077.25,-958.79C2077.25,-958.79 2077.25,-756.07 2077.25,-756.07"/>
<polygon fill="black" stroke="black" points="2080.75,-756.07 2077.25,-746.07 2073.75,-756.07 2080.75,-756.07"/>
</g>
<!-- ContributorAction -->
<g id="node20" class="node">
<title>ContributorAction</title>
<polygon fill="none" stroke="black" points="830,-753.9 758,-710.7 830,-667.5 902,-710.7 830,-753.9"/>
<text xml:space="preserve" text-anchor="middle" x="830" y="-705.28" font-family="Arial" font-size="14.00">Action?</text>
</g>
<!-- ContributorEntry&#45;&gt;ContributorAction -->
<g id="edge24" class="edge">
<title>ContributorEntry&#45;&gt;ContributorAction</title>
<path fill="none" stroke="black" d="M1091.12,-958.89C1091.12,-904.17 1091.12,-745 1091.12,-745 1091.12,-745 857.07,-745 857.07,-745"/>
<polygon fill="black" stroke="black" points="857.07,-741.5 847.07,-745 857.07,-748.5 857.07,-741.5"/>
</g>
<!-- SignupStep2 -->
<g id="node12" class="node">
<title>SignupStep2</title>
<polygon fill="none" stroke="black" points="2757.75,-1455.8 2578.25,-1455.8 2578.25,-1416.3 2757.75,-1416.3 2757.75,-1455.8"/>
<text xml:space="preserve" text-anchor="middle" x="2668" y="-1438.5" font-family="Arial" font-size="14.00">Create user</text>
<text xml:space="preserve" text-anchor="middle" x="2668" y="-1422.75" font-family="Arial" font-size="14.00">(role: user, status: pending)</text>
</g>
<!-- SignupStep1&#45;&gt;SignupStep2 -->
<g id="edge12" class="edge">
<title>SignupStep1&#45;&gt;SignupStep2</title>
<path fill="none" stroke="black" d="M2668,-1635.61C2668,-1635.61 2668,-1467.74 2668,-1467.74"/>
<polygon fill="black" stroke="black" points="2671.5,-1467.74 2668,-1457.74 2664.5,-1467.74 2671.5,-1467.74"/>
</g>
<!-- SignupStep3 -->
<g id="node13" class="node">
<title>SignupStep3</title>
<polygon fill="none" stroke="black" points="2420.5,-1236.3 2281.5,-1236.3 2281.5,-1200.3 2420.5,-1200.3 2420.5,-1236.3"/>
<text xml:space="preserve" text-anchor="middle" x="2351" y="-1212.88" font-family="Arial" font-size="14.00">Auto&#45;login (Pending)</text>
</g>
<!-- SignupStep2&#45;&gt;SignupStep3 -->
<g id="edge13" class="edge">
<title>SignupStep2&#45;&gt;SignupStep3</title>
<path fill="none" stroke="black" d="M2597.5,-1416.1C2597.5,-1363.31 2597.5,-1224 2597.5,-1224 2597.5,-1224 2432.49,-1224 2432.49,-1224"/>
<polygon fill="black" stroke="black" points="2432.49,-1220.5 2422.49,-1224 2432.49,-1227.5 2432.49,-1220.5"/>
</g>
<!-- SignupStep3&#45;&gt;GuestEntry -->
<g id="edge14" class="edge">
<title>SignupStep3&#45;&gt;GuestEntry</title>
<path fill="none" stroke="black" d="M2310.81,-1200.16C2310.81,-1144.05 2310.81,-977 2310.81,-977 2310.81,-977 2160.32,-977 2160.32,-977"/>
<polygon fill="black" stroke="black" points="2160.32,-973.5 2150.32,-977 2160.32,-980.5 2160.32,-973.5"/>
</g>
<!-- GuestBrowse -->
<g id="node16" class="node">
<title>GuestBrowse</title>
<polygon fill="none" stroke="black" points="1876.25,-485.75 1723.75,-485.75 1723.75,-449.75 1876.25,-449.75 1876.25,-485.75"/>
<text xml:space="preserve" text-anchor="middle" x="1800" y="-462.32" font-family="Arial" font-size="14.00">View approved recipes</text>
</g>
<!-- GuestAction&#45;&gt;GuestBrowse -->
<g id="edge17" class="edge">
<title>GuestAction&#45;&gt;GuestBrowse</title>
<path fill="none" stroke="black" d="M2030.89,-685C1957.35,-685 1774.58,-685 1774.58,-685 1774.58,-685 1774.58,-497.41 1774.58,-497.41"/>
<polygon fill="black" stroke="black" points="1778.08,-497.41 1774.58,-487.41 1771.08,-497.41 1778.08,-497.41"/>
<text xml:space="preserve" text-anchor="middle" x="1763.19" y="-687.45" font-family="Arial" font-size="14.00">Browse/Search</text>
</g>
<!-- GuestDetail -->
<g id="node17" class="node">
<title>GuestDetail</title>
<polygon fill="none" stroke="black" points="2075.88,-485.75 1948.12,-485.75 1948.12,-449.75 2075.88,-449.75 2075.88,-485.75"/>
<text xml:space="preserve" text-anchor="middle" x="2012" y="-462.32" font-family="Arial" font-size="14.00">Recipe detail page</text>
</g>
<!-- GuestAction&#45;&gt;GuestDetail -->
<g id="edge19" class="edge">
<title>GuestAction&#45;&gt;GuestDetail</title>
<path fill="none" stroke="black" d="M2017.96,-692.84C2017.96,-692.84 2017.96,-497.48 2017.96,-497.48"/>
<polygon fill="black" stroke="black" points="2021.46,-497.48 2017.96,-487.48 2014.46,-497.48 2021.46,-497.48"/>
<text xml:space="preserve" text-anchor="middle" x="1984.21" y="-597.61" font-family="Arial" font-size="14.00">View Detail</text>
</g>
<!-- GuestBlock -->
<g id="node18" class="node">
<title>GuestBlock</title>
<polygon fill="none" stroke="black" points="2268.5,-487.5 2147.5,-487.5 2147.5,-448 2268.5,-448 2268.5,-487.5"/>
<text xml:space="preserve" text-anchor="middle" x="2208" y="-470.2" font-family="Arial" font-size="14.00">Show message:</text>
<text xml:space="preserve" text-anchor="middle" x="2208" y="-454.45" font-family="Arial" font-size="14.00">Pending approval</text>
</g>
<!-- GuestAction&#45;&gt;GuestBlock -->
<g id="edge21" class="edge">
<title>GuestAction&#45;&gt;GuestBlock</title>
<path fill="none" stroke="black" d="M2072.64,-674C2099.29,-674 2162.46,-674 2162.46,-674 2162.46,-674 2162.46,-499.42 2162.46,-499.42"/>
<polygon fill="black" stroke="black" points="2165.96,-499.42 2162.46,-489.42 2158.96,-499.42 2165.96,-499.42"/>
<text xml:space="preserve" text-anchor="middle" x="2073.21" y="-634.07" font-family="Arial" font-size="14.00">Like/Save/Review/Create/Edit</text>
</g>
<!-- GuestLogout -->
<g id="node19" class="node">
<title>GuestLogout</title>
<polygon fill="none" stroke="black" points="2437.88,-485.75 2340.12,-485.75 2340.12,-449.75 2437.88,-449.75 2437.88,-485.75"/>
<text xml:space="preserve" text-anchor="middle" x="2389" y="-462.32" font-family="Arial" font-size="14.00">Clear session</text>
</g>
<!-- GuestAction&#45;&gt;GuestLogout -->
<g id="edge23" class="edge">
<title>GuestAction&#45;&gt;GuestLogout</title>
<path fill="none" stroke="black" d="M2092.78,-686C2173.55,-686 2380.31,-686 2380.31,-686 2380.31,-686 2380.31,-497.5 2380.31,-497.5"/>
<polygon fill="black" stroke="black" points="2383.81,-497.5 2380.31,-487.5 2376.81,-497.5 2383.81,-497.5"/>
<text xml:space="preserve" text-anchor="middle" x="2310.18" y="-688.45" font-family="Arial" font-size="14.00">Logout</text>
</g>
<!-- GuestBrowse&#45;&gt;GuestAction -->
<g id="edge18" class="edge">
<title>GuestBrowse&#45;&gt;GuestAction</title>
<path fill="none" stroke="black" d="M1825.42,-486.23C1825.42,-537.2 1825.42,-676 1825.42,-676 1825.42,-676 2034.39,-676 2034.39,-676"/>
<polygon fill="black" stroke="black" points="2034.39,-679.5 2044.39,-676 2034.39,-672.5 2034.39,-679.5"/>
</g>
<!-- GuestDetail&#45;&gt;GuestAction -->
<g id="edge20" class="edge">
<title>GuestDetail&#45;&gt;GuestAction</title>
<path fill="none" stroke="black" d="M2046.92,-486.01C2046.92,-486.01 2046.92,-664.22 2046.92,-664.22"/>
<polygon fill="black" stroke="black" points="2043.42,-664.22 2046.92,-674.22 2050.42,-664.22 2043.42,-664.22"/>
</g>
<!-- GuestBlock&#45;&gt;GuestAction -->
<g id="edge22" class="edge">
<title>GuestBlock&#45;&gt;GuestAction</title>
<path fill="none" stroke="black" d="M2176.42,-487.72C2176.42,-540.55 2176.42,-680 2176.42,-680 2176.42,-680 2094.22,-680 2094.22,-680"/>
<polygon fill="black" stroke="black" points="2094.22,-676.5 2084.22,-680 2094.22,-683.5 2094.22,-676.5"/>
</g>
<!-- GuestLogout&#45;&gt;End -->
<g id="edge56" class="edge">
<title>GuestLogout&#45;&gt;End</title>
<path fill="none" stroke="black" d="M2438.13,-468C2510.99,-468 2639.19,-468 2639.19,-468 2639.19,-468 2639.19,-279.73 2639.19,-279.73"/>
<polygon fill="black" stroke="black" points="2642.69,-279.73 2639.19,-269.73 2635.69,-279.73 2642.69,-279.73"/>
</g>
<!-- ContribBrowse -->
<g id="node21" class="node">
<title>ContribBrowse</title>
<polygon fill="none" stroke="black" points="1452.25,-485.75 1299.75,-485.75 1299.75,-449.75 1452.25,-449.75 1452.25,-485.75"/>
<text xml:space="preserve" text-anchor="middle" x="1376" y="-462.32" font-family="Arial" font-size="14.00">View approved recipes</text>
</g>
<!-- ContributorAction&#45;&gt;ContribBrowse -->
<g id="edge25" class="edge">
<title>ContributorAction&#45;&gt;ContribBrowse</title>
<path fill="none" stroke="black" d="M902.38,-711C1045.43,-711 1350.58,-711 1350.58,-711 1350.58,-711 1350.58,-497.55 1350.58,-497.55"/>
<polygon fill="black" stroke="black" points="1354.08,-497.55 1350.58,-487.55 1347.08,-497.55 1354.08,-497.55"/>
<text xml:space="preserve" text-anchor="middle" x="1187.46" y="-713.45" font-family="Arial" font-size="14.00">Browse/Search</text>
</g>
<!-- ContribDetail -->
<g id="node22" class="node">
<title>ContribDetail</title>
<polygon fill="none" stroke="black" points="1651.88,-485.75 1524.12,-485.75 1524.12,-449.75 1651.88,-449.75 1651.88,-485.75"/>
<text xml:space="preserve" text-anchor="middle" x="1588" y="-462.32" font-family="Arial" font-size="14.00">Recipe detail page</text>
</g>
<!-- ContributorAction&#45;&gt;ContribDetail -->
<g id="edge27" class="edge">
<title>ContributorAction&#45;&gt;ContribDetail</title>
<path fill="none" stroke="black" d="M873.88,-728C1032.48,-728 1566.71,-728 1566.71,-728 1566.71,-728 1566.71,-497.56 1566.71,-497.56"/>
<polygon fill="black" stroke="black" points="1570.21,-497.56 1566.71,-487.56 1563.21,-497.56 1570.21,-497.56"/>
<text xml:space="preserve" text-anchor="middle" x="1301.76" y="-730.45" font-family="Arial" font-size="14.00">View Detail</text>
</g>
<!-- ContribLike -->
<g id="node23" class="node">
<title>ContribLike</title>
<polygon fill="none" stroke="black" points="95.88,-485.75 16.12,-485.75 16.12,-449.75 95.88,-449.75 95.88,-485.75"/>
<text xml:space="preserve" text-anchor="middle" x="56" y="-462.32" font-family="Arial" font-size="14.00">Toggle like</text>
</g>
<!-- ContributorAction&#45;&gt;ContribLike -->
<g id="edge29" class="edge">
<title>ContributorAction&#45;&gt;ContribLike</title>
<path fill="none" stroke="black" d="M812.82,-744C697.69,-744 42.71,-744 42.71,-744 42.71,-744 42.71,-497.39 42.71,-497.39"/>
<polygon fill="black" stroke="black" points="46.21,-497.39 42.71,-487.39 39.21,-497.39 46.21,-497.39"/>
<text xml:space="preserve" text-anchor="middle" x="292.09" y="-746.45" font-family="Arial" font-size="14.00">Like</text>
</g>
<!-- ContribSave -->
<g id="node24" class="node">
<title>ContribSave</title>
<polygon fill="none" stroke="black" points="271.88,-485.75 168.12,-485.75 168.12,-449.75 271.88,-449.75 271.88,-485.75"/>
<text xml:space="preserve" text-anchor="middle" x="220" y="-462.32" font-family="Arial" font-size="14.00">Toggle favorite</text>
</g>
<!-- ContributorAction&#45;&gt;ContribSave -->
<g id="edge31" class="edge">
<title>ContributorAction&#45;&gt;ContribSave</title>
<path fill="none" stroke="black" d="M781.04,-725C633.41,-725 202.71,-725 202.71,-725 202.71,-725 202.71,-497.35 202.71,-497.35"/>
<polygon fill="black" stroke="black" points="206.21,-497.35 202.71,-487.35 199.21,-497.35 206.21,-497.35"/>
<text xml:space="preserve" text-anchor="middle" x="362.67" y="-727.45" font-family="Arial" font-size="14.00">Save</text>
</g>
<!-- ContribReview -->
<g id="node25" class="node">
<title>ContribReview</title>
<polygon fill="none" stroke="black" points="459.88,-485.75 344.12,-485.75 344.12,-449.75 459.88,-449.75 459.88,-485.75"/>
<text xml:space="preserve" text-anchor="middle" x="402" y="-462.32" font-family="Arial" font-size="14.00">Write/edit review</text>
</g>
<!-- ContributorAction&#45;&gt;ContribReview -->
<g id="edge33" class="edge">
<title>ContributorAction&#45;&gt;ContribReview</title>
<path fill="none" stroke="black" d="M764.96,-706C640.9,-706 382.71,-706 382.71,-706 382.71,-706 382.71,-497.56 382.71,-497.56"/>
<polygon fill="black" stroke="black" points="386.21,-497.56 382.71,-487.56 379.21,-497.56 386.21,-497.56"/>
<text xml:space="preserve" text-anchor="middle" x="447.49" y="-708.45" font-family="Arial" font-size="14.00">Review</text>
</g>
<!-- ContribProfile -->
<g id="node26" class="node">
<title>ContribProfile</title>
<polygon fill="none" stroke="black" points="611.88,-485.75 532.12,-485.75 532.12,-449.75 611.88,-449.75 611.88,-485.75"/>
<text xml:space="preserve" text-anchor="middle" x="572" y="-462.32" font-family="Arial" font-size="14.00">Edit profile</text>
</g>
<!-- ContributorAction&#45;&gt;ContribProfile -->
<g id="edge35" class="edge">
<title>ContributorAction&#45;&gt;ContribProfile</title>
<path fill="none" stroke="black" d="M813.56,-677C758.7,-677 585.29,-677 585.29,-677 585.29,-677 585.29,-497.47 585.29,-497.47"/>
<polygon fill="black" stroke="black" points="588.79,-497.47 585.29,-487.47 581.79,-497.47 588.79,-497.47"/>
<text xml:space="preserve" text-anchor="middle" x="590.54" y="-679.45" font-family="Arial" font-size="14.00">Profile</text>
</g>
<!-- CreateStep1 -->
<g id="node27" class="node">
<title>CreateStep1</title>
<polygon fill="none" stroke="black" points="789.62,-485.75 684.38,-485.75 684.38,-449.75 789.62,-449.75 789.62,-485.75"/>
<text xml:space="preserve" text-anchor="middle" x="737" y="-462.32" font-family="Arial" font-size="14.00">Fill recipe form</text>
</g>
<!-- ContributorAction&#45;&gt;CreateStep1 -->
<g id="edge37" class="edge">
<title>ContributorAction&#45;&gt;CreateStep1</title>
<path fill="none" stroke="black" d="M773.81,-700.88C773.81,-700.88 773.81,-497.58 773.81,-497.58"/>
<polygon fill="black" stroke="black" points="777.31,-497.58 773.81,-487.58 770.31,-497.58 777.31,-497.58"/>
<text xml:space="preserve" text-anchor="middle" x="730.69" y="-601.68" font-family="Arial" font-size="14.00">Create Recipe</text>
</g>
<!-- EditOwn -->
<g id="node31" class="node">
<title>EditOwn</title>
<polygon fill="none" stroke="black" points="984.25,-485.75 861.75,-485.75 861.75,-449.75 984.25,-449.75 984.25,-485.75"/>
<text xml:space="preserve" text-anchor="middle" x="923" y="-462.32" font-family="Arial" font-size="14.00">Edit/Delete recipe</text>
</g>
<!-- ContributorAction&#45;&gt;EditOwn -->
<g id="edge43" class="edge">
<title>ContributorAction&#45;&gt;EditOwn</title>
<path fill="none" stroke="black" d="M875.17,-694.38C875.17,-694.38 875.17,-497.47 875.17,-497.47"/>
<polygon fill="black" stroke="black" points="878.67,-497.47 875.17,-487.47 871.67,-497.47 878.67,-497.47"/>
<text xml:space="preserve" text-anchor="middle" x="826.04" y="-598.38" font-family="Arial" font-size="14.00">Edit/Delete Own</text>
</g>
<!-- ContribLogout -->
<g id="node32" class="node">
<title>ContribLogout</title>
<polygon fill="none" stroke="black" points="1227.88,-485.75 1130.12,-485.75 1130.12,-449.75 1227.88,-449.75 1227.88,-485.75"/>
<text xml:space="preserve" text-anchor="middle" x="1179" y="-462.32" font-family="Arial" font-size="14.00">Clear session</text>
</g>
<!-- ContributorAction&#45;&gt;ContribLogout -->
<g id="edge45" class="edge">
<title>ContributorAction&#45;&gt;ContribLogout</title>
<path fill="none" stroke="black" d="M888.41,-702C987.77,-702 1179,-702 1179,-702 1179,-702 1179,-497.64 1179,-497.64"/>
<polygon fill="black" stroke="black" points="1182.5,-497.64 1179,-487.64 1175.5,-497.64 1182.5,-497.64"/>
<text xml:space="preserve" text-anchor="middle" x="1115.26" y="-704.45" font-family="Arial" font-size="14.00">Logout</text>
</g>
<!-- ContribBrowse&#45;&gt;ContributorAction -->
<g id="edge26" class="edge">
<title>ContribBrowse&#45;&gt;ContributorAction</title>
<path fill="none" stroke="black" d="M1401.42,-486.23C1401.42,-544.25 1401.42,-719 1401.42,-719 1401.42,-719 900.51,-719 900.51,-719"/>
<polygon fill="black" stroke="black" points="900.51,-715.5 890.51,-719 900.51,-722.5 900.51,-715.5"/>
</g>
<!-- ContribDetail&#45;&gt;ContributorAction -->
<g id="edge28" class="edge">
<title>ContribDetail&#45;&gt;ContributorAction</title>
<path fill="none" stroke="black" d="M1609.29,-485.83C1609.29,-546.2 1609.29,-737 1609.29,-737 1609.29,-737 870.64,-737 870.64,-737"/>
<polygon fill="black" stroke="black" points="870.64,-733.5 860.64,-737 870.64,-740.5 870.64,-733.5"/>
</g>
<!-- ContribLike&#45;&gt;ContributorAction -->
<g id="edge30" class="edge">
<title>ContribLike&#45;&gt;ContributorAction</title>
<path fill="none" stroke="black" d="M69.29,-486.12C69.29,-546.5 69.29,-735 69.29,-735 69.29,-735 786.29,-735 786.29,-735"/>
<polygon fill="black" stroke="black" points="786.29,-738.5 796.29,-735 786.29,-731.5 786.29,-738.5"/>
</g>
<!-- ContribSave&#45;&gt;ContributorAction -->
<g id="edge32" class="edge">
<title>ContribSave&#45;&gt;ContributorAction</title>
<path fill="none" stroke="black" d="M237.29,-486C237.29,-543.33 237.29,-716 237.29,-716 237.29,-716 754.49,-716 754.49,-716"/>
<polygon fill="black" stroke="black" points="754.49,-719.5 764.49,-716 754.49,-712.5 754.49,-719.5"/>
</g>
<!-- ContribReview&#45;&gt;ContributorAction -->
<g id="edge34" class="edge">
<title>ContribReview&#45;&gt;ContributorAction</title>
<path fill="none" stroke="black" d="M421.29,-486.04C421.29,-540.21 421.29,-696 421.29,-696 421.29,-696 770.4,-696 770.4,-696"/>
<polygon fill="black" stroke="black" points="770.4,-699.5 780.4,-696 770.4,-692.5 770.4,-699.5"/>
</g>
<!-- ContribProfile&#45;&gt;ContributorAction -->
<g id="edge36" class="edge">
<title>ContribProfile&#45;&gt;ContributorAction</title>
<path fill="none" stroke="black" d="M558.71,-486.07C558.71,-538.76 558.71,-687 558.71,-687 558.71,-687 785.22,-687 785.22,-687"/>
<polygon fill="black" stroke="black" points="785.22,-690.5 795.22,-687 785.22,-683.5 785.22,-690.5"/>
</g>
<!-- CreateStep2 -->
<g id="node28" class="node">
<title>CreateStep2</title>
<polygon fill="none" stroke="black" points="892,-268 809.91,-250 892,-232 974.09,-250 892,-268"/>
<text xml:space="preserve" text-anchor="middle" x="892" y="-244.57" font-family="Arial" font-size="14.00">Form valid?</text>
</g>
<!-- CreateStep1&#45;&gt;CreateStep2 -->
<g id="edge38" class="edge">
<title>CreateStep1&#45;&gt;CreateStep2</title>
<path fill="none" stroke="black" d="M789.89,-468C813.38,-468 835.83,-468 835.83,-468 835.83,-468 835.83,-267.34 835.83,-267.34"/>
<polygon fill="black" stroke="black" points="839.33,-267.34 835.83,-257.34 832.33,-267.34 839.33,-267.34"/>
</g>
<!-- CreateError -->
<g id="node29" class="node">
<title>CreateError</title>
<polygon fill="none" stroke="black" points="859.38,-52 716.62,-52 716.62,-16 859.38,-16 859.38,-52"/>
<text xml:space="preserve" text-anchor="middle" x="788" y="-28.57" font-family="Arial" font-size="14.00">Show validation error</text>
</g>
<!-- CreateStep2&#45;&gt;CreateError -->
<g id="edge39" class="edge">
<title>CreateStep2&#45;&gt;CreateError</title>
<path fill="none" stroke="black" d="M834.64,-244.22C834.64,-244.22 834.64,-63.94 834.64,-63.94"/>
<polygon fill="black" stroke="black" points="838.14,-63.94 834.64,-53.94 831.14,-63.94 838.14,-63.94"/>
<text xml:space="preserve" text-anchor="middle" x="826.02" y="-156.53" font-family="Arial" font-size="14.00">No</text>
</g>
<!-- CreateStep3 -->
<g id="node30" class="node">
<title>CreateStep3</title>
<polygon fill="none" stroke="black" points="1105.75,-52 956.25,-52 956.25,-16 1105.75,-16 1105.75,-52"/>
<text xml:space="preserve" text-anchor="middle" x="1031" y="-28.57" font-family="Arial" font-size="14.00">Save recipe (Pending)</text>
</g>
<!-- CreateStep2&#45;&gt;CreateStep3 -->
<g id="edge41" class="edge">
<title>CreateStep2&#45;&gt;CreateStep3</title>
<path fill="none" stroke="black" d="M965.17,-247.57C965.17,-247.57 965.17,-63.88 965.17,-63.88"/>
<polygon fill="black" stroke="black" points="968.67,-63.88 965.17,-53.88 961.67,-63.88 968.67,-63.88"/>
<text xml:space="preserve" text-anchor="middle" x="953.92" y="-158.18" font-family="Arial" font-size="14.00">Yes</text>
</g>
<!-- CreateError&#45;&gt;CreateStep1 -->
<g id="edge40" class="edge">
<title>CreateError&#45;&gt;CreateStep1</title>
<path fill="none" stroke="black" d="M753.12,-52.36C753.12,-52.36 753.12,-438.11 753.12,-438.11"/>
<polygon fill="black" stroke="black" points="749.63,-438.11 753.13,-448.11 756.63,-438.11 749.63,-438.11"/>
</g>
<!-- CreateStep3&#45;&gt;ContributorAction -->
<g id="edge42" class="edge">
<title>CreateStep3&#45;&gt;ContributorAction</title>
<path fill="none" stroke="black" d="M1030.38,-52.31C1030.38,-158.75 1030.38,-693 1030.38,-693 1030.38,-693 884.5,-693 884.5,-693"/>
<polygon fill="black" stroke="black" points="884.5,-689.5 874.5,-693 884.5,-696.5 884.5,-689.5"/>
</g>
<!-- EditOwn&#45;&gt;ContributorAction -->
<g id="edge44" class="edge">
<title>EditOwn&#45;&gt;ContributorAction</title>
<path fill="none" stroke="black" d="M888.58,-486.01C888.58,-486.01 888.58,-690.94 888.58,-690.94"/>
<polygon fill="black" stroke="black" points="885.08,-690.94 888.58,-700.94 892.08,-690.94 885.08,-690.94"/>
</g>
<!-- ContribLogout&#45;&gt;End -->
<g id="edge57" class="edge">
<title>ContribLogout&#45;&gt;End</title>
<path fill="none" stroke="black" d="M1179,-449.56C1179,-397.23 1179,-250 1179,-250 1179,-250 2602.23,-250 2602.23,-250"/>
<polygon fill="black" stroke="black" points="2602.23,-253.5 2612.23,-250 2602.23,-246.5 2602.23,-253.5"/>
</g>
<!-- AdminStats -->
<g id="node34" class="node">
<title>AdminStats</title>
<polygon fill="none" stroke="black" points="3505.5,-728.7 3360.5,-728.7 3360.5,-692.7 3505.5,-692.7 3505.5,-728.7"/>
<text xml:space="preserve" text-anchor="middle" x="3433" y="-705.28" font-family="Arial" font-size="14.00">View dashboard stats</text>
</g>
<!-- AdminAction&#45;&gt;AdminStats -->
<g id="edge47" class="edge">
<title>AdminAction&#45;&gt;AdminStats</title>
<path fill="none" stroke="black" d="M3025.45,-977C3156.2,-977 3408.83,-977 3408.83,-977 3408.83,-977 3408.83,-740.52 3408.83,-740.52"/>
<polygon fill="black" stroke="black" points="3412.33,-740.52 3408.83,-730.52 3405.33,-740.52 3412.33,-740.52"/>
<text xml:space="preserve" text-anchor="middle" x="3303.51" y="-979.45" font-family="Arial" font-size="14.00">View Stats</text>
</g>
<!-- AdminUsers -->
<g id="node35" class="node">
<title>AdminUsers</title>
<polygon fill="none" stroke="black" points="2664.38,-728.7 2461.62,-728.7 2461.62,-692.7 2664.38,-692.7 2664.38,-728.7"/>
<text xml:space="preserve" text-anchor="middle" x="2563" y="-705.28" font-family="Arial" font-size="14.00">Approve/Suspend/Delete users</text>
</g>
<!-- AdminAction&#45;&gt;AdminUsers -->
<g id="edge49" class="edge">
<title>AdminAction&#45;&gt;AdminUsers</title>
<path fill="none" stroke="black" d="M2934.1,-942C2873.46,-942 2648.5,-942 2648.5,-942 2648.5,-942 2648.5,-740.36 2648.5,-740.36"/>
<polygon fill="black" stroke="black" points="2652,-740.36 2648.5,-730.36 2645,-740.36 2652,-740.36"/>
<text xml:space="preserve" text-anchor="middle" x="2646.23" y="-944.45" font-family="Arial" font-size="14.00">Manage Users</text>
</g>
<!-- AdminRecipes -->
<g id="node36" class="node">
<title>AdminRecipes</title>
<polygon fill="none" stroke="black" points="2935.12,-728.7 2736.88,-728.7 2736.88,-692.7 2935.12,-692.7 2935.12,-728.7"/>
<text xml:space="preserve" text-anchor="middle" x="2836" y="-705.28" font-family="Arial" font-size="14.00">Approve/Reject/Delete recipes</text>
</g>
<!-- AdminAction&#45;&gt;AdminRecipes -->
<g id="edge51" class="edge">
<title>AdminAction&#45;&gt;AdminRecipes</title>
<path fill="none" stroke="black" d="M2893.87,-964.96C2893.87,-964.96 2893.87,-740.48 2893.87,-740.48"/>
<polygon fill="black" stroke="black" points="2897.38,-740.48 2893.87,-730.48 2890.38,-740.48 2897.38,-740.48"/>
<text xml:space="preserve" text-anchor="middle" x="2838.75" y="-855.17" font-family="Arial" font-size="14.00">Moderate Recipes</text>
</g>
<!-- AdminLog -->
<g id="node37" class="node">
<title>AdminLog</title>
<polygon fill="none" stroke="black" points="3119,-728.7 3007,-728.7 3007,-692.7 3119,-692.7 3119,-728.7"/>
<text xml:space="preserve" text-anchor="middle" x="3063" y="-705.28" font-family="Arial" font-size="14.00">View activity log</text>
</g>
<!-- AdminAction&#45;&gt;AdminLog -->
<g id="edge53" class="edge">
<title>AdminAction&#45;&gt;AdminLog</title>
<path fill="none" stroke="black" d="M3012.92,-969.97C3012.92,-969.97 3012.92,-740.57 3012.92,-740.57"/>
<polygon fill="black" stroke="black" points="3016.42,-740.57 3012.92,-730.57 3009.42,-740.57 3016.42,-740.57"/>
<text xml:space="preserve" text-anchor="middle" x="2967.92" y="-857.72" font-family="Arial" font-size="14.00">Review Activity</text>
</g>
<!-- AdminLogout -->
<g id="node38" class="node">
<title>AdminLogout</title>
<polygon fill="none" stroke="black" points="3288.88,-728.7 3191.12,-728.7 3191.12,-692.7 3288.88,-692.7 3288.88,-728.7"/>
<text xml:space="preserve" text-anchor="middle" x="3240" y="-705.28" font-family="Arial" font-size="14.00">Clear session</text>
</g>
<!-- AdminAction&#45;&gt;AdminLogout -->
<g id="edge55" class="edge">
<title>AdminAction&#45;&gt;AdminLogout</title>
<path fill="none" stroke="black" d="M2988.55,-956C3068.11,-956 3240,-956 3240,-956 3240,-956 3240,-740.65 3240,-740.65"/>
<polygon fill="black" stroke="black" points="3243.5,-740.65 3240,-730.65 3236.5,-740.65 3243.5,-740.65"/>
<text xml:space="preserve" text-anchor="middle" x="3201.32" y="-958.45" font-family="Arial" font-size="14.00">Logout</text>
</g>
<!-- AdminStats&#45;&gt;AdminAction -->
<g id="edge48" class="edge">
<title>AdminStats&#45;&gt;AdminAction</title>
<path fill="none" stroke="black" d="M3457.17,-729.17C3457.17,-792.8 3457.17,-999 3457.17,-999 3457.17,-999 2998.71,-999 2998.71,-999"/>
<polygon fill="black" stroke="black" points="2998.71,-995.5 2988.71,-999 2998.71,-1002.5 2998.71,-995.5"/>
</g>
<!-- AdminUsers&#45;&gt;AdminAction -->
<g id="edge50" class="edge">
<title>AdminUsers&#45;&gt;AdminAction</title>
<path fill="none" stroke="black" d="M2632.62,-729.16C2632.62,-785.43 2632.62,-951 2632.62,-951 2632.62,-951 2906.58,-951 2906.58,-951"/>
<polygon fill="black" stroke="black" points="2906.58,-954.5 2916.58,-951 2906.58,-947.5 2906.58,-954.5"/>
</g>
<!-- AdminRecipes&#45;&gt;AdminAction -->
<g id="edge52" class="edge">
<title>AdminRecipes&#45;&gt;AdminAction</title>
<path fill="none" stroke="black" d="M2914.5,-729.01C2914.5,-729.01 2914.5,-941.52 2914.5,-941.52"/>
<polygon fill="black" stroke="black" points="2911,-941.52 2914.5,-951.52 2918,-941.52 2911,-941.52"/>
</g>
<!-- AdminLog&#45;&gt;AdminAction -->
<g id="edge54" class="edge">
<title>AdminLog&#45;&gt;AdminAction</title>
<path fill="none" stroke="black" d="M3018.83,-729.01C3018.83,-729.01 3018.83,-961.97 3018.83,-961.97"/>
<polygon fill="black" stroke="black" points="3015.33,-961.97 3018.83,-971.97 3022.33,-961.97 3015.33,-961.97"/>
</g>
<!-- AdminLogout&#45;&gt;End -->
<g id="edge58" class="edge">
<title>AdminLogout&#45;&gt;End</title>
<path fill="none" stroke="black" d="M3240,-692.4C3240,-606.12 3240,-244 3240,-244 3240,-244 2678.25,-244 2678.25,-244"/>
<polygon fill="black" stroke="black" points="2678.25,-240.5 2668.25,-244 2678.25,-247.5 2678.25,-240.5"/>
</g>
</g>
</svg>
