<?xml version="1.0" encoding="UTF-8" standalone="no"?>
<!DOCTYPE svg PUBLIC "-//W3C//DTD SVG 1.1//EN"
 "http://www.w3.org/Graphics/SVG/1.1/DTD/svg11.dtd">
<!-- Generated by graphviz version 14.1.1 (20251213.1925)
 -->
<!-- Title: DataFlow_Level2 Pages: 1 -->
<svg width="4416pt" height="2550pt"
 viewBox="0.00 0.00 4416.00 2550.00" xmlns="http://www.w3.org/2000/svg" xmlns:xlink="http://www.w3.org/1999/xlink">
<g id="graph0" class="graph" transform="scale(1 1) rotate(0) translate(4 2546.25)">
<title>DataFlow_Level2</title>
<polygon fill="white" stroke="none" points="-4,4 -4,-2546.25 4412.02,-2546.25 4412.02,4 -4,4"/>
<text xml:space="preserve" text-anchor="middle" x="2204.01" y="-2524.95" font-family="Times New Roman,serif" font-size="14.00">Level 2 DFD (Full User + Admin Flows)</text>
<!-- U2 -->
<g id="node1" class="node">
<title>U2</title>
<polygon fill="none" stroke="black" points="2840.02,-2513.87 2786.02,-2513.87 2786.02,-2477.87 2840.02,-2477.87 2840.02,-2513.87"/>
<text xml:space="preserve" text-anchor="middle" x="2813.02" y="-2490.44" font-family="Arial" font-size="14.00">User</text>
</g>
<!-- P10 -->
<g id="node5" class="node">
<title>P10</title>
<ellipse fill="none" stroke="black" cx="1632.02" cy="-2171.38" rx="90.48" ry="90.48"/>
<text xml:space="preserve" text-anchor="middle" x="1632.02" y="-2165.96" font-family="Arial" font-size="14.00">Validate Credentials</text>
</g>
<!-- U2&#45;&gt;P10 -->
<g id="edge1" class="edge">
<title>U2&#45;&gt;P10</title>
<path fill="none" stroke="black" d="M2785.74,-2502C2606.24,-2502 1601.86,-2502 1601.86,-2502 1601.86,-2502 1601.86,-2268.47 1601.86,-2268.47"/>
<polygon fill="black" stroke="black" points="1605.36,-2268.47 1601.86,-2258.47 1598.36,-2268.47 1605.36,-2268.47"/>
<text xml:space="preserve" text-anchor="middle" x="2044.41" y="-2504.45" font-family="Arial" font-size="14.00">Login Data</text>
</g>
<!-- P11 -->
<g id="node6" class="node">
<title>P11</title>
<ellipse fill="none" stroke="black" cx="3905.02" cy="-344.48" rx="72.02" ry="72.02"/>
<text xml:space="preserve" text-anchor="middle" x="3905.02" y="-339.06" font-family="Arial" font-size="14.00">Create Account</text>
</g>
<!-- U2&#45;&gt;P11 -->
<g id="edge5" class="edge">
<title>U2&#45;&gt;P11</title>
<path fill="none" stroke="black" d="M2840.33,-2502C3011.48,-2502 3929.03,-2502 3929.03,-2502 3929.03,-2502 3929.03,-424.13 3929.03,-424.13"/>
<polygon fill="black" stroke="black" points="3932.53,-424.13 3929.03,-414.13 3925.53,-424.13 3932.53,-424.13"/>
<text xml:space="preserve" text-anchor="middle" x="3891.9" y="-2009.86" font-family="Arial" font-size="14.00">Signup Data</text>
</g>
<!-- A2 -->
<g id="node2" class="node">
<title>A2</title>
<polygon fill="none" stroke="black" points="3257.52,-1117.87 3202.52,-1117.87 3202.52,-1081.87 3257.52,-1081.87 3257.52,-1117.87"/>
<text xml:space="preserve" text-anchor="middle" x="3230.02" y="-1094.44" font-family="Arial" font-size="14.00">Admin</text>
</g>
<!-- P24 -->
<g id="node21" class="node">
<title>P24</title>
<ellipse fill="none" stroke="black" cx="2723.02" cy="-344.48" rx="69.53" ry="69.53"/>
<text xml:space="preserve" text-anchor="middle" x="2723.02" y="-339.06" font-family="Arial" font-size="14.00">Manage Users</text>
</g>
<!-- A2&#45;&gt;P24 -->
<g id="edge51" class="edge">
<title>A2&#45;&gt;P24</title>
<path fill="none" stroke="black" d="M3202.09,-1100C3103.54,-1100 2778.03,-1100 2778.03,-1100 2778.03,-1100 2778.03,-399.33 2778.03,-399.33"/>
<polygon fill="black" stroke="black" points="2781.53,-399.33 2778.03,-389.33 2774.53,-399.33 2781.53,-399.33"/>
<text xml:space="preserve" text-anchor="middle" x="2740.15" y="-964.14" font-family="Arial" font-size="14.00">User Actions</text>
</g>
<!-- P25 -->
<g id="node22" class="node">
<title>P25</title>
<ellipse fill="none" stroke="black" cx="2979.02" cy="-344.48" rx="78.51" ry="78.51"/>
<text xml:space="preserve" text-anchor="middle" x="2979.02" y="-339.06" font-family="Arial" font-size="14.00">Manage Recipes</text>
</g>
<!-- A2&#45;&gt;P25 -->
<g id="edge54" class="edge">
<title>A2&#45;&gt;P25</title>
<path fill="none" stroke="black" d="M3202.2,-1094C3136.85,-1094 2979.02,-1094 2979.02,-1094 2979.02,-1094 2979.02,-434.79 2979.02,-434.79"/>
<polygon fill="black" stroke="black" points="2982.52,-434.79 2979.02,-424.79 2975.52,-434.79 2982.52,-434.79"/>
<text xml:space="preserve" text-anchor="middle" x="2934.4" y="-878.43" font-family="Arial" font-size="14.00">Recipe Actions</text>
</g>
<!-- P26 -->
<g id="node23" class="node">
<title>P26</title>
<ellipse fill="none" stroke="black" cx="3525.02" cy="-759.41" rx="99.47" ry="99.47"/>
<text xml:space="preserve" text-anchor="middle" x="3525.02" y="-753.99" font-family="Arial" font-size="14.00">View Dashboard Stats</text>
</g>
<!-- A2&#45;&gt;P26 -->
<g id="edge57" class="edge">
<title>A2&#45;&gt;P26</title>
<path fill="none" stroke="black" d="M3246.52,-1081.61C3246.52,-1025.13 3246.52,-857 3246.52,-857 3246.52,-857 3492.12,-857 3492.12,-857"/>
<polygon fill="black" stroke="black" points="3492.12,-860.5 3502.12,-857 3492.12,-853.5 3492.12,-860.5"/>
<text xml:space="preserve" text-anchor="middle" x="3214.64" y="-859.45" font-family="Arial" font-size="14.00">Stats Request</text>
</g>
<!-- P27 -->
<g id="node24" class="node">
<title>P27</title>
<ellipse fill="none" stroke="black" cx="3230.02" cy="-759.41" rx="87.99" ry="87.99"/>
<text xml:space="preserve" text-anchor="middle" x="3230.02" y="-753.99" font-family="Arial" font-size="14.00">Review Activity Log</text>
</g>
<!-- A2&#45;&gt;P27 -->
<g id="edge60" class="edge">
<title>A2&#45;&gt;P27</title>
<path fill="none" stroke="black" d="M3213.52,-1081.56C3213.52,-1081.56 3213.52,-857.6 3213.52,-857.6"/>
<polygon fill="black" stroke="black" points="3217.02,-857.6 3213.52,-847.6 3210.02,-857.6 3217.02,-857.6"/>
<text xml:space="preserve" text-anchor="middle" x="3168.15" y="-972.03" font-family="Arial" font-size="14.00">Activity Review</text>
</g>
<!-- C2 -->
<g id="node3" class="node">
<title>C2</title>
<polygon fill="none" stroke="black" points="1336.4,-1117.87 1253.65,-1117.87 1253.65,-1081.87 1336.4,-1081.87 1336.4,-1117.87"/>
<text xml:space="preserve" text-anchor="middle" x="1295.02" y="-1094.44" font-family="Arial" font-size="14.00">Contributor</text>
</g>
<!-- P14 -->
<g id="node9" class="node">
<title>P14</title>
<ellipse fill="none" stroke="black" cx="1980.02" cy="-759.41" rx="106.45" ry="106.45"/>
<text xml:space="preserve" text-anchor="middle" x="1980.02" y="-753.99" font-family="Arial" font-size="14.00">Browse/Search Recipes</text>
</g>
<!-- C2&#45;&gt;P14 -->
<g id="edge19" class="edge">
<title>C2&#45;&gt;P14</title>
<path fill="none" stroke="black" d="M1319.85,-1081.6C1319.85,-1025.9 1319.85,-862 1319.85,-862 1319.85,-862 1938.43,-862 1938.43,-862"/>
<polygon fill="black" stroke="black" points="1938.43,-865.5 1948.43,-862 1938.43,-858.5 1938.43,-865.5"/>
<text xml:space="preserve" text-anchor="middle" x="1477.34" y="-864.45" font-family="Arial" font-size="14.00">Search / Filter</text>
</g>
<!-- P16 -->
<g id="node11" class="node">
<title>P16</title>
<ellipse fill="none" stroke="black" cx="2396.02" cy="-759.41" rx="85.99" ry="85.99"/>
<text xml:space="preserve" text-anchor="middle" x="2396.02" y="-753.99" font-family="Arial" font-size="14.00">View Recipe Detail</text>
</g>
<!-- C2&#45;&gt;P16 -->
<g id="edge27" class="edge">
<title>C2&#45;&gt;P16</title>
<path fill="none" stroke="black" d="M1336.67,-1106C1500.35,-1106 2090.5,-1106 2090.5,-1106 2090.5,-1106 2090.5,-759 2090.5,-759 2090.5,-759 2298.18,-759 2298.18,-759"/>
<polygon fill="black" stroke="black" points="2298.18,-762.5 2308.18,-759 2298.18,-755.5 2298.18,-762.5"/>
<text xml:space="preserve" text-anchor="middle" x="1957.18" y="-1108.45" font-family="Arial" font-size="14.00">View Detail</text>
</g>
<!-- P18 -->
<g id="node13" class="node">
<title>P18</title>
<ellipse fill="none" stroke="black" cx="1632.02" cy="-759.41" rx="56.05" ry="56.05"/>
<text xml:space="preserve" text-anchor="middle" x="1632.02" y="-753.99" font-family="Arial" font-size="14.00">Toggle Like</text>
</g>
<!-- C2&#45;&gt;P18 -->
<g id="edge33" class="edge">
<title>C2&#45;&gt;P18</title>
<path fill="none" stroke="black" d="M1336.68,-1094C1426.85,-1094 1632.02,-1094 1632.02,-1094 1632.02,-1094 1632.02,-827.31 1632.02,-827.31"/>
<polygon fill="black" stroke="black" points="1635.52,-827.31 1632.02,-817.31 1628.52,-827.31 1635.52,-827.31"/>
<text xml:space="preserve" text-anchor="middle" x="1605.32" y="-1096.45" font-family="Arial" font-size="14.00">Like</text>
</g>
<!-- P19 -->
<g id="node14" class="node">
<title>P19</title>
<ellipse fill="none" stroke="black" cx="72.02" cy="-759.41" rx="72.02" ry="72.02"/>
<text xml:space="preserve" text-anchor="middle" x="72.02" y="-753.99" font-family="Arial" font-size="14.00">Toggle Favorite</text>
</g>
<!-- C2&#45;&gt;P19 -->
<g id="edge35" class="edge">
<title>C2&#45;&gt;P19</title>
<path fill="none" stroke="black" d="M1253.28,-1112C1038.93,-1112 72.02,-1112 72.02,-1112 72.02,-1112 72.02,-843.13 72.02,-843.13"/>
<polygon fill="black" stroke="black" points="75.52,-843.13 72.02,-833.13 68.52,-843.13 75.52,-843.13"/>
<text xml:space="preserve" text-anchor="middle" x="503.84" y="-1114.45" font-family="Arial" font-size="14.00">Favorite</text>
</g>
<!-- P20 -->
<g id="node15" class="node">
<title>P20</title>
<ellipse fill="none" stroke="black" cx="565.02" cy="-759.41" rx="89.99" ry="89.99"/>
<text xml:space="preserve" text-anchor="middle" x="565.02" y="-753.99" font-family="Arial" font-size="14.00">Add/Update Review</text>
</g>
<!-- C2&#45;&gt;P20 -->
<g id="edge37" class="edge">
<title>C2&#45;&gt;P20</title>
<path fill="none" stroke="black" d="M1253.15,-1100C1098.04,-1100 565.02,-1100 565.02,-1100 565.02,-1100 565.02,-861.3 565.02,-861.3"/>
<polygon fill="black" stroke="black" points="568.52,-861.3 565.02,-851.3 561.52,-861.3 568.52,-861.3"/>
<text xml:space="preserve" text-anchor="middle" x="767.61" y="-1102.45" font-family="Arial" font-size="14.00">Review</text>
</g>
<!-- P20b -->
<g id="node16" class="node">
<title>P20b</title>
<ellipse fill="none" stroke="black" cx="748.02" cy="-344.48" rx="68.53" ry="68.53"/>
<text xml:space="preserve" text-anchor="middle" x="748.02" y="-339.06" font-family="Arial" font-size="14.00">Delete Review</text>
</g>
<!-- C2&#45;&gt;P20b -->
<g id="edge39" class="edge">
<title>C2&#45;&gt;P20b</title>
<path fill="none" stroke="black" d="M1253.46,-1094C1125.81,-1094 748.02,-1094 748.02,-1094 748.02,-1094 748.02,-424.83 748.02,-424.83"/>
<polygon fill="black" stroke="black" points="751.52,-424.83 748.02,-414.83 744.52,-424.83 751.52,-424.83"/>
<text xml:space="preserve" text-anchor="middle" x="704.52" y="-1014.58" font-family="Arial" font-size="14.00">Delete Review</text>
</g>
<!-- P21a -->
<g id="node17" class="node">
<title>P21a</title>
<ellipse fill="none" stroke="black" cx="1295.02" cy="-759.41" rx="95.47" ry="95.47"/>
<text xml:space="preserve" text-anchor="middle" x="1295.02" y="-753.99" font-family="Arial" font-size="14.00">Validate Recipe Input</text>
</g>
<!-- C2&#45;&gt;P21a -->
<g id="edge41" class="edge">
<title>C2&#45;&gt;P21a</title>
<path fill="none" stroke="black" d="M1270.2,-1081.56C1270.2,-1081.56 1270.2,-863.34 1270.2,-863.34"/>
<polygon fill="black" stroke="black" points="1273.7,-863.34 1270.2,-853.34 1266.7,-863.34 1273.7,-863.34"/>
<text xml:space="preserve" text-anchor="middle" x="1231.2" y="-974.9" font-family="Arial" font-size="14.00">Recipe Form</text>
</g>
<!-- P22 -->
<g id="node19" class="node">
<title>P22</title>
<ellipse fill="none" stroke="black" cx="1013.02" cy="-344.48" rx="88.49" ry="88.49"/>
<text xml:space="preserve" text-anchor="middle" x="1013.02" y="-339.06" font-family="Arial" font-size="14.00">Delete Own Recipe</text>
</g>
<!-- C2&#45;&gt;P22 -->
<g id="edge45" class="edge">
<title>C2&#45;&gt;P22</title>
<path fill="none" stroke="black" d="M1253.41,-1088C1174.97,-1088 1013.02,-1088 1013.02,-1088 1013.02,-1088 1013.02,-444.94 1013.02,-444.94"/>
<polygon fill="black" stroke="black" points="1016.52,-444.94 1013.02,-434.94 1009.52,-444.94 1016.52,-444.94"/>
<text xml:space="preserve" text-anchor="middle" x="970.65" y="-889.12" font-family="Arial" font-size="14.00">Delete Recipe</text>
</g>
<!-- P23 -->
<g id="node20" class="node">
<title>P23</title>
<ellipse fill="none" stroke="black" cx="285.02" cy="-344.48" rx="67.53" ry="67.53"/>
<text xml:space="preserve" text-anchor="middle" x="285.02" y="-339.06" font-family="Arial" font-size="14.00">Update Profile</text>
</g>
<!-- C2&#45;&gt;P23 -->
<g id="edge49" class="edge">
<title>C2&#45;&gt;P23</title>
<path fill="none" stroke="black" d="M1253.23,-1106C1062.62,-1106 285.02,-1106 285.02,-1106 285.02,-1106 285.02,-423.91 285.02,-423.91"/>
<polygon fill="black" stroke="black" points="288.52,-423.91 285.02,-413.91 281.52,-423.91 288.52,-423.91"/>
<text xml:space="preserve" text-anchor="middle" x="381.95" y="-1108.45" font-family="Arial" font-size="14.00">Profile Updates</text>
</g>
<!-- G2 -->
<g id="node4" class="node">
<title>G2</title>
<polygon fill="none" stroke="black" points="2281.52,-1117.87 2094.52,-1117.87 2094.52,-1081.87 2281.52,-1081.87 2281.52,-1117.87"/>
<text xml:space="preserve" text-anchor="middle" x="2188.02" y="-1094.44" font-family="Arial" font-size="14.00">Guest (Pending/Suspended)</text>
</g>
<!-- G2&#45;&gt;P14 -->
<g id="edge20" class="edge">
<title>G2&#45;&gt;P14</title>
<path fill="none" stroke="black" d="M2110.53,-1081.64C2110.53,-1024.4 2110.53,-852 2110.53,-852 2110.53,-852 2044.99,-852 2044.99,-852"/>
<polygon fill="black" stroke="black" points="2044.99,-848.5 2034.99,-852 2044.99,-855.5 2044.99,-848.5"/>
<text xml:space="preserve" text-anchor="middle" x="2068.53" y="-936.5" font-family="Arial" font-size="14.00">Search / Filter</text>
</g>
<!-- G2&#45;&gt;P16 -->
<g id="edge28" class="edge">
<title>G2&#45;&gt;P16</title>
<path fill="none" stroke="black" d="M2281.98,-1088C2337.1,-1088 2396.02,-1088 2396.02,-1088 2396.02,-1088 2396.02,-857.26 2396.02,-857.26"/>
<polygon fill="black" stroke="black" points="2399.52,-857.26 2396.02,-847.26 2392.52,-857.26 2399.52,-857.26"/>
<text xml:space="preserve" text-anchor="middle" x="2362.27" y="-1032.1" font-family="Arial" font-size="14.00">View Detail</text>
</g>
<!-- P10&#45;&gt;U2 -->
<g id="edge4" class="edge">
<title>P10&#45;&gt;U2</title>
<path fill="none" stroke="black" d="M1662.18,-2257.19C1662.18,-2351.56 1662.18,-2490 1662.18,-2490 1662.18,-2490 2774.2,-2490 2774.2,-2490"/>
<polygon fill="black" stroke="black" points="2774.2,-2493.5 2784.2,-2490 2774.2,-2486.5 2774.2,-2493.5"/>
<text xml:space="preserve" text-anchor="middle" x="2066.91" y="-2476.7" font-family="Arial" font-size="14.00">Auth Result</text>
</g>
<!-- P12 -->
<g id="node7" class="node">
<title>P12</title>
<ellipse fill="none" stroke="black" cx="1632.02" cy="-1771.42" rx="93.48" ry="93.48"/>
<text xml:space="preserve" text-anchor="middle" x="1632.02" y="-1765.99" font-family="Arial" font-size="14.00">Check Status &amp; Role</text>
</g>
<!-- P10&#45;&gt;P12 -->
<g id="edge10" class="edge">
<title>P10&#45;&gt;P12</title>
<path fill="none" stroke="black" d="M1632.02,-2080.63C1632.02,-2080.63 1632.02,-1876.81 1632.02,-1876.81"/>
<polygon fill="black" stroke="black" points="1635.52,-1876.81 1632.02,-1866.81 1628.52,-1876.81 1635.52,-1876.81"/>
<text xml:space="preserve" text-anchor="middle" x="1596.77" y="-1981.17" font-family="Arial" font-size="14.00">User Status</text>
</g>
<!-- D10 -->
<g id="node25" class="node">
<title>D10</title>
<path fill="none" stroke="black" d="M206.9,-32.73C206.9,-34.53 190.37,-36 170.02,-36 149.67,-36 133.15,-34.53 133.15,-32.73 133.15,-32.73 133.15,-3.27 133.15,-3.27 133.15,-1.47 149.67,0 170.02,0 190.37,0 206.9,-1.47 206.9,-3.27 206.9,-3.27 206.9,-32.73 206.9,-32.73"/>
<path fill="none" stroke="black" d="M206.9,-32.73C206.9,-30.92 190.37,-29.45 170.02,-29.45 149.67,-29.45 133.15,-30.92 133.15,-32.73"/>
<text xml:space="preserve" text-anchor="middle" x="170.02" y="-12.57" font-family="Arial" font-size="14.00">Users DB</text>
</g>
<!-- P10&#45;&gt;D10 -->
<g id="edge2" class="edge">
<title>P10&#45;&gt;D10</title>
<path fill="none" stroke="black" d="M1546.36,-2141C1232.28,-2141 162,-2141 162,-2141 162,-2141 162,-47.87 162,-47.87"/>
<polygon fill="black" stroke="black" points="165.5,-47.87 162,-37.87 158.5,-47.87 165.5,-47.87"/>
<text xml:space="preserve" text-anchor="middle" x="123.75" y="-1789.06" font-family="Arial" font-size="14.00">User Lookup</text>
</g>
<!-- P11&#45;&gt;U2 -->
<g id="edge7" class="edge">
<title>P11&#45;&gt;U2</title>
<path fill="none" stroke="black" d="M3881.01,-412.83C3881.01,-778.8 3881.01,-2490 3881.01,-2490 3881.01,-2490 2852.01,-2490 2852.01,-2490"/>
<polygon fill="black" stroke="black" points="2852.01,-2486.5 2842.01,-2490 2852.01,-2493.5 2852.01,-2486.5"/>
<text xml:space="preserve" text-anchor="middle" x="3830.76" y="-1968.37" font-family="Arial" font-size="14.00">Account Created</text>
</g>
<!-- P11&#45;&gt;D10 -->
<g id="edge6" class="edge">
<title>P11&#45;&gt;D10</title>
<path fill="none" stroke="black" d="M3905.02,-272.14C3905.02,-222.67 3905.02,-166 3905.02,-166 3905.02,-166 197.92,-166 197.92,-166 197.92,-166 197.92,-47.07 197.92,-47.07"/>
<polygon fill="black" stroke="black" points="201.42,-47.07 197.92,-37.07 194.42,-47.07 201.42,-47.07"/>
<text xml:space="preserve" text-anchor="middle" x="1984.33" y="-168.45" font-family="Arial" font-size="14.00">New User (Pending)</text>
</g>
<!-- D14 -->
<g id="node29" class="node">
<title>D14</title>
<path fill="none" stroke="black" d="M3827.27,-32.73C3827.27,-34.53 3809.23,-36 3787.02,-36 3764.81,-36 3746.77,-34.53 3746.77,-32.73 3746.77,-32.73 3746.77,-3.27 3746.77,-3.27 3746.77,-1.47 3764.81,0 3787.02,0 3809.23,0 3827.27,-1.47 3827.27,-3.27 3827.27,-3.27 3827.27,-32.73 3827.27,-32.73"/>
<path fill="none" stroke="black" d="M3827.27,-32.73C3827.27,-30.92 3809.23,-29.45 3787.02,-29.45 3764.81,-29.45 3746.77,-30.92 3746.77,-32.73"/>
<text xml:space="preserve" text-anchor="middle" x="3787.02" y="-12.57" font-family="Arial" font-size="14.00">Daily Stats</text>
</g>
<!-- P11&#45;&gt;D14 -->
<g id="edge9" class="edge">
<title>P11&#45;&gt;D14</title>
<path fill="none" stroke="black" d="M3884.36,-275C3853.88,-275 3800.44,-275 3800.44,-275 3800.44,-275 3800.44,-48 3800.44,-48"/>
<polygon fill="black" stroke="black" points="3803.94,-48 3800.44,-38 3796.94,-48 3803.94,-48"/>
<text xml:space="preserve" text-anchor="middle" x="3753.56" y="-205.91" font-family="Arial" font-size="14.00">New User Stats</text>
</g>
<!-- D16 -->
<g id="node31" class="node">
<title>D16</title>
<path fill="none" stroke="black" d="M3257.52,-32.73C3257.52,-34.53 3238.47,-36 3215.02,-36 3191.57,-36 3172.52,-34.53 3172.52,-32.73 3172.52,-32.73 3172.52,-3.27 3172.52,-3.27 3172.52,-1.47 3191.57,0 3215.02,0 3238.47,0 3257.52,-1.47 3257.52,-3.27 3257.52,-3.27 3257.52,-32.73 3257.52,-32.73"/>
<path fill="none" stroke="black" d="M3257.52,-32.73C3257.52,-30.92 3238.47,-29.45 3215.02,-29.45 3191.57,-29.45 3172.52,-30.92 3172.52,-32.73"/>
<text xml:space="preserve" text-anchor="middle" x="3215.02" y="-12.57" font-family="Arial" font-size="14.00">Activity Log</text>
</g>
<!-- P11&#45;&gt;D16 -->
<g id="edge8" class="edge">
<title>P11&#45;&gt;D16</title>
<path fill="none" stroke="black" d="M3871.97,-280C3736.28,-280 3229.19,-280 3229.19,-280 3229.19,-280 3229.19,-47.94 3229.19,-47.94"/>
<polygon fill="black" stroke="black" points="3232.69,-47.94 3229.19,-37.94 3225.69,-47.94 3232.69,-47.94"/>
<text xml:space="preserve" text-anchor="middle" x="3390.67" y="-282.45" font-family="Arial" font-size="14.00">Signup Activity</text>
</g>
<!-- P13 -->
<g id="node8" class="node">
<title>P13</title>
<ellipse fill="none" stroke="black" cx="2813.02" cy="-1397.9" rx="64.04" ry="64.04"/>
<text xml:space="preserve" text-anchor="middle" x="2813.02" y="-1392.48" font-family="Arial" font-size="14.00">Start Session</text>
</g>
<!-- P12&#45;&gt;P13 -->
<g id="edge12" class="edge">
<title>P12&#45;&gt;P13</title>
<path fill="none" stroke="black" d="M1706.79,-1714.8C1706.79,-1615.18 1706.79,-1419 1706.79,-1419 1706.79,-1419 2740.85,-1419 2740.85,-1419"/>
<polygon fill="black" stroke="black" points="2740.85,-1422.5 2750.85,-1419 2740.85,-1415.5 2740.85,-1422.5"/>
<text xml:space="preserve" text-anchor="middle" x="2000.92" y="-1421.45" font-family="Arial" font-size="14.00">Admin/Contributor/Guest</text>
</g>
<!-- P13&#45;&gt;U2 -->
<g id="edge14" class="edge">
<title>P13&#45;&gt;U2</title>
<path fill="none" stroke="black" d="M2813.02,-1462.08C2813.02,-1462.08 2813.02,-2466 2813.02,-2466"/>
<polygon fill="black" stroke="black" points="2809.52,-2466 2813.02,-2476 2816.52,-2466 2809.52,-2466"/>
<text xml:space="preserve" text-anchor="middle" x="2773.27" y="-1966.49" font-family="Arial" font-size="14.00">Session/Role</text>
</g>
<!-- P13&#45;&gt;A2 -->
<g id="edge15" class="edge">
<title>P13&#45;&gt;A2</title>
<path fill="none" stroke="black" d="M2834.8,-1337.42C2834.8,-1251.92 2834.8,-1106 2834.8,-1106 2834.8,-1106 3190.72,-1106 3190.72,-1106"/>
<polygon fill="black" stroke="black" points="3190.72,-1109.5 3200.72,-1106 3190.72,-1102.5 3190.72,-1109.5"/>
<text xml:space="preserve" text-anchor="middle" x="2877.55" y="-1108.45" font-family="Arial" font-size="14.00">Admin</text>
</g>
<!-- P13&#45;&gt;C2 -->
<g id="edge16" class="edge">
<title>P13&#45;&gt;C2</title>
<path fill="none" stroke="black" d="M2752.11,-1377C2468.94,-1377 1295.02,-1377 1295.02,-1377 1295.02,-1377 1295.02,-1129.56 1295.02,-1129.56"/>
<polygon fill="black" stroke="black" points="1298.52,-1129.56 1295.02,-1119.56 1291.52,-1129.56 1298.52,-1129.56"/>
<text xml:space="preserve" text-anchor="middle" x="1866.47" y="-1379.45" font-family="Arial" font-size="14.00">Contributor</text>
</g>
<!-- P13&#45;&gt;G2 -->
<g id="edge17" class="edge">
<title>P13&#45;&gt;G2</title>
<path fill="none" stroke="black" d="M2763.51,-1356.64C2763.51,-1277.46 2763.51,-1112 2763.51,-1112 2763.51,-1112 2293.28,-1112 2293.28,-1112"/>
<polygon fill="black" stroke="black" points="2293.28,-1108.5 2283.28,-1112 2293.28,-1115.5 2293.28,-1108.5"/>
<text xml:space="preserve" text-anchor="middle" x="2632.33" y="-1114.45" font-family="Arial" font-size="14.00">Guest</text>
</g>
<!-- P13&#45;&gt;D14 -->
<g id="edge18" class="edge">
<title>P13&#45;&gt;D14</title>
<path fill="none" stroke="black" d="M2873.84,-1377C3085,-1377 3773.61,-1377 3773.61,-1377 3773.61,-1377 3773.61,-47.95 3773.61,-47.95"/>
<polygon fill="black" stroke="black" points="3777.11,-47.95 3773.61,-37.95 3770.11,-47.95 3777.11,-47.95"/>
<text xml:space="preserve" text-anchor="middle" x="3723.73" y="-1164.81" font-family="Arial" font-size="14.00">Active User Ping</text>
</g>
<!-- D15 -->
<g id="node30" class="node">
<title>D15</title>
<path fill="none" stroke="black" d="M4408.02,-32.73C4408.02,-34.53 4385.61,-36 4358.02,-36 4330.43,-36 4308.02,-34.53 4308.02,-32.73 4308.02,-32.73 4308.02,-3.27 4308.02,-3.27 4308.02,-1.47 4330.43,0 4358.02,0 4385.61,0 4408.02,-1.47 4408.02,-3.27 4408.02,-3.27 4408.02,-32.73 4408.02,-32.73"/>
<path fill="none" stroke="black" d="M4408.02,-32.73C4408.02,-30.92 4385.61,-29.45 4358.02,-29.45 4330.43,-29.45 4308.02,-30.92 4308.02,-32.73"/>
<text xml:space="preserve" text-anchor="middle" x="4358.02" y="-12.57" font-family="Arial" font-size="14.00">Session Store</text>
</g>
<!-- P13&#45;&gt;D15 -->
<g id="edge13" class="edge">
<title>P13&#45;&gt;D15</title>
<path fill="none" stroke="black" d="M2873.59,-1419C3159.24,-1419 4358.02,-1419 4358.02,-1419 4358.02,-1419 4358.02,-48 4358.02,-48"/>
<polygon fill="black" stroke="black" points="4361.52,-48 4358.02,-38 4354.52,-48 4361.52,-48"/>
<text xml:space="preserve" text-anchor="middle" x="4277.31" y="-1421.45" font-family="Arial" font-size="14.00">Session</text>
</g>
<!-- P14&#45;&gt;C2 -->
<g id="edge22" class="edge">
<title>P14&#45;&gt;C2</title>
<path fill="none" stroke="black" d="M1941.21,-859C1797.41,-859 1303.3,-859 1303.3,-859 1303.3,-859 1303.3,-1070.25 1303.3,-1070.25"/>
<polygon fill="black" stroke="black" points="1299.8,-1070.25 1303.3,-1080.25 1306.8,-1070.25 1299.8,-1070.25"/>
<text xml:space="preserve" text-anchor="middle" x="1483.25" y="-861.45" font-family="Arial" font-size="14.00">Recipe List</text>
</g>
<!-- P14&#45;&gt;G2 -->
<g id="edge23" class="edge">
<title>P14&#45;&gt;G2</title>
<path fill="none" stroke="black" d="M2036.67,-850C2077.9,-850 2126.53,-850 2126.53,-850 2126.53,-850 2126.53,-1069.98 2126.53,-1069.98"/>
<polygon fill="black" stroke="black" points="2123.03,-1069.98 2126.53,-1079.98 2130.03,-1069.98 2123.03,-1069.98"/>
<text xml:space="preserve" text-anchor="middle" x="2093.16" y="-917.51" font-family="Arial" font-size="14.00">Recipe List</text>
</g>
<!-- P15 -->
<g id="node10" class="node">
<title>P15</title>
<ellipse fill="none" stroke="black" cx="2235.02" cy="-344.48" rx="92.48" ry="92.48"/>
<text xml:space="preserve" text-anchor="middle" x="2235.02" y="-339.06" font-family="Arial" font-size="14.00">Save Search History</text>
</g>
<!-- P14&#45;&gt;P15 -->
<g id="edge25" class="edge">
<title>P14&#45;&gt;P15</title>
<path fill="none" stroke="black" d="M2028.09,-664C2096.05,-664 2212.03,-664 2212.03,-664 2212.03,-664 2212.03,-445.85 2212.03,-445.85"/>
<polygon fill="black" stroke="black" points="2215.53,-445.85 2212.03,-435.85 2208.53,-445.85 2215.53,-445.85"/>
<text xml:space="preserve" text-anchor="middle" x="2170.03" y="-649.34" font-family="Arial" font-size="14.00">Search Query</text>
</g>
<!-- D11 -->
<g id="node26" class="node">
<title>D11</title>
<path fill="none" stroke="black" d="M2023.65,-32.73C2023.65,-34.53 2004.09,-36 1980.02,-36 1955.95,-36 1936.4,-34.53 1936.4,-32.73 1936.4,-32.73 1936.4,-3.27 1936.4,-3.27 1936.4,-1.47 1955.95,0 1980.02,0 2004.09,0 2023.65,-1.47 2023.65,-3.27 2023.65,-3.27 2023.65,-32.73 2023.65,-32.73"/>
<path fill="none" stroke="black" d="M2023.65,-32.73C2023.65,-30.92 2004.09,-29.45 1980.02,-29.45 1955.95,-29.45 1936.4,-30.92 1936.4,-32.73"/>
<text xml:space="preserve" text-anchor="middle" x="1980.02" y="-12.57" font-family="Arial" font-size="14.00">Recipes DB</text>
</g>
<!-- P14&#45;&gt;D11 -->
<g id="edge21" class="edge">
<title>P14&#45;&gt;D11</title>
<path fill="none" stroke="black" d="M1953.85,-655.93C1953.85,-655.93 1953.85,-47.71 1953.85,-47.71"/>
<polygon fill="black" stroke="black" points="1957.35,-47.71 1953.85,-37.71 1950.35,-47.71 1957.35,-47.71"/>
<text xml:space="preserve" text-anchor="middle" x="1920.47" y="-354.27" font-family="Arial" font-size="14.00">Recipe List</text>
</g>
<!-- D13 -->
<g id="node28" class="node">
<title>D13</title>
<path fill="none" stroke="black" d="M2287.27,-32.73C2287.27,-34.53 2263.85,-36 2235.02,-36 2206.19,-36 2182.77,-34.53 2182.77,-32.73 2182.77,-32.73 2182.77,-3.27 2182.77,-3.27 2182.77,-1.47 2206.19,0 2235.02,0 2263.85,0 2287.27,-1.47 2287.27,-3.27 2287.27,-3.27 2287.27,-32.73 2287.27,-32.73"/>
<path fill="none" stroke="black" d="M2287.27,-32.73C2287.27,-30.92 2263.85,-29.45 2235.02,-29.45 2206.19,-29.45 2182.77,-30.92 2182.77,-32.73"/>
<text xml:space="preserve" text-anchor="middle" x="2235.02" y="-12.57" font-family="Arial" font-size="14.00">Search History</text>
</g>
<!-- P15&#45;&gt;D13 -->
<g id="edge26" class="edge">
<title>P15&#45;&gt;D13</title>
<path fill="none" stroke="black" d="M2235.02,-251.8C2235.02,-251.8 2235.02,-47.97 2235.02,-47.97"/>
<polygon fill="black" stroke="black" points="2238.52,-47.97 2235.02,-37.97 2231.52,-47.97 2238.52,-47.97"/>
<text xml:space="preserve" text-anchor="middle" x="2196.02" y="-152.33" font-family="Arial" font-size="14.00">Search Entry</text>
</g>
<!-- P17 -->
<g id="node12" class="node">
<title>P17</title>
<ellipse fill="none" stroke="black" cx="3227.02" cy="-344.48" rx="61.54" ry="61.54"/>
<text xml:space="preserve" text-anchor="middle" x="3227.02" y="-339.06" font-family="Arial" font-size="14.00">Record View</text>
</g>
<!-- P16&#45;&gt;P17 -->
<g id="edge30" class="edge">
<title>P16&#45;&gt;P17</title>
<path fill="none" stroke="black" d="M2404.76,-673.44C2404.76,-670.01 2404.76,-668 2404.76,-668 2404.76,-668 3227.02,-668 3227.02,-668 3227.02,-668 3227.02,-417.99 3227.02,-417.99"/>
<polygon fill="black" stroke="black" points="3230.52,-417.99 3227.02,-407.99 3223.52,-417.99 3230.52,-417.99"/>
<text xml:space="preserve" text-anchor="middle" x="2904.42" y="-670.45" font-family="Arial" font-size="14.00">View Event</text>
</g>
<!-- P16&#45;&gt;D11 -->
<g id="edge29" class="edge">
<title>P16&#45;&gt;D11</title>
<path fill="none" stroke="black" d="M2318.77,-720.58C2318.77,-658.8 2318.77,-545 2318.77,-545 2318.77,-545 1971.3,-545 1971.3,-545 1971.3,-545 1971.3,-47.96 1971.3,-47.96"/>
<polygon fill="black" stroke="black" points="1974.8,-47.96 1971.3,-37.96 1967.8,-47.96 1974.8,-47.96"/>
<text xml:space="preserve" text-anchor="middle" x="1947.18" y="-547.45" font-family="Arial" font-size="14.00">Recipe Data</text>
</g>
<!-- P17&#45;&gt;D11 -->
<g id="edge31" class="edge">
<title>P17&#45;&gt;D11</title>
<path fill="none" stroke="black" d="M3169,-322.76C3169,-259.35 3169,-79 3169,-79 3169,-79 2006.2,-79 2006.2,-79 2006.2,-79 2006.2,-47.82 2006.2,-47.82"/>
<polygon fill="black" stroke="black" points="2009.7,-47.82 2006.2,-37.82 2002.7,-47.82 2009.7,-47.82"/>
<text xml:space="preserve" text-anchor="middle" x="2646.26" y="-81.45" font-family="Arial" font-size="14.00">Viewers Update</text>
</g>
<!-- P17&#45;&gt;D14 -->
<g id="edge32" class="edge">
<title>P17&#45;&gt;D14</title>
<path fill="none" stroke="black" d="M3273.04,-303.04C3273.04,-213.92 3273.04,-12 3273.04,-12 3273.04,-12 3735.18,-12 3735.18,-12"/>
<polygon fill="black" stroke="black" points="3735.18,-15.5 3745.18,-12 3735.18,-8.5 3735.18,-15.5"/>
<text xml:space="preserve" text-anchor="middle" x="3326.71" y="-14.45" font-family="Arial" font-size="14.00">View Stats</text>
</g>
<!-- P18&#45;&gt;D11 -->
<g id="edge34" class="edge">
<title>P18&#45;&gt;D11</title>
<path fill="none" stroke="black" d="M1632.02,-703.08C1632.02,-530.7 1632.02,-22 1632.02,-22 1632.02,-22 1924.43,-22 1924.43,-22"/>
<polygon fill="black" stroke="black" points="1924.43,-25.5 1934.43,-22 1924.43,-18.5 1924.43,-25.5"/>
<text xml:space="preserve" text-anchor="middle" x="1593.4" y="-218.78" font-family="Arial" font-size="14.00">Recipe Likes</text>
</g>
<!-- P19&#45;&gt;D10 -->
<g id="edge36" class="edge">
<title>P19&#45;&gt;D10</title>
<path fill="none" stroke="black" d="M138.6,-730.8C138.6,-730.8 138.6,-46.92 138.6,-46.92"/>
<polygon fill="black" stroke="black" points="142.1,-46.92 138.6,-36.92 135.1,-46.92 142.1,-46.92"/>
<text xml:space="preserve" text-anchor="middle" x="94.72" y="-391.31" font-family="Arial" font-size="14.00">User Favorites</text>
</g>
<!-- D12 -->
<g id="node27" class="node">
<title>D12</title>
<path fill="none" stroke="black" d="M924.77,-32.73C924.77,-34.53 904.71,-36 880.02,-36 855.33,-36 835.27,-34.53 835.27,-32.73 835.27,-32.73 835.27,-3.27 835.27,-3.27 835.27,-1.47 855.33,0 880.02,0 904.71,0 924.77,-1.47 924.77,-3.27 924.77,-3.27 924.77,-32.73 924.77,-32.73"/>
<path fill="none" stroke="black" d="M924.77,-32.73C924.77,-30.92 904.71,-29.45 880.02,-29.45 855.33,-29.45 835.27,-30.92 835.27,-32.73"/>
<text xml:space="preserve" text-anchor="middle" x="880.02" y="-12.57" font-family="Arial" font-size="14.00">Reviews DB</text>
</g>
<!-- P20&#45;&gt;D12 -->
<g id="edge38" class="edge">
<title>P20&#45;&gt;D12</title>
<path fill="none" stroke="black" d="M565.02,-669.24C565.02,-471.65 565.02,-18 565.02,-18 565.02,-18 823.38,-18 823.38,-18"/>
<polygon fill="black" stroke="black" points="823.38,-21.5 833.38,-18 823.38,-14.5 823.38,-21.5"/>
<text xml:space="preserve" text-anchor="middle" x="519.27" y="-216.89" font-family="Arial" font-size="14.00">Review Record</text>
</g>
<!-- P20b&#45;&gt;D12 -->
<g id="edge40" class="edge">
<title>P20b&#45;&gt;D12</title>
<path fill="none" stroke="black" d="M748.02,-275.59C748.02,-182.22 748.02,-27 748.02,-27 748.02,-27 823.45,-27 823.45,-27"/>
<polygon fill="black" stroke="black" points="823.45,-30.5 833.45,-27 823.45,-23.5 823.45,-30.5"/>
<text xml:space="preserve" text-anchor="middle" x="698.52" y="-116.03" font-family="Arial" font-size="14.00">Remove Review</text>
</g>
<!-- P21a&#45;&gt;C2 -->
<g id="edge42" class="edge">
<title>P21a&#45;&gt;C2</title>
<path fill="none" stroke="black" d="M1286.75,-854.7C1286.75,-854.7 1286.75,-1069.9 1286.75,-1069.9"/>
<polygon fill="black" stroke="black" points="1283.25,-1069.9 1286.75,-1079.9 1290.25,-1069.9 1283.25,-1069.9"/>
<text xml:space="preserve" text-anchor="middle" x="1237.25" y="-949" font-family="Arial" font-size="14.00">Validation Errors</text>
</g>
<!-- P21 -->
<g id="node18" class="node">
<title>P21</title>
<ellipse fill="none" stroke="black" cx="1295.02" cy="-344.48" rx="85.99" ry="85.99"/>
<text xml:space="preserve" text-anchor="middle" x="1295.02" y="-339.06" font-family="Arial" font-size="14.00">Create/Edit Recipe</text>
</g>
<!-- P21a&#45;&gt;P21 -->
<g id="edge43" class="edge">
<title>P21a&#45;&gt;P21</title>
<path fill="none" stroke="black" d="M1295.02,-663.7C1295.02,-663.7 1295.02,-442.4 1295.02,-442.4"/>
<polygon fill="black" stroke="black" points="1298.52,-442.4 1295.02,-432.4 1291.52,-442.4 1298.52,-442.4"/>
<text xml:space="preserve" text-anchor="middle" x="1264.27" y="-555.5" font-family="Arial" font-size="14.00">Valid Data</text>
</g>
<!-- P21&#45;&gt;D11 -->
<g id="edge44" class="edge">
<title>P21&#45;&gt;D11</title>
<path fill="none" stroke="black" d="M1295.02,-258.08C1295.02,-160.16 1295.02,-14 1295.02,-14 1295.02,-14 1924.62,-14 1924.62,-14"/>
<polygon fill="black" stroke="black" points="1924.62,-17.5 1934.62,-14 1924.62,-10.5 1924.62,-17.5"/>
<text xml:space="preserve" text-anchor="middle" x="1449.53" y="-16.45" font-family="Arial" font-size="14.00">Recipe Save</text>
</g>
<!-- P22&#45;&gt;D10 -->
<g id="edge48" class="edge">
<title>P22&#45;&gt;D10</title>
<path fill="none" stroke="black" d="M966.15,-269C790.31,-269 179.96,-269 179.96,-269 179.96,-269 179.96,-47.97 179.96,-47.97"/>
<polygon fill="black" stroke="black" points="183.46,-47.97 179.96,-37.97 176.46,-47.97 183.46,-47.97"/>
<text xml:space="preserve" text-anchor="middle" x="415.29" y="-271.45" font-family="Arial" font-size="14.00">Clean Favorites</text>
</g>
<!-- P22&#45;&gt;D11 -->
<g id="edge46" class="edge">
<title>P22&#45;&gt;D11</title>
<path fill="none" stroke="black" d="M1013.14,-255.81C1013.14,-155.82 1013.14,-7 1013.14,-7 1013.14,-7 1924.45,-7 1924.45,-7"/>
<polygon fill="black" stroke="black" points="1924.45,-10.5 1934.45,-7 1924.45,-3.5 1924.45,-10.5"/>
<text xml:space="preserve" text-anchor="middle" x="1296.02" y="-9.45" font-family="Arial" font-size="14.00">Remove Recipe</text>
</g>
<!-- P22&#45;&gt;D12 -->
<g id="edge47" class="edge">
<title>P22&#45;&gt;D12</title>
<path fill="none" stroke="black" d="M977.35,-263C937.92,-263 879.9,-263 879.9,-263 879.9,-263 879.9,-47.93 879.9,-47.93"/>
<polygon fill="black" stroke="black" points="883.4,-47.93 879.9,-37.93 876.4,-47.93 883.4,-47.93"/>
<text xml:space="preserve" text-anchor="middle" x="827.03" y="-206.64" font-family="Arial" font-size="14.00">Remove Reviews</text>
</g>
<!-- P23&#45;&gt;D10 -->
<g id="edge50" class="edge">
<title>P23&#45;&gt;D10</title>
<path fill="none" stroke="black" d="M285.02,-276.59C285.02,-178.56 285.02,-9 285.02,-9 285.02,-9 218.87,-9 218.87,-9"/>
<polygon fill="black" stroke="black" points="218.87,-5.5 208.87,-9 218.87,-12.5 218.87,-5.5"/>
<text xml:space="preserve" text-anchor="middle" x="248.65" y="-112.17" font-family="Arial" font-size="14.00">Profile Save</text>
</g>
<!-- P24&#45;&gt;D10 -->
<g id="edge52" class="edge">
<title>P24&#45;&gt;D10</title>
<path fill="none" stroke="black" d="M2699.85,-278.72C2699.85,-244.21 2699.85,-209 2699.85,-209 2699.85,-209 188.94,-209 188.94,-209 188.94,-209 188.94,-47.83 188.94,-47.83"/>
<polygon fill="black" stroke="black" points="192.44,-47.83 188.94,-37.83 185.44,-47.83 192.44,-47.83"/>
<text xml:space="preserve" text-anchor="middle" x="1357.42" y="-211.45" font-family="Arial" font-size="14.00">User Updates</text>
</g>
<!-- P24&#45;&gt;D16 -->
<g id="edge53" class="edge">
<title>P24&#45;&gt;D16</title>
<path fill="none" stroke="black" d="M2746.2,-278.79C2746.2,-181.9 2746.2,-12 2746.2,-12 2746.2,-12 3160.66,-12 3160.66,-12"/>
<polygon fill="black" stroke="black" points="3160.66,-15.5 3170.66,-12 3160.66,-8.5 3160.66,-15.5"/>
<text xml:space="preserve" text-anchor="middle" x="2777.66" y="-14.45" font-family="Arial" font-size="14.00">Admin Activity</text>
</g>
<!-- P25&#45;&gt;D11 -->
<g id="edge55" class="edge">
<title>P25&#45;&gt;D11</title>
<path fill="none" stroke="black" d="M2979.02,-265.73C2979.02,-201.73 2979.02,-122 2979.02,-122 2979.02,-122 1988.75,-122 1988.75,-122 1988.75,-122 1988.75,-47.63 1988.75,-47.63"/>
<polygon fill="black" stroke="black" points="1992.25,-47.63 1988.75,-37.63 1985.25,-47.63 1992.25,-47.63"/>
<text xml:space="preserve" text-anchor="middle" x="2470.56" y="-124.45" font-family="Arial" font-size="14.00">Recipe Updates</text>
</g>
<!-- P25&#45;&gt;D16 -->
<g id="edge56" class="edge">
<title>P25&#45;&gt;D16</title>
<path fill="none" stroke="black" d="M3021.53,-278C3085.94,-278 3200.86,-278 3200.86,-278 3200.86,-278 3200.86,-47.8 3200.86,-47.8"/>
<polygon fill="black" stroke="black" points="3204.36,-47.8 3200.86,-37.8 3197.36,-47.8 3204.36,-47.8"/>
<text xml:space="preserve" text-anchor="middle" x="3158.48" y="-255.01" font-family="Arial" font-size="14.00">Admin Activity</text>
</g>
<!-- P26&#45;&gt;A2 -->
<g id="edge59" class="edge">
<title>P26&#45;&gt;A2</title>
<path fill="none" stroke="black" d="M3492.93,-854C3417.56,-854 3235.52,-854 3235.52,-854 3235.52,-854 3235.52,-1069.87 3235.52,-1069.87"/>
<polygon fill="black" stroke="black" points="3232.02,-1069.87 3235.52,-1079.87 3239.02,-1069.87 3232.02,-1069.87"/>
<text xml:space="preserve" text-anchor="middle" x="3206.04" y="-856.45" font-family="Arial" font-size="14.00">Dashboard Stats</text>
</g>
<!-- P26&#45;&gt;D14 -->
<g id="edge58" class="edge">
<title>P26&#45;&gt;D14</title>
<path fill="none" stroke="black" d="M3525.02,-659.47C3525.02,-458.39 3525.02,-24 3525.02,-24 3525.02,-24 3734.86,-24 3734.86,-24"/>
<polygon fill="black" stroke="black" points="3734.86,-27.5 3744.86,-24 3734.86,-20.5 3734.86,-27.5"/>
<text xml:space="preserve" text-anchor="middle" x="3502.9" y="-239.27" font-family="Arial" font-size="14.00">Metrics</text>
</g>
<!-- P27&#45;&gt;A2 -->
<g id="edge62" class="edge">
<title>P27&#45;&gt;A2</title>
<path fill="none" stroke="black" d="M3224.52,-847.53C3224.52,-847.53 3224.52,-1070.03 3224.52,-1070.03"/>
<polygon fill="black" stroke="black" points="3221.02,-1070.03 3224.52,-1080.03 3228.02,-1070.03 3221.02,-1070.03"/>
<text xml:space="preserve" text-anchor="middle" x="3185.9" y="-945.48" font-family="Arial" font-size="14.00">Activity Feed</text>
</g>
<!-- P27&#45;&gt;D16 -->
<g id="edge61" class="edge">
<title>P27&#45;&gt;D16</title>
<path fill="none" stroke="black" d="M3153.76,-714.79C3153.76,-555.46 3153.76,-24 3153.76,-24 3153.76,-24 3160.62,-24 3160.62,-24"/>
<polygon fill="black" stroke="black" points="3160.62,-27.5 3170.62,-24 3160.62,-20.5 3160.62,-27.5"/>
<text xml:space="preserve" text-anchor="middle" x="3115.13" y="-368.41" font-family="Arial" font-size="14.00">Activity Feed</text>
</g>
<!-- D10&#45;&gt;P10 -->
<g id="edge3" class="edge">
<title>D10&#45;&gt;P10</title>
<path fill="none" stroke="black" d="M153.02,-36.22C153.02,-246.31 153.02,-2202 153.02,-2202 153.02,-2202 1534.87,-2202 1534.87,-2202"/>
<polygon fill="black" stroke="black" points="1534.87,-2205.5 1544.87,-2202 1534.87,-2198.5 1534.87,-2205.5"/>
<text xml:space="preserve" text-anchor="middle" x="115.15" y="-1812.49" font-family="Arial" font-size="14.00">User Record</text>
</g>
<!-- D10&#45;&gt;P12 -->
<g id="edge11" class="edge">
<title>D10&#45;&gt;P12</title>
<path fill="none" stroke="black" d="M170.98,-36.21C170.98,-222.24 170.98,-1771 170.98,-1771 170.98,-1771 1526.61,-1771 1526.61,-1771"/>
<polygon fill="black" stroke="black" points="1526.61,-1774.5 1536.61,-1771 1526.61,-1767.5 1526.61,-1774.5"/>
<text xml:space="preserve" text-anchor="middle" x="151.86" y="-1583.87" font-family="Arial" font-size="14.00">Status</text>
</g>
<!-- D12&#45;&gt;P14 -->
<g id="edge24" class="edge">
<title>D12&#45;&gt;P14</title>
<path fill="none" stroke="black" d="M925.05,-29C1122.87,-29 1904.98,-29 1904.98,-29 1904.98,-29 1904.98,-671.8 1904.98,-671.8"/>
<polygon fill="black" stroke="black" points="1901.48,-671.8 1904.98,-681.8 1908.48,-671.8 1901.48,-671.8"/>
<text xml:space="preserve" text-anchor="middle" x="1692.92" y="-31.45" font-family="Arial" font-size="14.00">Rating Lookup</text>
</g>
</g>
</svg>
