<?xml version="1.0" encoding="UTF-8" standalone="no"?>
<!DOCTYPE svg PUBLIC "-//W3C//DTD SVG 1.1//EN"
 "http://www.w3.org/Graphics/SVG/1.1/DTD/svg11.dtd">
<!-- Generated by graphviz version 14.1.1 (20251213.1925)
 -->
<!-- Title: DataFlow_Context Pages: 1 -->
<svg width="2777pt" height="998pt"
 viewBox="0.00 0.00 2777.00 998.00" xmlns="http://www.w3.org/2000/svg" xmlns:xlink="http://www.w3.org/1999/xlink">
<g id="graph0" class="graph" transform="scale(1 1) rotate(0) translate(4 994.41)">
<title>DataFlow_Context</title>
<polygon fill="white" stroke="none" points="-4,4 -4,-994.41 2772.91,-994.41 2772.91,4 -4,4"/>
<text xml:space="preserve" text-anchor="middle" x="1384.46" y="-973.11" font-family="Times New Roman,serif" font-size="14.00">Context DFD (Level 0)</text>
<!-- User -->
<g id="node1" class="node">
<title>User</title>
<polygon fill="none" stroke="black" points="789.91,-965.91 735.91,-965.91 735.91,-929.91 789.91,-929.91 789.91,-965.91"/>
<text xml:space="preserve" text-anchor="middle" x="762.91" y="-942.49" font-family="Arial" font-size="14.00">User</text>
</g>
<!-- System -->
<g id="node5" class="node">
<title>System</title>
<ellipse fill="none" stroke="black" cx="762.91" cy="-608.96" rx="104.96" ry="104.96"/>
<text xml:space="preserve" text-anchor="middle" x="762.91" y="-603.53" font-family="Arial" font-size="14.00">Recipe Sharing System</text>
</g>
<!-- User&#45;&gt;System -->
<g id="edge1" class="edge">
<title>User&#45;&gt;System</title>
<path fill="none" stroke="black" d="M771.91,-929.69C771.91,-929.69 771.91,-725.39 771.91,-725.39"/>
<polygon fill="black" stroke="black" points="775.41,-725.39 771.91,-715.39 768.41,-725.39 775.41,-725.39"/>
<text xml:space="preserve" text-anchor="middle" x="695.04" y="-829.99" font-family="Arial" font-size="14.00">Credentials / Signup Data</text>
</g>
<!-- Admin -->
<g id="node2" class="node">
<title>Admin</title>
<polygon fill="none" stroke="black" points="59.41,-288 4.41,-288 4.41,-252 59.41,-252 59.41,-288"/>
<text xml:space="preserve" text-anchor="middle" x="31.91" y="-264.57" font-family="Arial" font-size="14.00">Admin</text>
</g>
<!-- Admin&#45;&gt;System -->
<g id="edge12" class="edge">
<title>Admin&#45;&gt;System</title>
<path fill="none" stroke="black" d="M45.66,-288.29C45.66,-363.38 45.66,-644 45.66,-644 45.66,-644 652.05,-644 652.05,-644"/>
<polygon fill="black" stroke="black" points="652.05,-647.5 662.05,-644 652.05,-640.5 652.05,-647.5"/>
<text xml:space="preserve" text-anchor="middle" x="85.5" y="-646.45" font-family="Arial" font-size="14.00">Moderation / Stats Requests</text>
</g>
<!-- Contributor -->
<g id="node3" class="node">
<title>Contributor</title>
<polygon fill="none" stroke="black" points="250.29,-288 167.54,-288 167.54,-252 250.29,-252 250.29,-288"/>
<text xml:space="preserve" text-anchor="middle" x="208.91" y="-264.57" font-family="Arial" font-size="14.00">Contributor</text>
</g>
<!-- Contributor&#45;&gt;System -->
<g id="edge6" class="edge">
<title>Contributor&#45;&gt;System</title>
<path fill="none" stroke="black" d="M222.7,-288.44C222.7,-350.95 222.7,-551 222.7,-551 222.7,-551 663.4,-551 663.4,-551"/>
<polygon fill="black" stroke="black" points="663.4,-554.5 673.4,-551 663.4,-547.5 663.4,-554.5"/>
<text xml:space="preserve" text-anchor="middle" x="226.65" y="-553.45" font-family="Arial" font-size="14.00">Browse/Search / View Detail</text>
</g>
<!-- Contributor&#45;&gt;System -->
<g id="edge10" class="edge">
<title>Contributor&#45;&gt;System</title>
<path fill="none" stroke="black" d="M236.5,-288.48C236.5,-347.41 236.5,-527 236.5,-527 236.5,-527 685.26,-527 685.26,-527"/>
<polygon fill="black" stroke="black" points="685.26,-530.5 695.26,-527 685.26,-523.5 685.26,-530.5"/>
<text xml:space="preserve" text-anchor="middle" x="265.12" y="-529.45" font-family="Arial" font-size="14.00">Likes, Favorites, Reviews</text>
</g>
<!-- Guest -->
<g id="node4" class="node">
<title>Guest</title>
<polygon fill="none" stroke="black" points="545.41,-288 358.41,-288 358.41,-252 545.41,-252 545.41,-288"/>
<text xml:space="preserve" text-anchor="middle" x="451.91" y="-264.57" font-family="Arial" font-size="14.00">Guest (Pending/Suspended)</text>
</g>
<!-- Guest&#45;&gt;System -->
<g id="edge8" class="edge">
<title>Guest&#45;&gt;System</title>
<path fill="none" stroke="black" d="M545.77,-270C613.1,-270 692,-270 692,-270 692,-270 692,-519.68 692,-519.68"/>
<polygon fill="black" stroke="black" points="688.5,-519.68 692,-529.68 695.5,-519.68 688.5,-519.68"/>
<text xml:space="preserve" text-anchor="middle" x="606.87" y="-324.17" font-family="Arial" font-size="14.00">Browse/Search / View Detail</text>
</g>
<!-- System&#45;&gt;User -->
<g id="edge2" class="edge">
<title>System&#45;&gt;User</title>
<path fill="none" stroke="black" d="M753.91,-713.88C753.91,-713.88 753.91,-917.96 753.91,-917.96"/>
<polygon fill="black" stroke="black" points="750.41,-917.96 753.91,-927.96 757.41,-917.96 750.41,-917.96"/>
<text xml:space="preserve" text-anchor="middle" x="689.41" y="-802.62" font-family="Arial" font-size="14.00">Auth Result / Session</text>
</g>
<!-- System&#45;&gt;Admin -->
<g id="edge3" class="edge">
<title>System&#45;&gt;Admin</title>
<path fill="none" stroke="black" d="M696.82,-691C514.55,-691 18.16,-691 18.16,-691 18.16,-691 18.16,-299.87 18.16,-299.87"/>
<polygon fill="black" stroke="black" points="21.66,-299.87 18.16,-289.87 14.66,-299.87 21.66,-299.87"/>
<text xml:space="preserve" text-anchor="middle" x="97.43" y="-693.45" font-family="Arial" font-size="14.00">Auth Result / Session</text>
</g>
<!-- System&#45;&gt;Admin -->
<g id="edge13" class="edge">
<title>System&#45;&gt;Admin</title>
<path fill="none" stroke="black" d="M675.1,-667C480.87,-667 31.91,-667 31.91,-667 31.91,-667 31.91,-299.87 31.91,-299.87"/>
<polygon fill="black" stroke="black" points="35.41,-299.87 31.91,-289.87 28.41,-299.87 35.41,-299.87"/>
<text xml:space="preserve" text-anchor="middle" x="115.19" y="-669.45" font-family="Arial" font-size="14.00">Results / Analytics</text>
</g>
<!-- System&#45;&gt;Contributor -->
<g id="edge4" class="edge">
<title>System&#45;&gt;Contributor</title>
<path fill="none" stroke="black" d="M658.27,-621C490.82,-621 181.33,-621 181.33,-621 181.33,-621 181.33,-299.89 181.33,-299.89"/>
<polygon fill="black" stroke="black" points="184.83,-299.89 181.33,-289.89 177.83,-299.89 184.83,-299.89"/>
<text xml:space="preserve" text-anchor="middle" x="194.74" y="-623.45" font-family="Arial" font-size="14.00">Auth Result / Session</text>
</g>
<!-- System&#45;&gt;Contributor -->
<g id="edge7" class="edge">
<title>System&#45;&gt;Contributor</title>
<path fill="none" stroke="black" d="M658.44,-597C494.45,-597 195.12,-597 195.12,-597 195.12,-597 195.12,-299.56 195.12,-299.56"/>
<polygon fill="black" stroke="black" points="198.62,-299.56 195.12,-289.56 191.62,-299.56 198.62,-299.56"/>
<text xml:space="preserve" text-anchor="middle" x="209.44" y="-599.45" font-family="Arial" font-size="14.00">Recipe Listings / Detail</text>
</g>
<!-- System&#45;&gt;Contributor -->
<g id="edge11" class="edge">
<title>System&#45;&gt;Contributor</title>
<path fill="none" stroke="black" d="M663.55,-574C504.12,-574 208.91,-574 208.91,-574 208.91,-574 208.91,-299.62 208.91,-299.62"/>
<polygon fill="black" stroke="black" points="212.41,-299.62 208.91,-289.62 205.41,-299.62 212.41,-299.62"/>
<text xml:space="preserve" text-anchor="middle" x="226.29" y="-576.45" font-family="Arial" font-size="14.00">Updates / Confirmations</text>
</g>
<!-- System&#45;&gt;Guest -->
<g id="edge5" class="edge">
<title>System&#45;&gt;Guest</title>
<path fill="none" stroke="black" d="M709.02,-518.44C709.02,-415.34 709.02,-261 709.02,-261 709.02,-261 557.34,-261 557.34,-261"/>
<polygon fill="black" stroke="black" points="557.34,-257.5 547.34,-261 557.34,-264.5 557.34,-257.5"/>
<text xml:space="preserve" text-anchor="middle" x="644.52" y="-300.58" font-family="Arial" font-size="14.00">Auth Result / Session</text>
</g>
<!-- System&#45;&gt;Guest -->
<g id="edge9" class="edge">
<title>System&#45;&gt;Guest</title>
<path fill="none" stroke="black" d="M674.98,-551.1C674.98,-456.47 674.98,-279 674.98,-279 674.98,-279 557.38,-279 557.38,-279"/>
<polygon fill="black" stroke="black" points="557.38,-275.5 547.38,-279 557.38,-282.5 557.38,-275.5"/>
<text xml:space="preserve" text-anchor="middle" x="606.35" y="-358.7" font-family="Arial" font-size="14.00">Recipe Listings / Detail</text>
</g>
<!-- UsersDB -->
<g id="node6" class="node">
<title>UsersDB</title>
<path fill="none" stroke="black" d="M799.79,-32.73C799.79,-34.53 783.26,-36 762.91,-36 742.57,-36 726.04,-34.53 726.04,-32.73 726.04,-32.73 726.04,-3.27 726.04,-3.27 726.04,-1.47 742.57,0 762.91,0 783.26,0 799.79,-1.47 799.79,-3.27 799.79,-3.27 799.79,-32.73 799.79,-32.73"/>
<path fill="none" stroke="black" d="M799.79,-32.73C799.79,-30.92 783.26,-29.45 762.91,-29.45 742.57,-29.45 726.04,-30.92 726.04,-32.73"/>
<text xml:space="preserve" text-anchor="middle" x="762.91" y="-12.57" font-family="Arial" font-size="14.00">Users DB</text>
</g>
<!-- System&#45;&gt;UsersDB -->
<g id="edge14" class="edge">
<title>System&#45;&gt;UsersDB</title>
<path fill="none" stroke="black" d="M750.62,-504.33C750.62,-504.33 750.62,-47.95 750.62,-47.95"/>
<polygon fill="black" stroke="black" points="754.12,-47.95 750.62,-37.95 747.12,-47.95 754.12,-47.95"/>
</g>
<!-- RecipesDB -->
<g id="node7" class="node">
<title>RecipesDB</title>
<path fill="none" stroke="black" d="M1132.54,-32.73C1132.54,-34.53 1112.98,-36 1088.91,-36 1064.84,-36 1045.29,-34.53 1045.29,-32.73 1045.29,-32.73 1045.29,-3.27 1045.29,-3.27 1045.29,-1.47 1064.84,0 1088.91,0 1112.98,0 1132.54,-1.47 1132.54,-3.27 1132.54,-3.27 1132.54,-32.73 1132.54,-32.73"/>
<path fill="none" stroke="black" d="M1132.54,-32.73C1132.54,-30.92 1112.98,-29.45 1088.91,-29.45 1064.84,-29.45 1045.29,-30.92 1045.29,-32.73"/>
<text xml:space="preserve" text-anchor="middle" x="1088.91" y="-12.57" font-family="Arial" font-size="14.00">Recipes DB</text>
</g>
<!-- System&#45;&gt;RecipesDB -->
<g id="edge16" class="edge">
<title>System&#45;&gt;RecipesDB</title>
<path fill="none" stroke="black" d="M845.17,-542.99C845.17,-390.01 845.17,-24 845.17,-24 845.17,-24 1033.54,-24 1033.54,-24"/>
<polygon fill="black" stroke="black" points="1033.54,-27.5 1043.54,-24 1033.54,-20.5 1033.54,-27.5"/>
</g>
<!-- ReviewsDB -->
<g id="node8" class="node">
<title>ReviewsDB</title>
<path fill="none" stroke="black" d="M1459.66,-32.73C1459.66,-34.53 1439.6,-36 1414.91,-36 1390.22,-36 1370.16,-34.53 1370.16,-32.73 1370.16,-32.73 1370.16,-3.27 1370.16,-3.27 1370.16,-1.47 1390.22,0 1414.91,0 1439.6,0 1459.66,-1.47 1459.66,-3.27 1459.66,-3.27 1459.66,-32.73 1459.66,-32.73"/>
<path fill="none" stroke="black" d="M1459.66,-32.73C1459.66,-30.92 1439.6,-29.45 1414.91,-29.45 1390.22,-29.45 1370.16,-30.92 1370.16,-32.73"/>
<text xml:space="preserve" text-anchor="middle" x="1414.91" y="-12.57" font-family="Arial" font-size="14.00">Reviews DB</text>
</g>
<!-- System&#45;&gt;ReviewsDB -->
<g id="edge18" class="edge">
<title>System&#45;&gt;ReviewsDB</title>
<path fill="none" stroke="black" d="M844.36,-542C1022.27,-542 1429.83,-542 1429.83,-542 1429.83,-542 1429.83,-47.86 1429.83,-47.86"/>
<polygon fill="black" stroke="black" points="1433.33,-47.86 1429.83,-37.86 1426.33,-47.86 1433.33,-47.86"/>
</g>
<!-- SearchHistory -->
<g id="node9" class="node">
<title>SearchHistory</title>
<path fill="none" stroke="black" d="M1793.16,-32.73C1793.16,-34.53 1769.74,-36 1740.91,-36 1712.08,-36 1688.66,-34.53 1688.66,-32.73 1688.66,-32.73 1688.66,-3.27 1688.66,-3.27 1688.66,-1.47 1712.08,0 1740.91,0 1769.74,0 1793.16,-1.47 1793.16,-3.27 1793.16,-3.27 1793.16,-32.73 1793.16,-32.73"/>
<path fill="none" stroke="black" d="M1793.16,-32.73C1793.16,-30.92 1769.74,-29.45 1740.91,-29.45 1712.08,-29.45 1688.66,-30.92 1688.66,-32.73"/>
<text xml:space="preserve" text-anchor="middle" x="1740.91" y="-12.57" font-family="Arial" font-size="14.00">Search History</text>
</g>
<!-- System&#45;&gt;SearchHistory -->
<g id="edge20" class="edge">
<title>System&#45;&gt;SearchHistory</title>
<path fill="none" stroke="black" d="M864.3,-580C1117.68,-580 1758.33,-580 1758.33,-580 1758.33,-580 1758.33,-47.89 1758.33,-47.89"/>
<polygon fill="black" stroke="black" points="1761.83,-47.89 1758.33,-37.89 1754.83,-47.89 1761.83,-47.89"/>
</g>
<!-- DailyStats -->
<g id="node10" class="node">
<title>DailyStats</title>
<path fill="none" stroke="black" d="M2107.16,-32.73C2107.16,-34.53 2089.12,-36 2066.91,-36 2044.7,-36 2026.66,-34.53 2026.66,-32.73 2026.66,-32.73 2026.66,-3.27 2026.66,-3.27 2026.66,-1.47 2044.7,0 2066.91,0 2089.12,0 2107.16,-1.47 2107.16,-3.27 2107.16,-3.27 2107.16,-32.73 2107.16,-32.73"/>
<path fill="none" stroke="black" d="M2107.16,-32.73C2107.16,-30.92 2089.12,-29.45 2066.91,-29.45 2044.7,-29.45 2026.66,-30.92 2026.66,-32.73"/>
<text xml:space="preserve" text-anchor="middle" x="2066.91" y="-12.57" font-family="Arial" font-size="14.00">Daily Stats</text>
</g>
<!-- System&#45;&gt;DailyStats -->
<g id="edge22" class="edge">
<title>System&#45;&gt;DailyStats</title>
<path fill="none" stroke="black" d="M867.94,-618C1180.05,-618 2080.33,-618 2080.33,-618 2080.33,-618 2080.33,-47.8 2080.33,-47.8"/>
<polygon fill="black" stroke="black" points="2083.83,-47.8 2080.33,-37.8 2076.83,-47.8 2083.83,-47.8"/>
</g>
<!-- ActivityLog -->
<g id="node11" class="node">
<title>ActivityLog</title>
<path fill="none" stroke="black" d="M2435.41,-32.73C2435.41,-34.53 2416.36,-36 2392.91,-36 2369.46,-36 2350.41,-34.53 2350.41,-32.73 2350.41,-32.73 2350.41,-3.27 2350.41,-3.27 2350.41,-1.47 2369.46,0 2392.91,0 2416.36,0 2435.41,-1.47 2435.41,-3.27 2435.41,-3.27 2435.41,-32.73 2435.41,-32.73"/>
<path fill="none" stroke="black" d="M2435.41,-32.73C2435.41,-30.92 2416.36,-29.45 2392.91,-29.45 2369.46,-29.45 2350.41,-30.92 2350.41,-32.73"/>
<text xml:space="preserve" text-anchor="middle" x="2392.91" y="-12.57" font-family="Arial" font-size="14.00">Activity Log</text>
</g>
<!-- System&#45;&gt;ActivityLog -->
<g id="edge24" class="edge">
<title>System&#45;&gt;ActivityLog</title>
<path fill="none" stroke="black" d="M856.62,-657C1205.21,-657 2407.08,-657 2407.08,-657 2407.08,-657 2407.08,-47.95 2407.08,-47.95"/>
<polygon fill="black" stroke="black" points="2410.58,-47.95 2407.08,-37.95 2403.58,-47.95 2410.58,-47.95"/>
</g>
<!-- SessionStore -->
<g id="node12" class="node">
<title>SessionStore</title>
<path fill="none" stroke="black" d="M2768.91,-32.73C2768.91,-34.53 2746.5,-36 2718.91,-36 2691.32,-36 2668.91,-34.53 2668.91,-32.73 2668.91,-32.73 2668.91,-3.27 2668.91,-3.27 2668.91,-1.47 2691.32,0 2718.91,0 2746.5,0 2768.91,-1.47 2768.91,-3.27 2768.91,-3.27 2768.91,-32.73 2768.91,-32.73"/>
<path fill="none" stroke="black" d="M2768.91,-32.73C2768.91,-30.92 2746.5,-29.45 2718.91,-29.45 2691.32,-29.45 2668.91,-30.92 2668.91,-32.73"/>
<text xml:space="preserve" text-anchor="middle" x="2718.91" y="-12.57" font-family="Arial" font-size="14.00">Session Store</text>
</g>
<!-- System&#45;&gt;SessionStore -->
<g id="edge26" class="edge">
<title>System&#45;&gt;SessionStore</title>
<path fill="none" stroke="black" d="M844.08,-676C1211.64,-676 2702.25,-676 2702.25,-676 2702.25,-676 2702.25,-47.8 2702.25,-47.8"/>
<polygon fill="black" stroke="black" points="2705.75,-47.8 2702.25,-37.8 2698.75,-47.8 2705.75,-47.8"/>
</g>
<!-- UsersDB&#45;&gt;System -->
<g id="edge15" class="edge">
<title>UsersDB&#45;&gt;System</title>
<path fill="none" stroke="black" d="M775.2,-36.33C775.2,-36.33 775.2,-492.73 775.2,-492.73"/>
<polygon fill="black" stroke="black" points="771.7,-492.73 775.2,-502.73 778.7,-492.73 771.7,-492.73"/>
</g>
<!-- RecipesDB&#45;&gt;System -->
<g id="edge17" class="edge">
<title>RecipesDB&#45;&gt;System</title>
<path fill="none" stroke="black" d="M1044.92,-12C969.24,-12 822.48,-12 822.48,-12 822.48,-12 822.48,-510.64 822.48,-510.64"/>
<polygon fill="black" stroke="black" points="818.98,-510.64 822.48,-520.64 825.98,-510.64 818.98,-510.64"/>
</g>
<!-- ReviewsDB&#45;&gt;System -->
<g id="edge19" class="edge">
<title>ReviewsDB&#45;&gt;System</title>
<path fill="none" stroke="black" d="M1400,-36.27C1400,-126.81 1400,-523 1400,-523 1400,-523 835.51,-523 835.51,-523"/>
<polygon fill="black" stroke="black" points="835.51,-519.5 825.51,-523 835.51,-526.5 835.51,-519.5"/>
</g>
<!-- SearchHistory&#45;&gt;System -->
<g id="edge21" class="edge">
<title>SearchHistory&#45;&gt;System</title>
<path fill="none" stroke="black" d="M1723.5,-36.38C1723.5,-131.23 1723.5,-561 1723.5,-561 1723.5,-561 868.28,-561 868.28,-561"/>
<polygon fill="black" stroke="black" points="868.28,-557.5 858.28,-561 868.28,-564.5 868.28,-557.5"/>
</g>
<!-- DailyStats&#45;&gt;System -->
<g id="edge23" class="edge">
<title>DailyStats&#45;&gt;System</title>
<path fill="none" stroke="black" d="M2053.5,-36.35C2053.5,-135.11 2053.5,-599 2053.5,-599 2053.5,-599 879.22,-599 879.22,-599"/>
<polygon fill="black" stroke="black" points="879.22,-595.5 869.22,-599 879.22,-602.5 879.22,-595.5"/>
</g>
<!-- ActivityLog&#45;&gt;System -->
<g id="edge25" class="edge">
<title>ActivityLog&#45;&gt;System</title>
<path fill="none" stroke="black" d="M2378.75,-36.22C2378.75,-138.63 2378.75,-638 2378.75,-638 2378.75,-638 875.5,-638 875.5,-638"/>
<polygon fill="black" stroke="black" points="875.5,-634.5 865.5,-638 875.5,-641.5 875.5,-634.5"/>
</g>
<!-- SessionStore&#45;&gt;System -->
<g id="edge27" class="edge">
<title>SessionStore&#45;&gt;System</title>
<path fill="none" stroke="black" d="M2735.58,-36.46C2735.58,-144.96 2735.58,-695 2735.58,-695 2735.58,-695 835.36,-695 835.36,-695"/>
<polygon fill="black" stroke="black" points="835.36,-691.5 825.36,-695 835.35,-698.5 835.36,-691.5"/>
</g>
</g>
</svg>
