<?xml version="1.0" encoding="UTF-8" standalone="no"?>
<!DOCTYPE svg PUBLIC "-//W3C//DTD SVG 1.1//EN"
 "http://www.w3.org/Graphics/SVG/1.1/DTD/svg11.dtd">
<!-- Generated by graphviz version 14.1.1 (20251213.1925)
 -->
<!-- Title: DataFlow_Level1 Pages: 1 -->
<svg width="4174pt" height="1926pt"
 viewBox="0.00 0.00 4174.00 1926.00" xmlns="http://www.w3.org/2000/svg" xmlns:xlink="http://www.w3.org/1999/xlink">
<g id="graph0" class="graph" transform="scale(1 1) rotate(0) translate(4 1922.08)">
<title>DataFlow_Level1</title>
<polygon fill="white" stroke="none" points="-4,4 -4,-1922.08 4169.99,-1922.08 4169.99,4 -4,4"/>
<text xml:space="preserve" text-anchor="middle" x="2083" y="-1900.78" font-family="Times New Roman,serif" font-size="14.00">Level 1 DFD</text>
<!-- U1 -->
<g id="node1" class="node">
<title>U1</title>
<polygon fill="none" stroke="black" points="1290,-1893.58 1236,-1893.58 1236,-1857.58 1290,-1857.58 1290,-1893.58"/>
<text xml:space="preserve" text-anchor="middle" x="1263" y="-1870.15" font-family="Arial" font-size="14.00">User</text>
</g>
<!-- P1 -->
<g id="node5" class="node">
<title>P1</title>
<ellipse fill="none" stroke="black" cx="1263" cy="-1536.62" rx="104.96" ry="104.96"/>
<text xml:space="preserve" text-anchor="middle" x="1263" y="-1531.2" font-family="Arial" font-size="14.00">Authenticate &amp; Register</text>
</g>
<!-- U1&#45;&gt;P1 -->
<g id="edge1" class="edge">
<title>U1&#45;&gt;P1</title>
<path fill="none" stroke="black" d="M1254,-1857.36C1254,-1857.36 1254,-1653.06 1254,-1653.06"/>
<polygon fill="black" stroke="black" points="1257.5,-1653.06 1254,-1643.06 1250.5,-1653.06 1257.5,-1653.06"/>
<text xml:space="preserve" text-anchor="middle" x="1198.5" y="-1757.66" font-family="Arial" font-size="14.00">Login/Signup Data</text>
</g>
<!-- A1 -->
<g id="node2" class="node">
<title>A1</title>
<polygon fill="none" stroke="black" points="1411.5,-743.85 1356.5,-743.85 1356.5,-707.85 1411.5,-707.85 1411.5,-743.85"/>
<text xml:space="preserve" text-anchor="middle" x="1384" y="-720.43" font-family="Arial" font-size="14.00">Admin</text>
</g>
<!-- P9 -->
<g id="node14" class="node">
<title>P9</title>
<ellipse fill="none" stroke="black" cx="2650" cy="-371.93" rx="105.95" ry="105.95"/>
<text xml:space="preserve" text-anchor="middle" x="2650" y="-366.5" font-family="Arial" font-size="14.00">Admin User Moderation</text>
</g>
<!-- A1&#45;&gt;P9 -->
<g id="edge48" class="edge">
<title>A1&#45;&gt;P9</title>
<path fill="none" stroke="black" d="M1374.83,-707.55C1374.83,-672.65 1374.83,-600 1374.83,-600 1374.83,-600 2650,-600 2650,-600 2650,-600 2650,-489.8 2650,-489.8"/>
<polygon fill="black" stroke="black" points="2653.5,-489.8 2650,-479.8 2646.5,-489.8 2653.5,-489.8"/>
<text xml:space="preserve" text-anchor="middle" x="1975.87" y="-602.45" font-family="Arial" font-size="14.00">User Actions</text>
</g>
<!-- P10 -->
<g id="node15" class="node">
<title>P10</title>
<ellipse fill="none" stroke="black" cx="1384" cy="-371.93" rx="114.94" ry="114.94"/>
<text xml:space="preserve" text-anchor="middle" x="1384" y="-366.5" font-family="Arial" font-size="14.00">Admin Recipe Moderation</text>
</g>
<!-- A1&#45;&gt;P10 -->
<g id="edge52" class="edge">
<title>A1&#45;&gt;P10</title>
<path fill="none" stroke="black" d="M1393.17,-707.81C1393.17,-707.81 1393.17,-498.45 1393.17,-498.45"/>
<polygon fill="black" stroke="black" points="1396.67,-498.45 1393.17,-488.45 1389.67,-498.45 1396.67,-498.45"/>
<text xml:space="preserve" text-anchor="middle" x="1348.54" y="-605.58" font-family="Arial" font-size="14.00">Recipe Actions</text>
</g>
<!-- P11 -->
<g id="node16" class="node">
<title>P11</title>
<ellipse fill="none" stroke="black" cx="823" cy="-371.93" rx="119.93" ry="119.93"/>
<text xml:space="preserve" text-anchor="middle" x="823" y="-366.5" font-family="Arial" font-size="14.00">Analytics &amp; Activity Logging</text>
</g>
<!-- A1&#45;&gt;P11 -->
<g id="edge56" class="edge">
<title>A1&#45;&gt;P11</title>
<path fill="none" stroke="black" d="M1356.22,-732C1238.03,-732 783.02,-732 783.02,-732 783.02,-732 783.02,-496.87 783.02,-496.87"/>
<polygon fill="black" stroke="black" points="786.53,-496.87 783.02,-486.87 779.53,-496.87 786.53,-496.87"/>
<text xml:space="preserve" text-anchor="middle" x="909.68" y="-734.45" font-family="Arial" font-size="14.00">Stats Request</text>
</g>
<!-- C1 -->
<g id="node3" class="node">
<title>C1</title>
<polygon fill="none" stroke="black" points="2371.38,-743.85 2288.62,-743.85 2288.62,-707.85 2371.38,-707.85 2371.38,-743.85"/>
<text xml:space="preserve" text-anchor="middle" x="2330" y="-720.43" font-family="Arial" font-size="14.00">Contributor</text>
</g>
<!-- P3 -->
<g id="node7" class="node">
<title>P3</title>
<ellipse fill="none" stroke="black" cx="2330" cy="-371.93" rx="106.45" ry="106.45"/>
<text xml:space="preserve" text-anchor="middle" x="2330" y="-366.5" font-family="Arial" font-size="14.00">Browse/Search Recipes</text>
</g>
<!-- C1&#45;&gt;P3 -->
<g id="edge15" class="edge">
<title>C1&#45;&gt;P3</title>
<path fill="none" stroke="black" d="M2330,-707.81C2330,-707.81 2330,-490.08 2330,-490.08"/>
<polygon fill="black" stroke="black" points="2333.5,-490.08 2330,-480.08 2326.5,-490.08 2333.5,-490.08"/>
<text xml:space="preserve" text-anchor="middle" x="2288" y="-601.4" font-family="Arial" font-size="14.00">Search / Filter</text>
</g>
<!-- P4 -->
<g id="node8" class="node">
<title>P4</title>
<ellipse fill="none" stroke="black" cx="1693" cy="-371.93" rx="85.99" ry="85.99"/>
<text xml:space="preserve" text-anchor="middle" x="1693" y="-366.5" font-family="Arial" font-size="14.00">View Recipe Detail</text>
</g>
<!-- C1&#45;&gt;P4 -->
<g id="edge24" class="edge">
<title>C1&#45;&gt;P4</title>
<path fill="none" stroke="black" d="M2288.52,-729C2172.52,-729 1853.21,-729 1853.21,-729 1853.21,-729 1853.21,-343 1853.21,-343 1853.21,-343 1786.03,-343 1786.03,-343"/>
<polygon fill="black" stroke="black" points="1786.03,-339.5 1776.03,-343 1786.03,-346.5 1786.03,-339.5"/>
<text xml:space="preserve" text-anchor="middle" x="1823.58" y="-722.51" font-family="Arial" font-size="14.00">Recipe ID</text>
</g>
<!-- P5 -->
<g id="node9" class="node">
<title>P5</title>
<ellipse fill="none" stroke="black" cx="2943" cy="-371.93" rx="79.51" ry="79.51"/>
<text xml:space="preserve" text-anchor="middle" x="2943" y="-366.5" font-family="Arial" font-size="14.00">Likes &amp; Favorites</text>
</g>
<!-- C1&#45;&gt;P5 -->
<g id="edge31" class="edge">
<title>C1&#45;&gt;P5</title>
<path fill="none" stroke="black" d="M2371.65,-715C2509.62,-715 2943,-715 2943,-715 2943,-715 2943,-463.44 2943,-463.44"/>
<polygon fill="black" stroke="black" points="2946.5,-463.44 2943,-453.44 2939.5,-463.44 2946.5,-463.44"/>
<text xml:space="preserve" text-anchor="middle" x="2744.48" y="-717.45" font-family="Arial" font-size="14.00">Like/Favorite</text>
</g>
<!-- P6 -->
<g id="node10" class="node">
<title>P6</title>
<ellipse fill="none" stroke="black" cx="4080" cy="-371.93" rx="85.99" ry="85.99"/>
<text xml:space="preserve" text-anchor="middle" x="4080" y="-366.5" font-family="Arial" font-size="14.00">Reviews &amp; Ratings</text>
</g>
<!-- C1&#45;&gt;P6 -->
<g id="edge36" class="edge">
<title>C1&#45;&gt;P6</title>
<path fill="none" stroke="black" d="M2371.53,-737C2636.54,-737 4080,-737 4080,-737 4080,-737 4080,-469.49 4080,-469.49"/>
<polygon fill="black" stroke="black" points="4083.5,-469.49 4080,-459.49 4076.5,-469.49 4083.5,-469.49"/>
<text xml:space="preserve" text-anchor="middle" x="3321.27" y="-739.45" font-family="Arial" font-size="14.00">Review Data</text>
</g>
<!-- P6b -->
<g id="node11" class="node">
<title>P6b</title>
<ellipse fill="none" stroke="black" cx="3817" cy="-371.93" rx="68.53" ry="68.53"/>
<text xml:space="preserve" text-anchor="middle" x="3817" y="-366.5" font-family="Arial" font-size="14.00">Delete Review</text>
</g>
<!-- C1&#45;&gt;P6b -->
<g id="edge39" class="edge">
<title>C1&#45;&gt;P6b</title>
<path fill="none" stroke="black" d="M2371.71,-729C2612.79,-729 3817,-729 3817,-729 3817,-729 3817,-452.29 3817,-452.29"/>
<polygon fill="black" stroke="black" points="3820.5,-452.29 3817,-442.29 3813.5,-452.29 3820.5,-452.29"/>
<text xml:space="preserve" text-anchor="middle" x="3189.21" y="-731.45" font-family="Arial" font-size="14.00">Delete Review</text>
</g>
<!-- P7 -->
<g id="node12" class="node">
<title>P7</title>
<ellipse fill="none" stroke="black" cx="2001" cy="-371.93" rx="114.44" ry="114.44"/>
<text xml:space="preserve" text-anchor="middle" x="2001" y="-366.5" font-family="Arial" font-size="14.00">Create/Edit/Delete Recipe</text>
</g>
<!-- C1&#45;&gt;P7 -->
<g id="edge41" class="edge">
<title>C1&#45;&gt;P7</title>
<path fill="none" stroke="black" d="M2309.31,-707.52C2309.31,-650.81 2309.31,-482 2309.31,-482 2309.31,-482 2045.51,-482 2045.51,-482"/>
<polygon fill="black" stroke="black" points="2045.51,-478.5 2035.51,-482 2045.51,-485.5 2045.51,-478.5"/>
<text xml:space="preserve" text-anchor="middle" x="2251.17" y="-484.45" font-family="Arial" font-size="14.00">Recipe Form</text>
</g>
<!-- P8 -->
<g id="node13" class="node">
<title>P8</title>
<ellipse fill="none" stroke="black" cx="3222" cy="-371.93" rx="91.98" ry="91.98"/>
<text xml:space="preserve" text-anchor="middle" x="3222" y="-366.5" font-family="Arial" font-size="14.00">Profile Management</text>
</g>
<!-- C1&#45;&gt;P8 -->
<g id="edge45" class="edge">
<title>C1&#45;&gt;P8</title>
<path fill="none" stroke="black" d="M2371.83,-722C2548.18,-722 3222,-722 3222,-722 3222,-722 3222,-475.87 3222,-475.87"/>
<polygon fill="black" stroke="black" points="3225.5,-475.87 3222,-465.87 3218.5,-475.87 3225.5,-475.87"/>
<text xml:space="preserve" text-anchor="middle" x="2873.85" y="-724.45" font-family="Arial" font-size="14.00">Profile Updates</text>
</g>
<!-- G1 -->
<g id="node4" class="node">
<title>G1</title>
<polygon fill="none" stroke="black" points="1786.5,-743.85 1599.5,-743.85 1599.5,-707.85 1786.5,-707.85 1786.5,-743.85"/>
<text xml:space="preserve" text-anchor="middle" x="1693" y="-720.43" font-family="Arial" font-size="14.00">Guest (Pending/Suspended)</text>
</g>
<!-- G1&#45;&gt;P3 -->
<g id="edge16" class="edge">
<title>G1&#45;&gt;P3</title>
<path fill="none" stroke="black" d="M1786.99,-715C1944.63,-715 2245.24,-715 2245.24,-715 2245.24,-715 2245.24,-448.37 2245.24,-448.37"/>
<polygon fill="black" stroke="black" points="2248.74,-448.37 2245.24,-438.37 2241.74,-448.37 2248.74,-448.37"/>
<text xml:space="preserve" text-anchor="middle" x="2107.43" y="-717.45" font-family="Arial" font-size="14.00">Search / Filter</text>
</g>
<!-- G1&#45;&gt;P4 -->
<g id="edge25" class="edge">
<title>G1&#45;&gt;P4</title>
<path fill="none" stroke="black" d="M1721.66,-707.81C1721.66,-707.81 1721.66,-464.88 1721.66,-464.88"/>
<polygon fill="black" stroke="black" points="1725.16,-464.88 1721.66,-454.88 1718.16,-464.88 1725.16,-464.88"/>
<text xml:space="preserve" text-anchor="middle" x="1692.04" y="-588.8" font-family="Arial" font-size="14.00">Recipe ID</text>
</g>
<!-- P1&#45;&gt;U1 -->
<g id="edge2" class="edge">
<title>P1&#45;&gt;U1</title>
<path fill="none" stroke="black" d="M1272,-1641.55C1272,-1641.55 1272,-1845.63 1272,-1845.63"/>
<polygon fill="black" stroke="black" points="1268.5,-1845.63 1272,-1855.63 1275.5,-1845.63 1268.5,-1845.63"/>
<text xml:space="preserve" text-anchor="middle" x="1237.12" y="-1730.29" font-family="Arial" font-size="14.00">Auth Result</text>
</g>
<!-- P2 -->
<g id="node6" class="node">
<title>P2</title>
<ellipse fill="none" stroke="black" cx="1397" cy="-1087.76" rx="127.91" ry="127.91"/>
<text xml:space="preserve" text-anchor="middle" x="1397" y="-1082.33" font-family="Arial" font-size="14.00">Session &amp; Role Management</text>
</g>
<!-- P1&#45;&gt;P2 -->
<g id="edge7" class="edge">
<title>P1&#45;&gt;P2</title>
<path fill="none" stroke="black" d="M1318.52,-1447.14C1318.52,-1447.14 1318.52,-1200.74 1318.52,-1200.74"/>
<polygon fill="black" stroke="black" points="1322.02,-1200.74 1318.52,-1190.74 1315.02,-1200.74 1322.02,-1200.74"/>
<text xml:space="preserve" text-anchor="middle" x="1274.65" y="-1326.39" font-family="Arial" font-size="14.00">Session Token</text>
</g>
<!-- D1 -->
<g id="node17" class="node">
<title>D1</title>
<path fill="none" stroke="black" d="M3118.88,-32.73C3118.88,-34.53 3102.35,-36 3082,-36 3061.65,-36 3045.12,-34.53 3045.12,-32.73 3045.12,-32.73 3045.12,-3.27 3045.12,-3.27 3045.12,-1.47 3061.65,0 3082,0 3102.35,0 3118.88,-1.47 3118.88,-3.27 3118.88,-3.27 3118.88,-32.73 3118.88,-32.73"/>
<path fill="none" stroke="black" d="M3118.88,-32.73C3118.88,-30.92 3102.35,-29.45 3082,-29.45 3061.65,-29.45 3045.12,-30.92 3045.12,-32.73"/>
<text xml:space="preserve" text-anchor="middle" x="3082" y="-12.57" font-family="Arial" font-size="14.00">Users DB</text>
</g>
<!-- P1&#45;&gt;D1 -->
<g id="edge3" class="edge">
<title>P1&#45;&gt;D1</title>
<path fill="none" stroke="black" d="M1362.45,-1502C1741.81,-1502 3076.73,-1502 3076.73,-1502 3076.73,-1502 3076.73,-48.01 3076.73,-48.01"/>
<polygon fill="black" stroke="black" points="3080.23,-48.01 3076.73,-38.01 3073.23,-48.01 3080.23,-48.01"/>
</g>
<!-- D5 -->
<g id="node21" class="node">
<title>D5</title>
<path fill="none" stroke="black" d="M863.25,-32.73C863.25,-34.53 845.21,-36 823,-36 800.79,-36 782.75,-34.53 782.75,-32.73 782.75,-32.73 782.75,-3.27 782.75,-3.27 782.75,-1.47 800.79,0 823,0 845.21,0 863.25,-1.47 863.25,-3.27 863.25,-3.27 863.25,-32.73 863.25,-32.73"/>
<path fill="none" stroke="black" d="M863.25,-32.73C863.25,-30.92 845.21,-29.45 823,-29.45 800.79,-29.45 782.75,-30.92 782.75,-32.73"/>
<text xml:space="preserve" text-anchor="middle" x="823" y="-12.57" font-family="Arial" font-size="14.00">Daily Stats</text>
</g>
<!-- P1&#45;&gt;D5 -->
<g id="edge6" class="edge">
<title>P1&#45;&gt;D5</title>
<path fill="none" stroke="black" d="M1180.27,-1471.54C1180.27,-1181.63 1180.27,-22 1180.27,-22 1180.27,-22 875.15,-22 875.15,-22"/>
<polygon fill="black" stroke="black" points="875.15,-18.5 865.15,-22 875.15,-25.5 875.15,-18.5"/>
<text xml:space="preserve" text-anchor="middle" x="1133.4" y="-596.66" font-family="Arial" font-size="14.00">New User Stats</text>
</g>
<!-- D6 -->
<g id="node22" class="node">
<title>D6</title>
<path fill="none" stroke="black" d="M1287.5,-32.73C1287.5,-34.53 1268.45,-36 1245,-36 1221.55,-36 1202.5,-34.53 1202.5,-32.73 1202.5,-32.73 1202.5,-3.27 1202.5,-3.27 1202.5,-1.47 1221.55,0 1245,0 1268.45,0 1287.5,-1.47 1287.5,-3.27 1287.5,-3.27 1287.5,-32.73 1287.5,-32.73"/>
<path fill="none" stroke="black" d="M1287.5,-32.73C1287.5,-30.92 1268.45,-29.45 1245,-29.45 1221.55,-29.45 1202.5,-30.92 1202.5,-32.73"/>
<text xml:space="preserve" text-anchor="middle" x="1245" y="-12.57" font-family="Arial" font-size="14.00">Activity Log</text>
</g>
<!-- P1&#45;&gt;D6 -->
<g id="edge5" class="edge">
<title>P1&#45;&gt;D6</title>
<path fill="none" stroke="black" d="M1235.78,-1434.92C1235.78,-1434.92 1235.78,-47.91 1235.78,-47.91"/>
<polygon fill="black" stroke="black" points="1239.28,-47.91 1235.78,-37.91 1232.28,-47.91 1239.28,-47.91"/>
<text xml:space="preserve" text-anchor="middle" x="1191.91" y="-743.86" font-family="Arial" font-size="14.00">Signup Activity</text>
</g>
<!-- P2&#45;&gt;U1 -->
<g id="edge10" class="edge">
<title>P2&#45;&gt;U1</title>
<path fill="none" stroke="black" d="M1446.43,-1206.19C1446.43,-1426.24 1446.43,-1876 1446.43,-1876 1446.43,-1876 1301.98,-1876 1301.98,-1876"/>
<polygon fill="black" stroke="black" points="1301.98,-1872.5 1291.98,-1876 1301.98,-1879.5 1301.98,-1872.5"/>
<text xml:space="preserve" text-anchor="middle" x="1411.56" y="-1615.78" font-family="Arial" font-size="14.00">Role/Status</text>
</g>
<!-- P2&#45;&gt;A1 -->
<g id="edge11" class="edge">
<title>P2&#45;&gt;A1</title>
<path fill="none" stroke="black" d="M1384,-960.16C1384,-960.16 1384,-755.59 1384,-755.59"/>
<polygon fill="black" stroke="black" points="1387.5,-755.59 1384,-745.59 1380.5,-755.59 1387.5,-755.59"/>
<text xml:space="preserve" text-anchor="middle" x="1364.5" y="-860.33" font-family="Arial" font-size="14.00">Admin</text>
</g>
<!-- P2&#45;&gt;C1 -->
<g id="edge12" class="edge">
<title>P2&#45;&gt;C1</title>
<path fill="none" stroke="black" d="M1525.26,-1088C1781,-1088 2330,-1088 2330,-1088 2330,-1088 2330,-755.82 2330,-755.82"/>
<polygon fill="black" stroke="black" points="2333.5,-755.82 2330,-745.82 2326.5,-755.82 2333.5,-755.82"/>
<text xml:space="preserve" text-anchor="middle" x="2060.35" y="-1090.45" font-family="Arial" font-size="14.00">Contributor</text>
</g>
<!-- P2&#45;&gt;G1 -->
<g id="edge13" class="edge">
<title>P2&#45;&gt;G1</title>
<path fill="none" stroke="black" d="M1511.92,-1030.84C1511.92,-928.96 1511.92,-726 1511.92,-726 1511.92,-726 1587.5,-726 1587.5,-726"/>
<polygon fill="black" stroke="black" points="1587.5,-729.5 1597.5,-726 1587.5,-722.5 1587.5,-729.5"/>
<text xml:space="preserve" text-anchor="middle" x="1493.55" y="-843.08" font-family="Arial" font-size="14.00">Guest</text>
</g>
<!-- P2&#45;&gt;D5 -->
<g id="edge14" class="edge">
<title>P2&#45;&gt;D5</title>
<path fill="none" stroke="black" d="M1285.93,-1024C1184.58,-1024 1050.48,-1024 1050.48,-1024 1050.48,-1024 1050.48,-29 1050.48,-29 1050.48,-29 875.18,-29 875.18,-29"/>
<polygon fill="black" stroke="black" points="875.18,-25.5 865.18,-29 875.18,-32.5 875.18,-25.5"/>
<text xml:space="preserve" text-anchor="middle" x="1000.61" y="-559.02" font-family="Arial" font-size="14.00">Active User Ping</text>
</g>
<!-- D7 -->
<g id="node23" class="node">
<title>D7</title>
<path fill="none" stroke="black" d="M100,-32.73C100,-34.53 77.59,-36 50,-36 22.41,-36 0,-34.53 0,-32.73 0,-32.73 0,-3.27 0,-3.27 0,-1.47 22.41,0 50,0 77.59,0 100,-1.47 100,-3.27 100,-3.27 100,-32.73 100,-32.73"/>
<path fill="none" stroke="black" d="M100,-32.73C100,-30.92 77.59,-29.45 50,-29.45 22.41,-29.45 0,-30.92 0,-32.73"/>
<text xml:space="preserve" text-anchor="middle" x="50" y="-12.57" font-family="Arial" font-size="14.00">Session Store</text>
</g>
<!-- P2&#45;&gt;D7 -->
<g id="edge8" class="edge">
<title>P2&#45;&gt;D7</title>
<path fill="none" stroke="black" d="M1285.98,-1152C960.82,-1152 33.33,-1152 33.33,-1152 33.33,-1152 33.33,-47.79 33.33,-47.79"/>
<polygon fill="black" stroke="black" points="36.83,-47.79 33.33,-37.79 29.83,-47.79 36.83,-47.79"/>
</g>
<!-- P3&#45;&gt;C1 -->
<g id="edge17" class="edge">
<title>P3&#45;&gt;C1</title>
<path fill="none" stroke="black" d="M2350.69,-476.68C2350.69,-476.68 2350.69,-696.12 2350.69,-696.12"/>
<polygon fill="black" stroke="black" points="2347.19,-696.12 2350.69,-706.12 2354.19,-696.12 2347.19,-696.12"/>
<text xml:space="preserve" text-anchor="middle" x="2317.31" y="-573.1" font-family="Arial" font-size="14.00">Recipe List</text>
</g>
<!-- P3&#45;&gt;G1 -->
<g id="edge18" class="edge">
<title>P3&#45;&gt;G1</title>
<path fill="none" stroke="black" d="M2266.93,-458.01C2266.93,-561.67 2266.93,-722 2266.93,-722 2266.93,-722 1798.32,-722 1798.32,-722"/>
<polygon fill="black" stroke="black" points="1798.32,-718.5 1788.32,-722 1798.32,-725.5 1798.32,-718.5"/>
<text xml:space="preserve" text-anchor="middle" x="2198" y="-724.45" font-family="Arial" font-size="14.00">Recipe List</text>
</g>
<!-- D2 -->
<g id="node18" class="node">
<title>D2</title>
<path fill="none" stroke="black" d="M2044.62,-32.73C2044.62,-34.53 2025.07,-36 2001,-36 1976.93,-36 1957.38,-34.53 1957.38,-32.73 1957.38,-32.73 1957.38,-3.27 1957.38,-3.27 1957.38,-1.47 1976.93,0 2001,0 2025.07,0 2044.62,-1.47 2044.62,-3.27 2044.62,-3.27 2044.62,-32.73 2044.62,-32.73"/>
<path fill="none" stroke="black" d="M2044.62,-32.73C2044.62,-30.92 2025.07,-29.45 2001,-29.45 1976.93,-29.45 1957.38,-30.92 1957.38,-32.73"/>
<text xml:space="preserve" text-anchor="middle" x="2001" y="-12.57" font-family="Arial" font-size="14.00">Recipes DB</text>
</g>
<!-- P3&#45;&gt;D2 -->
<g id="edge19" class="edge">
<title>P3&#45;&gt;D2</title>
<path fill="none" stroke="black" d="M2241.62,-311.72C2241.62,-212.14 2241.62,-24 2241.62,-24 2241.62,-24 2056.37,-24 2056.37,-24"/>
<polygon fill="black" stroke="black" points="2056.37,-20.5 2046.37,-24 2056.37,-27.5 2056.37,-20.5"/>
</g>
<!-- D4 -->
<g id="node20" class="node">
<title>D4</title>
<path fill="none" stroke="black" d="M2382.25,-32.73C2382.25,-34.53 2358.83,-36 2330,-36 2301.17,-36 2277.75,-34.53 2277.75,-32.73 2277.75,-32.73 2277.75,-3.27 2277.75,-3.27 2277.75,-1.47 2301.17,0 2330,0 2358.83,0 2382.25,-1.47 2382.25,-3.27 2382.25,-3.27 2382.25,-32.73 2382.25,-32.73"/>
<path fill="none" stroke="black" d="M2382.25,-32.73C2382.25,-30.92 2358.83,-29.45 2330,-29.45 2301.17,-29.45 2277.75,-30.92 2277.75,-32.73"/>
<text xml:space="preserve" text-anchor="middle" x="2330" y="-12.57" font-family="Arial" font-size="14.00">Search History</text>
</g>
<!-- P3&#45;&gt;D4 -->
<g id="edge21" class="edge">
<title>P3&#45;&gt;D4</title>
<path fill="none" stroke="black" d="M2356.12,-268.6C2356.12,-268.6 2356.12,-47.89 2356.12,-47.89"/>
<polygon fill="black" stroke="black" points="2359.63,-47.89 2356.13,-37.89 2352.63,-47.89 2359.63,-47.89"/>
<text xml:space="preserve" text-anchor="middle" x="2317.5" y="-160.7" font-family="Arial" font-size="14.00">Save Search</text>
</g>
<!-- P3&#45;&gt;D4 -->
<g id="edge23" class="edge">
<title>P3&#45;&gt;D4</title>
<path fill="none" stroke="black" d="M2330,-265.26C2330,-265.26 2330,-47.83 2330,-47.83"/>
<polygon fill="black" stroke="black" points="2333.5,-47.83 2330,-37.83 2326.5,-47.83 2333.5,-47.83"/>
<text xml:space="preserve" text-anchor="middle" x="2369" y="-143.24" font-family="Arial" font-size="14.00">Clear History</text>
</g>
<!-- P4&#45;&gt;C1 -->
<g id="edge26" class="edge">
<title>P4&#45;&gt;C1</title>
<path fill="none" stroke="black" d="M1774.42,-401C1799.12,-401 1819.85,-401 1819.85,-401 1819.85,-401 1819.85,-737 1819.85,-737 1819.85,-737 2276.74,-737 2276.74,-737"/>
<polygon fill="black" stroke="black" points="2276.74,-740.5 2286.74,-737 2276.74,-733.5 2276.74,-740.5"/>
<text xml:space="preserve" text-anchor="middle" x="1840.33" y="-739.45" font-family="Arial" font-size="14.00">Detail</text>
</g>
<!-- P4&#45;&gt;G1 -->
<g id="edge27" class="edge">
<title>P4&#45;&gt;G1</title>
<path fill="none" stroke="black" d="M1664.34,-453.12C1664.34,-453.12 1664.34,-696.14 1664.34,-696.14"/>
<polygon fill="black" stroke="black" points="1660.84,-696.14 1664.34,-706.14 1667.84,-696.14 1660.84,-696.14"/>
<text xml:space="preserve" text-anchor="middle" x="1647.09" y="-561.33" font-family="Arial" font-size="14.00">Detail</text>
</g>
<!-- P4&#45;&gt;D2 -->
<g id="edge28" class="edge">
<title>P4&#45;&gt;D2</title>
<path fill="none" stroke="black" d="M1693,-285.8C1693,-181.04 1693,-18 1693,-18 1693,-18 1945.68,-18 1945.68,-18"/>
<polygon fill="black" stroke="black" points="1945.68,-21.5 1955.68,-18 1945.68,-14.5 1945.68,-21.5"/>
</g>
<!-- P4&#45;&gt;D5 -->
<g id="edge30" class="edge">
<title>P4&#45;&gt;D5</title>
<path fill="none" stroke="black" d="M1650,-297.14C1650,-254.31 1650,-209 1650,-209 1650,-209 843.12,-209 843.12,-209 843.12,-209 843.12,-47.83 843.12,-47.83"/>
<polygon fill="black" stroke="black" points="846.63,-47.83 843.13,-37.83 839.63,-47.83 846.63,-47.83"/>
</g>
<!-- P5&#45;&gt;D1 -->
<g id="edge32" class="edge">
<title>P5&#45;&gt;D1</title>
<path fill="none" stroke="black" d="M2990.7,-307.7C2990.7,-207.17 2990.7,-24 2990.7,-24 2990.7,-24 3033.35,-24 3033.35,-24"/>
<polygon fill="black" stroke="black" points="3033.35,-27.5 3043.35,-24 3033.35,-20.5 3033.35,-27.5"/>
</g>
<!-- P5&#45;&gt;D2 -->
<g id="edge34" class="edge">
<title>P5&#45;&gt;D2</title>
<path fill="none" stroke="black" d="M2927.1,-293.81C2927.1,-207.04 2927.1,-79 2927.1,-79 2927.1,-79 2027.17,-79 2027.17,-79 2027.17,-79 2027.17,-47.82 2027.17,-47.82"/>
<polygon fill="black" stroke="black" points="2030.68,-47.82 2027.18,-37.82 2023.68,-47.82 2030.68,-47.82"/>
</g>
<!-- D3 -->
<g id="node19" class="node">
<title>D3</title>
<path fill="none" stroke="black" d="M4124.75,-32.73C4124.75,-34.53 4104.69,-36 4080,-36 4055.31,-36 4035.25,-34.53 4035.25,-32.73 4035.25,-32.73 4035.25,-3.27 4035.25,-3.27 4035.25,-1.47 4055.31,0 4080,0 4104.69,0 4124.75,-1.47 4124.75,-3.27 4124.75,-3.27 4124.75,-32.73 4124.75,-32.73"/>
<path fill="none" stroke="black" d="M4124.75,-32.73C4124.75,-30.92 4104.69,-29.45 4080,-29.45 4055.31,-29.45 4035.25,-30.92 4035.25,-32.73"/>
<text xml:space="preserve" text-anchor="middle" x="4080" y="-12.57" font-family="Arial" font-size="14.00">Reviews DB</text>
</g>
<!-- P6&#45;&gt;D3 -->
<g id="edge37" class="edge">
<title>P6&#45;&gt;D3</title>
<path fill="none" stroke="black" d="M4094.92,-287.15C4094.92,-287.15 4094.92,-47.99 4094.92,-47.99"/>
<polygon fill="black" stroke="black" points="4098.42,-47.99 4094.92,-37.99 4091.42,-47.99 4098.42,-47.99"/>
</g>
<!-- P6b&#45;&gt;D3 -->
<g id="edge40" class="edge">
<title>P6b&#45;&gt;D3</title>
<path fill="none" stroke="black" d="M3817,-303.27C3817,-200.34 3817,-18 3817,-18 3817,-18 4023.28,-18 4023.28,-18"/>
<polygon fill="black" stroke="black" points="4023.28,-21.5 4033.28,-18 4023.28,-14.5 4023.28,-21.5"/>
<text xml:space="preserve" text-anchor="middle" x="3767.5" y="-59.95" font-family="Arial" font-size="14.00">Remove Review</text>
</g>
<!-- P7&#45;&gt;D2 -->
<g id="edge42" class="edge">
<title>P7&#45;&gt;D2</title>
<path fill="none" stroke="black" d="M2009.72,-257.5C2009.72,-257.5 2009.72,-47.89 2009.72,-47.89"/>
<polygon fill="black" stroke="black" points="2013.23,-47.89 2009.73,-37.89 2006.23,-47.89 2013.23,-47.89"/>
</g>
<!-- P7&#45;&gt;D6 -->
<g id="edge44" class="edge">
<title>P7&#45;&gt;D6</title>
<path fill="none" stroke="black" d="M1921.97,-288.72C1921.97,-187.51 1921.97,-30 1921.97,-30 1921.97,-30 1299.37,-30 1299.37,-30"/>
<polygon fill="black" stroke="black" points="1299.37,-26.5 1289.37,-30 1299.37,-33.5 1299.37,-26.5"/>
</g>
<!-- P8&#45;&gt;D1 -->
<g id="edge46" class="edge">
<title>P8&#45;&gt;D1</title>
<path fill="none" stroke="black" d="M3193.61,-284C3159.95,-284 3108.34,-284 3108.34,-284 3108.34,-284 3108.34,-47.38 3108.34,-47.38"/>
<polygon fill="black" stroke="black" points="3111.84,-47.38 3108.34,-37.38 3104.84,-47.38 3111.84,-47.38"/>
</g>
<!-- P9&#45;&gt;D1 -->
<g id="edge49" class="edge">
<title>P9&#45;&gt;D1</title>
<path fill="none" stroke="black" d="M2693.75,-275C2800.61,-275 3066.2,-275 3066.2,-275 3066.2,-275 3066.2,-48 3066.2,-48"/>
<polygon fill="black" stroke="black" points="3069.7,-48 3066.2,-38 3062.7,-48 3069.7,-48"/>
</g>
<!-- P9&#45;&gt;D6 -->
<g id="edge51" class="edge">
<title>P9&#45;&gt;D6</title>
<path fill="none" stroke="black" d="M2650,-265.65C2650,-215.29 2650,-166 2650,-166 2650,-166 1281.35,-166 1281.35,-166 1281.35,-166 1281.35,-46.78 1281.35,-46.78"/>
<polygon fill="black" stroke="black" points="1284.85,-46.78 1281.35,-36.78 1277.85,-46.78 1284.85,-46.78"/>
</g>
<!-- P10&#45;&gt;D2 -->
<g id="edge53" class="edge">
<title>P10&#45;&gt;D2</title>
<path fill="none" stroke="black" d="M1357.98,-259.65C1357.98,-152.08 1357.98,-6 1357.98,-6 1357.98,-6 1945.54,-6 1945.54,-6"/>
<polygon fill="black" stroke="black" points="1945.54,-9.5 1955.54,-6 1945.54,-2.5 1945.54,-9.5"/>
</g>
<!-- P10&#45;&gt;D6 -->
<g id="edge55" class="edge">
<title>P10&#45;&gt;D6</title>
<path fill="none" stroke="black" d="M1275.21,-333.38C1275.21,-333.38 1275.21,-47.14 1275.21,-47.14"/>
<polygon fill="black" stroke="black" points="1278.71,-47.14 1275.21,-37.14 1271.71,-47.14 1278.71,-47.14"/>
</g>
<!-- P11&#45;&gt;A1 -->
<g id="edge61" class="edge">
<title>P11&#45;&gt;A1</title>
<path fill="none" stroke="black" d="M862.98,-485.42C862.98,-586.99 862.98,-720 862.98,-720 862.98,-720 1344.84,-720 1344.84,-720"/>
<polygon fill="black" stroke="black" points="1344.84,-723.5 1354.84,-720 1344.84,-716.5 1344.84,-723.5"/>
<text xml:space="preserve" text-anchor="middle" x="936.37" y="-706.7" font-family="Arial" font-size="14.00">Dashboard Stats</text>
</g>
<!-- P11&#45;&gt;D5 -->
<g id="edge57" class="edge">
<title>P11&#45;&gt;D5</title>
<path fill="none" stroke="black" d="M823,-251.61C823,-251.61 823,-47.83 823,-47.83"/>
<polygon fill="black" stroke="black" points="826.5,-47.83 823,-37.83 819.5,-47.83 826.5,-47.83"/>
</g>
<!-- P11&#45;&gt;D6 -->
<g id="edge59" class="edge">
<title>P11&#45;&gt;D6</title>
<path fill="none" stroke="black" d="M889.81,-272.21C889.81,-164.16 889.81,-7 889.81,-7 889.81,-7 1190.64,-7 1190.64,-7"/>
<polygon fill="black" stroke="black" points="1190.64,-10.5 1200.64,-7 1190.64,-3.5 1190.64,-10.5"/>
</g>
<!-- D1&#45;&gt;P1 -->
<g id="edge4" class="edge">
<title>D1&#45;&gt;P1</title>
<path fill="none" stroke="black" d="M3087.27,-36.26C3087.27,-210.44 3087.27,-1572 3087.27,-1572 3087.27,-1572 1373.57,-1572 1373.57,-1572"/>
<polygon fill="black" stroke="black" points="1373.57,-1568.5 1363.57,-1572 1373.57,-1575.5 1373.57,-1568.5"/>
</g>
<!-- D1&#45;&gt;P5 -->
<g id="edge33" class="edge">
<title>D1&#45;&gt;P5</title>
<path fill="none" stroke="black" d="M3044.73,-12C3008.5,-12 2958.9,-12 2958.9,-12 2958.9,-12 2958.9,-282.31 2958.9,-282.31"/>
<polygon fill="black" stroke="black" points="2955.4,-282.31 2958.9,-292.31 2962.4,-282.31 2955.4,-282.31"/>
</g>
<!-- D1&#45;&gt;P8 -->
<g id="edge47" class="edge">
<title>D1&#45;&gt;P8</title>
<path fill="none" stroke="black" d="M3097.8,-36.13C3097.8,-96.67 3097.8,-288 3097.8,-288 3097.8,-288 3171.87,-288 3171.87,-288"/>
<polygon fill="black" stroke="black" points="3171.87,-291.5 3181.87,-288 3171.87,-284.5 3171.87,-291.5"/>
</g>
<!-- D1&#45;&gt;P9 -->
<g id="edge50" class="edge">
<title>D1&#45;&gt;P9</title>
<path fill="none" stroke="black" d="M3055.66,-35.79C3055.66,-93.38 3055.66,-271 3055.66,-271 3055.66,-271 2695.06,-271 2695.06,-271"/>
<polygon fill="black" stroke="black" points="2695.06,-267.5 2685.06,-271 2695.06,-274.5 2695.06,-267.5"/>
</g>
<!-- D2&#45;&gt;P3 -->
<g id="edge20" class="edge">
<title>D2&#45;&gt;P3</title>
<path fill="none" stroke="black" d="M2044.88,-12C2118.69,-12 2259.68,-12 2259.68,-12 2259.68,-12 2259.68,-280.09 2259.68,-280.09"/>
<polygon fill="black" stroke="black" points="2256.18,-280.09 2259.68,-290.09 2263.18,-280.09 2256.18,-280.09"/>
</g>
<!-- D2&#45;&gt;P4 -->
<g id="edge29" class="edge">
<title>D2&#45;&gt;P4</title>
<path fill="none" stroke="black" d="M1956.94,-24C1881.59,-24 1736,-24 1736,-24 1736,-24 1736,-285.77 1736,-285.77"/>
<polygon fill="black" stroke="black" points="1732.5,-285.77 1736,-295.77 1739.5,-285.77 1732.5,-285.77"/>
</g>
<!-- D2&#45;&gt;P5 -->
<g id="edge35" class="edge">
<title>D2&#45;&gt;P5</title>
<path fill="none" stroke="black" d="M1974.83,-36.12C1974.83,-65.91 1974.83,-122 1974.83,-122 1974.83,-122 2895.3,-122 2895.3,-122 2895.3,-122 2895.3,-296.37 2895.3,-296.37"/>
<polygon fill="black" stroke="black" points="2891.8,-296.37 2895.3,-306.37 2898.8,-296.37 2891.8,-296.37"/>
</g>
<!-- D2&#45;&gt;P7 -->
<g id="edge43" class="edge">
<title>D2&#45;&gt;P7</title>
<path fill="none" stroke="black" d="M1992.28,-36.04C1992.28,-36.04 1992.28,-245.83 1992.28,-245.83"/>
<polygon fill="black" stroke="black" points="1988.78,-245.83 1992.28,-255.83 1995.78,-245.83 1988.78,-245.83"/>
</g>
<!-- D2&#45;&gt;P10 -->
<g id="edge54" class="edge">
<title>D2&#45;&gt;P10</title>
<path fill="none" stroke="black" d="M1957.02,-12C1822.96,-12 1428.46,-12 1428.46,-12 1428.46,-12 1428.46,-253.88 1428.46,-253.88"/>
<polygon fill="black" stroke="black" points="1424.96,-253.88 1428.46,-263.88 1431.96,-253.88 1424.96,-253.88"/>
</g>
<!-- D3&#45;&gt;P6 -->
<g id="edge38" class="edge">
<title>D3&#45;&gt;P6</title>
<path fill="none" stroke="black" d="M4065.08,-36.04C4065.08,-36.04 4065.08,-275.49 4065.08,-275.49"/>
<polygon fill="black" stroke="black" points="4061.58,-275.49 4065.08,-285.49 4068.58,-275.49 4061.58,-275.49"/>
</g>
<!-- D4&#45;&gt;P3 -->
<g id="edge22" class="edge">
<title>D4&#45;&gt;P3</title>
<path fill="none" stroke="black" d="M2303.88,-36.04C2303.88,-36.04 2303.88,-257.08 2303.88,-257.08"/>
<polygon fill="black" stroke="black" points="2300.38,-257.08 2303.88,-267.08 2307.38,-257.08 2300.38,-257.08"/>
<text xml:space="preserve" text-anchor="middle" x="2260" y="-133.26" font-family="Arial" font-size="14.00">History Entries</text>
</g>
<!-- D5&#45;&gt;P11 -->
<g id="edge58" class="edge">
<title>D5&#45;&gt;P11</title>
<path fill="none" stroke="black" d="M802.88,-36.04C802.88,-36.04 802.88,-242.01 802.88,-242.01"/>
<polygon fill="black" stroke="black" points="799.38,-242.01 802.88,-252.01 806.38,-242.01 799.38,-242.01"/>
</g>
<!-- D6&#45;&gt;P11 -->
<g id="edge60" class="edge">
<title>D6&#45;&gt;P11</title>
<path fill="none" stroke="black" d="M1202.04,-14C1112.96,-14 916.37,-14 916.37,-14 916.37,-14 916.37,-284.5 916.37,-284.5"/>
<polygon fill="black" stroke="black" points="912.87,-284.5 916.37,-294.5 919.87,-284.51 912.87,-284.5"/>
</g>
<!-- D7&#45;&gt;P2 -->
<g id="edge9" class="edge">
<title>D7&#45;&gt;P2</title>
<path fill="none" stroke="black" d="M66.67,-36.12C66.67,-176.73 66.67,-1088 66.67,-1088 66.67,-1088 1257.32,-1088 1257.32,-1088"/>
<polygon fill="black" stroke="black" points="1257.32,-1091.5 1267.32,-1088 1257.32,-1084.5 1257.32,-1091.5"/>
</g>
</g>
</svg>
