<?xml version="1.0" encoding="UTF-8" standalone="no"?>
<!DOCTYPE svg PUBLIC "-//W3C//DTD SVG 1.1//EN"
 "http://www.w3.org/Graphics/SVG/1.1/DTD/svg11.dtd">
<!-- Generated by graphviz version 14.1.1 (20251213.1925)
 -->
<!-- Title: ERDRecipeConceptual Pages: 1 -->
<svg width="6043pt" height="764pt"
 viewBox="0.00 0.00 6043.00 764.00" xmlns="http://www.w3.org/2000/svg" xmlns:xlink="http://www.w3.org/1999/xlink">
<g id="graph0" class="graph" transform="scale(1 1) rotate(0) translate(4 760)">
<title>ERDRecipeConceptual</title>
<polygon fill="white" stroke="none" points="-4,4 -4,-760 6038.7,-760 6038.7,4 -4,4"/>
<!-- USER -->
<g id="node1" class="node">
<title>USER</title>
<polygon fill="none" stroke="black" points="1975.25,-756 1921.25,-756 1921.25,-720 1975.25,-720 1975.25,-756"/>
<text xml:space="preserve" text-anchor="middle" x="1948.25" y="-732.58" font-family="Arial" font-size="14.00">USER</text>
</g>
<!-- rel_is_admin -->
<g id="node12" class="node">
<title>rel_is_admin</title>
<polygon fill="none" stroke="black" points="1948.25,-576 1913.44,-558 1948.25,-540 1983.06,-558 1948.25,-576"/>
<text xml:space="preserve" text-anchor="middle" x="1948.25" y="-552.58" font-family="Arial" font-size="14.00">is a</text>
</g>
<!-- USER&#45;&gt;rel_is_admin -->
<g id="edge3" class="edge">
<title>USER&#45;&gt;rel_is_admin</title>
<path fill="none" stroke="black" d="M1931.41,-719.61C1918.28,-686.6 1917.88,-615.01 1930.2,-579.63"/>
<polygon fill="black" stroke="black" points="1933.39,-581.08 1934.25,-570.52 1926.99,-578.23 1933.39,-581.08"/>
<text xml:space="preserve" text-anchor="middle" x="1927.05" y="-652.07" font-family="Arial" font-size="14.00">1</text>
</g>
<!-- USER&#45;&gt;rel_is_admin -->
<!-- rel_is_contributor -->
<g id="node13" class="node">
<title>rel_is_contributor</title>
<polygon fill="none" stroke="black" points="1505.25,-576 1470.44,-558 1505.25,-540 1540.06,-558 1505.25,-576"/>
<text xml:space="preserve" text-anchor="middle" x="1505.25" y="-552.58" font-family="Arial" font-size="14.00">is a</text>
</g>
<!-- USER&#45;&gt;rel_is_contributor -->
<g id="edge5" class="edge">
<title>USER&#45;&gt;rel_is_contributor</title>
<path fill="none" stroke="black" d="M1920.87,-726C1842.14,-694.36 1615.58,-603.33 1534.53,-570.76"/>
<polygon fill="black" stroke="black" points="1536.07,-567.61 1525.49,-567.13 1533.46,-574.11 1536.07,-567.61"/>
<text xml:space="preserve" text-anchor="middle" x="1723.95" y="-650.83" font-family="Arial" font-size="14.00">1</text>
</g>
<!-- rel_is_guest -->
<g id="node14" class="node">
<title>rel_is_guest</title>
<polygon fill="none" stroke="black" points="1753.25,-576 1718.44,-558 1753.25,-540 1788.06,-558 1753.25,-576"/>
<text xml:space="preserve" text-anchor="middle" x="1753.25" y="-552.58" font-family="Arial" font-size="14.00">is a</text>
</g>
<!-- USER&#45;&gt;rel_is_guest -->
<g id="edge7" class="edge">
<title>USER&#45;&gt;rel_is_guest</title>
<path fill="none" stroke="black" d="M1929.2,-719.61C1892.29,-685.92 1811.35,-612.04 1773.51,-577.49"/>
<polygon fill="black" stroke="black" points="1776.15,-575.16 1766.4,-571 1771.43,-580.33 1776.15,-575.16"/>
<text xml:space="preserve" text-anchor="middle" x="1847.6" y="-651" font-family="Arial" font-size="14.00">1</text>
</g>
<!-- ADMIN -->
<g id="node2" class="node">
<title>ADMIN</title>
<polygon fill="none" stroke="black" points="1978.38,-396 1918.12,-396 1918.12,-360 1978.38,-360 1978.38,-396"/>
<text xml:space="preserve" text-anchor="middle" x="1948.25" y="-372.57" font-family="Arial" font-size="14.00">ADMIN</text>
</g>
<!-- RECIPE -->
<g id="node5" class="node">
<title>RECIPE</title>
<polygon fill="none" stroke="black" points="1244.38,-36 1178.12,-36 1178.12,0 1244.38,0 1244.38,-36"/>
<text xml:space="preserve" text-anchor="middle" x="1211.25" y="-12.57" font-family="Arial" font-size="14.00">RECIPE</text>
</g>
<!-- ADMIN&#45;&gt;RECIPE -->
<!-- ADMIN&#45;&gt;rel_is_contributor -->
<!-- rel_moderates -->
<g id="node15" class="node">
<title>rel_moderates</title>
<polygon fill="none" stroke="black" points="1625.25,-216 1549.51,-198 1625.25,-180 1700.99,-198 1625.25,-216"/>
<text xml:space="preserve" text-anchor="middle" x="1625.25" y="-192.57" font-family="Arial" font-size="14.00">moderates</text>
</g>
<!-- ADMIN&#45;&gt;rel_moderates -->
<g id="edge9" class="edge">
<title>ADMIN&#45;&gt;rel_moderates</title>
<path fill="none" stroke="black" d="M1917.86,-360.25C1856.85,-326.63 1719.94,-251.18 1657.45,-216.75"/>
<polygon fill="black" stroke="black" points="1659.16,-213.69 1648.71,-211.93 1655.78,-219.82 1659.16,-213.69"/>
<text xml:space="preserve" text-anchor="middle" x="1783.91" y="-290.95" font-family="Arial" font-size="14.00">1</text>
</g>
<!-- rel_manages -->
<g id="node16" class="node">
<title>rel_manages</title>
<polygon fill="none" stroke="black" points="4884.25,-216 4816.27,-198 4884.25,-180 4952.23,-198 4884.25,-216"/>
<text xml:space="preserve" text-anchor="middle" x="4884.25" y="-192.57" font-family="Arial" font-size="14.00">manages</text>
</g>
<!-- ADMIN&#45;&gt;rel_manages -->
<g id="edge11" class="edge">
<title>ADMIN&#45;&gt;rel_manages</title>
<path fill="none" stroke="black" d="M1978.42,-375.19C2273.51,-357.5 4634.25,-216 4634.25,-216 4634.25,-216 4746.69,-208.35 4820.76,-203.32"/>
<polygon fill="black" stroke="black" points="4820.59,-206.84 4830.33,-202.67 4820.12,-199.85 4820.59,-206.84"/>
<text xml:space="preserve" text-anchor="middle" x="3395.88" y="-292.45" font-family="Arial" font-size="14.00">1</text>
</g>
<!-- rel_accesses_dashboard -->
<g id="node17" class="node">
<title>rel_accesses_dashboard</title>
<polygon fill="none" stroke="black" points="4530.25,-216 4462.27,-198 4530.25,-180 4598.23,-198 4530.25,-216"/>
<text xml:space="preserve" text-anchor="middle" x="4530.25" y="-192.57" font-family="Arial" font-size="14.00">accesses</text>
</g>
<!-- ADMIN&#45;&gt;rel_accesses_dashboard -->
<g id="edge13" class="edge">
<title>ADMIN&#45;&gt;rel_accesses_dashboard</title>
<path fill="none" stroke="black" d="M1978.69,-375.02C2261.91,-356.62 4426.25,-216 4426.25,-216 4426.25,-216 4452.33,-211.74 4478.36,-207.48"/>
<polygon fill="black" stroke="black" points="4478.65,-210.98 4487.95,-205.91 4477.52,-204.07 4478.65,-210.98"/>
<text xml:space="preserve" text-anchor="middle" x="3225.07" y="-296.25" font-family="Arial" font-size="14.00">1</text>
</g>
<!-- CONTRIBUTOR -->
<g id="node3" class="node">
<title>CONTRIBUTOR</title>
<polygon fill="none" stroke="black" points="1186.5,-396 1070,-396 1070,-360 1186.5,-360 1186.5,-396"/>
<text xml:space="preserve" text-anchor="middle" x="1128.25" y="-372.57" font-family="Arial" font-size="14.00">CONTRIBUTOR</text>
</g>
<!-- CONTRIBUTOR&#45;&gt;RECIPE -->
<!-- rel_creates -->
<g id="node11" class="node">
<title>rel_creates</title>
<polygon fill="none" stroke="black" points="1128.25,-216 1071.56,-198 1128.25,-180 1184.94,-198 1128.25,-216"/>
<text xml:space="preserve" text-anchor="middle" x="1128.25" y="-192.57" font-family="Arial" font-size="14.00">creates</text>
</g>
<!-- CONTRIBUTOR&#45;&gt;rel_creates -->
<g id="edge1" class="edge">
<title>CONTRIBUTOR&#45;&gt;rel_creates</title>
<path fill="none" stroke="black" d="M1128.25,-359.61C1128.25,-328.9 1128.25,-264.81 1128.25,-227.54"/>
<polygon fill="black" stroke="black" points="1131.75,-227.98 1128.25,-217.98 1124.75,-227.98 1131.75,-227.98"/>
<text xml:space="preserve" text-anchor="middle" x="1124.5" y="-296.03" font-family="Arial" font-size="14.00">1</text>
</g>
<!-- CONTRIBUTOR&#45;&gt;rel_is_guest -->
<!-- rel_favorites -->
<g id="node18" class="node">
<title>rel_favorites</title>
<polygon fill="none" stroke="black" points="637.25,-216 574.21,-198 637.25,-180 700.29,-198 637.25,-216"/>
<text xml:space="preserve" text-anchor="middle" x="637.25" y="-192.57" font-family="Arial" font-size="14.00">favorites</text>
</g>
<!-- CONTRIBUTOR&#45;&gt;rel_favorites -->
<g id="edge15" class="edge">
<title>CONTRIBUTOR&#45;&gt;rel_favorites</title>
<path fill="none" stroke="black" d="M1080.28,-359.61C982.72,-324.24 763.01,-244.59 674.87,-212.64"/>
<polygon fill="black" stroke="black" points="676.08,-209.35 665.49,-209.24 673.7,-215.94 676.08,-209.35"/>
<text xml:space="preserve" text-anchor="middle" x="871.58" y="-288.57" font-family="Arial" font-size="14.00">M</text>
</g>
<!-- rel_likes -->
<g id="node19" class="node">
<title>rel_likes</title>
<polygon fill="none" stroke="black" points="813.25,-216 772.79,-198 813.25,-180 853.71,-198 813.25,-216"/>
<text xml:space="preserve" text-anchor="middle" x="813.25" y="-192.57" font-family="Arial" font-size="14.00">likes</text>
</g>
<!-- CONTRIBUTOR&#45;&gt;rel_likes -->
<g id="edge17" class="edge">
<title>CONTRIBUTOR&#45;&gt;rel_likes</title>
<path fill="none" stroke="black" d="M1097.47,-359.61C1035.97,-324.86 898.79,-247.34 840.4,-214.34"/>
<polygon fill="black" stroke="black" points="842.2,-211.34 831.77,-209.47 838.76,-217.43 842.2,-211.34"/>
<text xml:space="preserve" text-anchor="middle" x="962.94" y="-289.43" font-family="Arial" font-size="14.00">M</text>
</g>
<!-- rel_views -->
<g id="node20" class="node">
<title>rel_views</title>
<polygon fill="none" stroke="black" points="2076.25,-216 2029.44,-198 2076.25,-180 2123.06,-198 2076.25,-216"/>
<text xml:space="preserve" text-anchor="middle" x="2076.25" y="-192.57" font-family="Arial" font-size="14.00">views</text>
</g>
<!-- CONTRIBUTOR&#45;&gt;rel_views -->
<g id="edge19" class="edge">
<title>CONTRIBUTOR&#45;&gt;rel_views</title>
<path fill="none" stroke="black" d="M1186.75,-366.12C1381.3,-329.96 1994.25,-216 1994.25,-216 1994.25,-216 2015.02,-211.69 2035.66,-207.42"/>
<polygon fill="black" stroke="black" points="2036.08,-210.9 2045.16,-205.44 2034.66,-204.05 2036.08,-210.9"/>
<text xml:space="preserve" text-anchor="middle" x="1605.29" y="-289.65" font-family="Arial" font-size="14.00">M</text>
</g>
<!-- rel_writes -->
<g id="node23" class="node">
<title>rel_writes</title>
<polygon fill="none" stroke="black" points="257.25,-216 209.03,-198 257.25,-180 305.47,-198 257.25,-216"/>
<text xml:space="preserve" text-anchor="middle" x="257.25" y="-192.57" font-family="Arial" font-size="14.00">writes</text>
</g>
<!-- CONTRIBUTOR&#45;&gt;rel_writes -->
<g id="edge27" class="edge">
<title>CONTRIBUTOR&#45;&gt;rel_writes</title>
<path fill="none" stroke="black" d="M1069.75,-365.04C905.03,-331.38 440.13,-236.37 298.63,-207.46"/>
<polygon fill="black" stroke="black" points="299.46,-204.05 288.96,-205.48 298.06,-210.91 299.46,-204.05"/>
<text xml:space="preserve" text-anchor="middle" x="680.44" y="-288.7" font-family="Arial" font-size="14.00">1</text>
</g>
<!-- rel_searches -->
<g id="node24" class="node">
<title>rel_searches</title>
<polygon fill="none" stroke="black" points="70.25,-216 3.68,-198 70.25,-180 136.82,-198 70.25,-216"/>
<text xml:space="preserve" text-anchor="middle" x="70.25" y="-192.57" font-family="Arial" font-size="14.00">searches</text>
</g>
<!-- CONTRIBUTOR&#45;&gt;rel_searches -->
<g id="edge29" class="edge">
<title>CONTRIBUTOR&#45;&gt;rel_searches</title>
<path fill="none" stroke="black" d="M1069.86,-367.18C882.49,-335.65 298.3,-237.37 121.48,-207.62"/>
<polygon fill="black" stroke="black" points="122.12,-204.18 111.68,-205.97 120.96,-211.08 122.12,-204.18"/>
<text xml:space="preserve" text-anchor="middle" x="591.92" y="-289.85" font-family="Arial" font-size="14.00">1</text>
</g>
<!-- rel_starts -->
<g id="node25" class="node">
<title>rel_starts</title>
<polygon fill="none" stroke="black" points="2573.25,-216 2527.15,-198 2573.25,-180 2619.35,-198 2573.25,-216"/>
<text xml:space="preserve" text-anchor="middle" x="2573.25" y="-192.57" font-family="Arial" font-size="14.00">starts</text>
</g>
<!-- CONTRIBUTOR&#45;&gt;rel_starts -->
<g id="edge33" class="edge">
<title>CONTRIBUTOR&#45;&gt;rel_starts</title>
<path fill="none" stroke="black" d="M1186.82,-370.08C1447.7,-339.27 2491.25,-216 2491.25,-216 2491.25,-216 2512.3,-211.64 2533.06,-207.33"/>
<polygon fill="black" stroke="black" points="2533.55,-210.81 2542.63,-205.35 2532.12,-203.95 2533.55,-210.81"/>
<text xml:space="preserve" text-anchor="middle" x="1856.49" y="-292.99" font-family="Arial" font-size="14.00">1</text>
</g>
<!-- GUEST -->
<g id="node4" class="node">
<title>GUEST</title>
<polygon fill="none" stroke="black" points="1784.88,-396 1721.62,-396 1721.62,-360 1784.88,-360 1784.88,-396"/>
<text xml:space="preserve" text-anchor="middle" x="1753.25" y="-372.57" font-family="Arial" font-size="14.00">GUEST</text>
</g>
<!-- GUEST&#45;&gt;RECIPE -->
<!-- GUEST&#45;&gt;rel_views -->
<g id="edge21" class="edge">
<title>GUEST&#45;&gt;rel_views</title>
<path fill="none" stroke="black" d="M1784.81,-359.61C1847.7,-324.95 1987.78,-247.75 2047.93,-214.61"/>
<polygon fill="black" stroke="black" points="2049.47,-217.76 2056.53,-209.87 2046.09,-211.63 2049.47,-217.76"/>
<text xml:space="preserve" text-anchor="middle" x="1910.37" y="-289.56" font-family="Arial" font-size="14.00">M</text>
</g>
<!-- GUEST&#45;&gt;rel_searches -->
<g id="edge31" class="edge">
<title>GUEST&#45;&gt;rel_searches</title>
<path fill="none" stroke="black" d="M1721.33,-373.75C1497.59,-350.95 173.25,-216 173.25,-216 173.25,-216 147.48,-211.75 121.72,-207.49"/>
<polygon fill="black" stroke="black" points="122.3,-204.04 111.86,-205.87 121.16,-210.95 122.3,-204.04"/>
<text xml:space="preserve" text-anchor="middle" x="917.56" y="-294.68" font-family="Arial" font-size="14.00">1</text>
</g>
<!-- GUEST&#45;&gt;rel_starts -->
<g id="edge35" class="edge">
<title>GUEST&#45;&gt;rel_starts</title>
<path fill="none" stroke="black" d="M1785.14,-370.08C1913.5,-342.21 2392.16,-238.31 2533.63,-207.6"/>
<polygon fill="black" stroke="black" points="2534.24,-211.05 2543.27,-205.51 2532.76,-204.21 2534.24,-211.05"/>
<text xml:space="preserve" text-anchor="middle" x="2155.64" y="-291.29" font-family="Arial" font-size="14.00">1</text>
</g>
<!-- rel_receives -->
<g id="node22" class="node">
<title>rel_receives</title>
<polygon fill="none" stroke="black" points="440.25,-216 377.91,-198 440.25,-180 502.59,-198 440.25,-216"/>
<text xml:space="preserve" text-anchor="middle" x="440.25" y="-192.57" font-family="Arial" font-size="14.00">receives</text>
</g>
<!-- RECIPE&#45;&gt;rel_receives -->
<g id="edge25" class="edge">
<title>RECIPE&#45;&gt;rel_receives</title>
<path fill="none" stroke="black" d="M1177.88,-26.7C1054.69,-55.14 625.35,-154.27 485.01,-186.67"/>
<polygon fill="black" stroke="black" points="484.31,-183.24 475.35,-188.9 485.88,-190.06 484.31,-183.24"/>
<text xml:space="preserve" text-anchor="middle" x="827.7" y="-109.13" font-family="Arial" font-size="14.00">1</text>
</g>
<!-- REVIEW -->
<g id="node6" class="node">
<title>REVIEW</title>
<polygon fill="none" stroke="black" points="383.25,-36 313.25,-36 313.25,0 383.25,0 383.25,-36"/>
<text xml:space="preserve" text-anchor="middle" x="348.25" y="-12.57" font-family="Arial" font-size="14.00">REVIEW</text>
</g>
<!-- SEARCH_HISTORY -->
<g id="node7" class="node">
<title>SEARCH_HISTORY</title>
<polygon fill="none" stroke="black" points="140.5,-36 0,-36 0,0 140.5,0 140.5,-36"/>
<text xml:space="preserve" text-anchor="middle" x="70.25" y="-12.57" font-family="Arial" font-size="14.00">SEARCH_HISTORY</text>
</g>
<!-- SESSION -->
<g id="node8" class="node">
<title>SESSION</title>
<polygon fill="none" stroke="black" points="2611.62,-36 2534.88,-36 2534.88,0 2611.62,0 2611.62,-36"/>
<text xml:space="preserve" text-anchor="middle" x="2573.25" y="-12.57" font-family="Arial" font-size="14.00">SESSION</text>
</g>
<!-- VIEW -->
<g id="node9" class="node">
<title>VIEW</title>
<polygon fill="none" stroke="black" points="2103.25,-36 2049.25,-36 2049.25,0 2103.25,0 2103.25,-36"/>
<text xml:space="preserve" text-anchor="middle" x="2076.25" y="-12.57" font-family="Arial" font-size="14.00">VIEW</text>
</g>
<!-- rel_view_recipe -->
<g id="node21" class="node">
<title>rel_view_recipe</title>
<polygon fill="none" stroke="black" points="1865.25,-216 1772.57,-198 1865.25,-180 1957.93,-198 1865.25,-216"/>
<text xml:space="preserve" text-anchor="middle" x="1865.25" y="-192.57" font-family="Arial" font-size="14.00">viewed recipe</text>
</g>
<!-- VIEW&#45;&gt;rel_view_recipe -->
<g id="edge23" class="edge">
<title>VIEW&#45;&gt;rel_view_recipe</title>
<path fill="none" stroke="black" d="M2055.81,-36.24C2016.97,-69.01 1932.61,-140.17 1890.39,-175.79"/>
<polygon fill="black" stroke="black" points="1888.35,-172.93 1882.96,-182.06 1892.86,-178.28 1888.35,-172.93"/>
<text xml:space="preserve" text-anchor="middle" x="1968.22" y="-108.47" font-family="Arial" font-size="14.00">N</text>
</g>
<!-- STATS_DASHBOARD -->
<g id="node10" class="node">
<title>STATS_DASHBOARD</title>
<polygon fill="none" stroke="black" points="4396.12,-36 4244.38,-36 4244.38,0 4396.12,0 4396.12,-36"/>
<text xml:space="preserve" text-anchor="middle" x="4320.25" y="-12.57" font-family="Arial" font-size="14.00">STATS_DASHBOARD</text>
</g>
<!-- rel_retrieves_user -->
<g id="node26" class="node">
<title>rel_retrieves_user</title>
<polygon fill="none" stroke="black" points="5405.25,-396 5285.05,-378 5405.25,-360 5525.45,-378 5405.25,-396"/>
<text xml:space="preserve" text-anchor="middle" x="5405.25" y="-372.57" font-family="Arial" font-size="14.00">retrieves user data</text>
</g>
<!-- STATS_DASHBOARD&#45;&gt;rel_retrieves_user -->
<g id="edge46" class="edge">
<title>STATS_DASHBOARD&#45;&gt;rel_retrieves_user</title>
<path fill="none" stroke="black" d="M4396.44,-28.29C4677.54,-62.58 5640.25,-180 5640.25,-180 5640.25,-180 5640.25,-216 5640.25,-216 5640.25,-216 5499.12,-312.69 5435.6,-356.21"/>
<polygon fill="black" stroke="black" points="5433.62,-353.32 5427.35,-361.86 5437.58,-359.09 5433.62,-353.32"/>
<text xml:space="preserve" text-anchor="middle" x="5155.59" y="-123.79" font-family="Arial" font-size="14.00">1</text>
</g>
<!-- rel_retrieves_recipe -->
<g id="node27" class="node">
<title>rel_retrieves_recipe</title>
<polygon fill="none" stroke="black" points="2325.25,-216 2195.17,-198 2325.25,-180 2455.33,-198 2325.25,-216"/>
<text xml:space="preserve" text-anchor="middle" x="2325.25" y="-192.57" font-family="Arial" font-size="14.00">retrieves recipe data</text>
</g>
<!-- STATS_DASHBOARD&#45;&gt;rel_retrieves_recipe -->
<g id="edge48" class="edge">
<title>STATS_DASHBOARD&#45;&gt;rel_retrieves_recipe</title>
<path fill="none" stroke="black" d="M4243.99,-25.71C3897.84,-56.18 2491.25,-180 2491.25,-180 2491.25,-180 2450.19,-184.21 2408.91,-188.43"/>
<polygon fill="black" stroke="black" points="2408.67,-184.94 2399.08,-189.44 2409.39,-191.9 2408.67,-184.94"/>
<text xml:space="preserve" text-anchor="middle" x="3322.64" y="-108.94" font-family="Arial" font-size="14.00">1</text>
</g>
<!-- rel_retrieves_session -->
<g id="node28" class="node">
<title>rel_retrieves_session</title>
<polygon fill="none" stroke="black" points="3143.25,-216 3004.7,-198 3143.25,-180 3281.8,-198 3143.25,-216"/>
<text xml:space="preserve" text-anchor="middle" x="3143.25" y="-192.57" font-family="Arial" font-size="14.00">retrieves session data</text>
</g>
<!-- STATS_DASHBOARD&#45;&gt;rel_retrieves_session -->
<g id="edge50" class="edge">
<title>STATS_DASHBOARD&#45;&gt;rel_retrieves_session</title>
<path fill="none" stroke="black" d="M4244.09,-30.52C4030.32,-62.85 3426.65,-154.14 3216.48,-185.93"/>
<polygon fill="black" stroke="black" points="3216.15,-182.44 3206.78,-187.39 3217.19,-189.36 3216.15,-182.44"/>
<text xml:space="preserve" text-anchor="middle" x="3726.54" y="-110.67" font-family="Arial" font-size="14.00">1</text>
</g>
<!-- rel_retrieves_view -->
<g id="node29" class="node">
<title>rel_retrieves_view</title>
<polygon fill="none" stroke="black" points="2812.25,-216 2691.34,-198 2812.25,-180 2933.16,-198 2812.25,-216"/>
<text xml:space="preserve" text-anchor="middle" x="2812.25" y="-192.57" font-family="Arial" font-size="14.00">retrieves view data</text>
</g>
<!-- STATS_DASHBOARD&#45;&gt;rel_retrieves_view -->
<g id="edge52" class="edge">
<title>STATS_DASHBOARD&#45;&gt;rel_retrieves_view</title>
<path fill="none" stroke="black" d="M4243.93,-28.01C3985.77,-58.48 3146.96,-157.49 2888.66,-187.98"/>
<polygon fill="black" stroke="black" points="2888.55,-184.47 2879.03,-189.12 2889.38,-191.42 2888.55,-184.47"/>
<text xml:space="preserve" text-anchor="middle" x="3562.55" y="-110.44" font-family="Arial" font-size="14.00">1</text>
</g>
<!-- rel_tracks_activity -->
<g id="node30" class="node">
<title>rel_tracks_activity</title>
<polygon fill="none" stroke="black" points="3253.25,-576 3161.98,-558 3253.25,-540 3344.52,-558 3253.25,-576"/>
<text xml:space="preserve" text-anchor="middle" x="3253.25" y="-552.58" font-family="Arial" font-size="14.00">tracks activity</text>
</g>
<!-- STATS_DASHBOARD&#45;&gt;rel_tracks_activity -->
<g id="edge54" class="edge">
<title>STATS_DASHBOARD&#45;&gt;rel_tracks_activity</title>
<path fill="none" stroke="black" d="M4354.15,-36.38C4435.35,-78.01 4634.25,-180 4634.25,-180 4634.25,-180 4634.25,-216 4634.25,-216 4634.25,-216 3550.66,-483.56 3303.17,-544.67"/>
<polygon fill="black" stroke="black" points="3302.69,-541.19 3293.83,-546.98 3304.37,-547.98 3302.69,-541.19"/>
<text xml:space="preserve" text-anchor="middle" x="4135.23" y="-340.74" font-family="Arial" font-size="14.00">1</text>
</g>
<!-- stat_0 -->
<g id="node31" class="node">
<title>stat_0</title>
<ellipse fill="none" stroke="black" cx="5080.25" cy="-198" rx="55.55" ry="18"/>
<text xml:space="preserve" text-anchor="middle" x="5080.25" y="-192.57" font-family="Arial" font-size="14.00">Total Users</text>
</g>
<!-- STATS_DASHBOARD&#45;&gt;stat_0 -->
<g id="edge37" class="edge">
<title>STATS_DASHBOARD&#45;&gt;stat_0</title>
<path fill="none" stroke="black" d="M4394.81,-36.46C4547.05,-72.12 4890.54,-152.57 5024.9,-184.04"/>
<polygon fill="black" stroke="black" points="5024.1,-187.44 5034.63,-186.32 5025.69,-180.63 5024.1,-187.44"/>
</g>
<!-- stat_1 -->
<g id="node32" class="node">
<title>stat_1</title>
<ellipse fill="none" stroke="black" cx="5289.25" cy="-198" rx="81" ry="18"/>
<text xml:space="preserve" text-anchor="middle" x="5289.25" y="-192.57" font-family="Arial" font-size="14.00">New Users Today</text>
</g>
<!-- STATS_DASHBOARD&#45;&gt;stat_1 -->
<g id="edge38" class="edge">
<title>STATS_DASHBOARD&#45;&gt;stat_1</title>
<path fill="none" stroke="black" d="M4396.46,-33C4578.94,-66.52 5039.01,-151.03 5217.2,-183.76"/>
<polygon fill="black" stroke="black" points="5216.31,-187.16 5226.78,-185.52 5217.58,-180.28 5216.31,-187.16"/>
</g>
<!-- stat_2 -->
<g id="node33" class="node">
<title>stat_2</title>
<ellipse fill="none" stroke="black" cx="5523.25" cy="-198" rx="81" ry="18"/>
<text xml:space="preserve" text-anchor="middle" x="5523.25" y="-192.57" font-family="Arial" font-size="14.00">Total Contributors</text>
</g>
<!-- STATS_DASHBOARD&#45;&gt;stat_2 -->
<g id="edge39" class="edge">
<title>STATS_DASHBOARD&#45;&gt;stat_2</title>
<path fill="none" stroke="black" d="M4396.41,-30.27C4612.61,-62.26 5228.47,-153.38 5446,-185.57"/>
<polygon fill="black" stroke="black" points="5445.39,-189.02 5455.79,-187.02 5446.41,-182.09 5445.39,-189.02"/>
</g>
<!-- stat_3 -->
<g id="node34" class="node">
<title>stat_3</title>
<ellipse fill="none" stroke="black" cx="5928.25" cy="-198" rx="106.45" ry="18"/>
<text xml:space="preserve" text-anchor="middle" x="5928.25" y="-192.57" font-family="Arial" font-size="14.00">New Contributors Today</text>
</g>
<!-- STATS_DASHBOARD&#45;&gt;stat_3 -->
<g id="edge40" class="edge">
<title>STATS_DASHBOARD&#45;&gt;stat_3</title>
<path fill="none" stroke="black" d="M4396.52,-27.44C4660.4,-56.65 5534.58,-153.42 5829.84,-186.11"/>
<polygon fill="black" stroke="black" points="5829.11,-189.55 5839.44,-187.17 5829.88,-182.59 5829.11,-189.55"/>
</g>
<!-- stat_4 -->
<g id="node35" class="node">
<title>stat_4</title>
<ellipse fill="none" stroke="black" cx="3439.25" cy="-198" rx="85" ry="18"/>
<text xml:space="preserve" text-anchor="middle" x="3439.25" y="-192.57" font-family="Arial" font-size="14.00">Published Recipes</text>
</g>
<!-- STATS_DASHBOARD&#45;&gt;stat_4 -->
<g id="edge41" class="edge">
<title>STATS_DASHBOARD&#45;&gt;stat_4</title>
<path fill="none" stroke="black" d="M4244.07,-34.39C4075.57,-68.44 3673.31,-149.71 3509.99,-182.71"/>
<polygon fill="black" stroke="black" points="3509.7,-179.19 3500.6,-184.61 3511.09,-186.06 3509.7,-179.19"/>
</g>
<!-- stat_5 -->
<g id="node36" class="node">
<title>stat_5</title>
<ellipse fill="none" stroke="black" cx="3675.25" cy="-198" rx="78.51" ry="18"/>
<text xml:space="preserve" text-anchor="middle" x="3675.25" y="-192.57" font-family="Arial" font-size="14.00">Pending Recipes</text>
</g>
<!-- STATS_DASHBOARD&#45;&gt;stat_5 -->
<g id="edge42" class="edge">
<title>STATS_DASHBOARD&#45;&gt;stat_5</title>
<path fill="none" stroke="black" d="M4257.28,-36.38C4132.79,-70.73 3856.72,-146.92 3734.94,-180.53"/>
<polygon fill="black" stroke="black" points="3734.16,-177.11 3725.45,-183.15 3736.02,-183.86 3734.16,-177.11"/>
</g>
<!-- stat_6 -->
<g id="node37" class="node">
<title>stat_6</title>
<ellipse fill="none" stroke="black" cx="3883.25" cy="-198" rx="57.05" ry="18"/>
<text xml:space="preserve" text-anchor="middle" x="3883.25" y="-192.57" font-family="Arial" font-size="14.00">Daily Views</text>
</g>
<!-- STATS_DASHBOARD&#45;&gt;stat_6 -->
<g id="edge43" class="edge">
<title>STATS_DASHBOARD&#45;&gt;stat_6</title>
<path fill="none" stroke="black" d="M4277.49,-36.42C4194.44,-70.25 4012.07,-144.53 3927.69,-178.9"/>
<polygon fill="black" stroke="black" points="3926.52,-175.6 3918.58,-182.61 3929.16,-182.08 3926.52,-175.6"/>
</g>
<!-- stat_7 -->
<g id="node38" class="node">
<title>stat_7</title>
<ellipse fill="none" stroke="black" cx="4095.25" cy="-198" rx="83" ry="18"/>
<text xml:space="preserve" text-anchor="middle" x="4095.25" y="-192.57" font-family="Arial" font-size="14.00">Daily Active Users</text>
</g>
<!-- STATS_DASHBOARD&#45;&gt;stat_7 -->
<g id="edge44" class="edge">
<title>STATS_DASHBOARD&#45;&gt;stat_7</title>
<path fill="none" stroke="black" d="M4298.31,-36.35C4257.81,-68.4 4171.23,-136.89 4125.3,-173.23"/>
<polygon fill="black" stroke="black" points="4123.28,-170.37 4117.6,-179.32 4127.62,-175.86 4123.28,-170.37"/>
</g>
<!-- stat_8 -->
<g id="node39" class="node">
<title>stat_8</title>
<ellipse fill="none" stroke="black" cx="4320.25" cy="-198" rx="69.53" ry="18"/>
<text xml:space="preserve" text-anchor="middle" x="4320.25" y="-192.57" font-family="Arial" font-size="14.00">Recent Activity</text>
</g>
<!-- STATS_DASHBOARD&#45;&gt;stat_8 -->
<g id="edge45" class="edge">
<title>STATS_DASHBOARD&#45;&gt;stat_8</title>
<path fill="none" stroke="black" d="M4320.25,-36.46C4320.25,-67.22 4320.25,-131.32 4320.25,-168.54"/>
<polygon fill="black" stroke="black" points="4316.75,-168.09 4320.25,-178.09 4323.75,-168.1 4316.75,-168.09"/>
</g>
<!-- rel_creates&#45;&gt;RECIPE -->
<g id="edge2" class="edge">
<title>rel_creates&#45;&gt;RECIPE</title>
<path fill="none" stroke="black" d="M1135.33,-181.82C1149.28,-151.9 1180.51,-84.92 1198.27,-46.84"/>
<polygon fill="black" stroke="black" points="1201.41,-48.39 1202.46,-37.85 1195.06,-45.43 1201.41,-48.39"/>
<text xml:space="preserve" text-anchor="middle" x="1161.92" y="-116.78" font-family="Arial" font-size="14.00">N</text>
</g>
<!-- rel_is_admin&#45;&gt;ADMIN -->
<g id="edge4" class="edge">
<title>rel_is_admin&#45;&gt;ADMIN</title>
<path fill="none" stroke="black" d="M1934.75,-546.66C1919.42,-519.86 1917.15,-447.43 1927.92,-407.09"/>
<polygon fill="black" stroke="black" points="1931.17,-408.43 1930.94,-397.83 1924.51,-406.26 1931.17,-408.43"/>
<text xml:space="preserve" text-anchor="middle" x="1920.09" y="-479.33" font-family="Arial" font-size="14.00">0..1</text>
</g>
<!-- rel_is_admin&#45;&gt;ADMIN -->
<!-- rel_is_contributor&#45;&gt;CONTRIBUTOR -->
<g id="edge6" class="edge">
<title>rel_is_contributor&#45;&gt;CONTRIBUTOR</title>
<path fill="none" stroke="black" d="M1482.78,-551.28C1415.64,-528.49 1232.59,-443.4 1158.06,-401.96"/>
<polygon fill="black" stroke="black" points="1160.02,-399.05 1149.6,-397.16 1156.57,-405.14 1160.02,-399.05"/>
<text xml:space="preserve" text-anchor="middle" x="1309.17" y="-479.07" font-family="Arial" font-size="14.00">0..1</text>
</g>
<!-- rel_is_contributor&#45;&gt;CONTRIBUTOR -->
<!-- rel_is_guest&#45;&gt;GUEST -->
<g id="edge8" class="edge">
<title>rel_is_guest&#45;&gt;GUEST</title>
<path fill="none" stroke="black" d="M1739.75,-546.66C1724.42,-519.86 1722.15,-447.43 1732.92,-407.09"/>
<polygon fill="black" stroke="black" points="1736.17,-408.43 1735.94,-397.83 1729.51,-406.26 1736.17,-408.43"/>
<text xml:space="preserve" text-anchor="middle" x="1725.09" y="-479.33" font-family="Arial" font-size="14.00">0..1</text>
</g>
<!-- rel_is_guest&#45;&gt;GUEST -->
<!-- rel_moderates&#45;&gt;RECIPE -->
<g id="edge10" class="edge">
<title>rel_moderates&#45;&gt;RECIPE</title>
<path fill="none" stroke="black" d="M1599.04,-185.73C1529.75,-155.94 1341.17,-74.86 1255.12,-37.86"/>
<polygon fill="black" stroke="black" points="1256.62,-34.7 1246.05,-33.96 1253.85,-41.13 1256.62,-34.7"/>
<text xml:space="preserve" text-anchor="middle" x="1422.2" y="-114.25" font-family="Arial" font-size="14.00">N</text>
</g>
<!-- rel_manages&#45;&gt;USER -->
<g id="edge12" class="edge">
<title>rel_manages&#45;&gt;USER</title>
<path fill="none" stroke="black" d="M4850.37,-207.49C4627.48,-263.36 3380.25,-576 3380.25,-576 3380.25,-576 2215.6,-706.94 1986.94,-732.65"/>
<polygon fill="black" stroke="black" points="1986.63,-729.16 1977.08,-733.76 1987.41,-736.12 1986.63,-729.16"/>
<text xml:space="preserve" text-anchor="middle" x="3430.43" y="-564.65" font-family="Arial" font-size="14.00">N</text>
</g>
<!-- rel_accesses_dashboard&#45;&gt;STATS_DASHBOARD -->
<g id="edge14" class="edge">
<title>rel_accesses_dashboard&#45;&gt;STATS_DASHBOARD</title>
<path fill="none" stroke="black" d="M4514.81,-183.91C4479.98,-154.39 4394.84,-82.23 4349.61,-43.89"/>
<polygon fill="black" stroke="black" points="4351.91,-41.25 4342.02,-37.45 4347.38,-46.59 4351.91,-41.25"/>
<text xml:space="preserve" text-anchor="middle" x="4428.46" y="-116.35" font-family="Arial" font-size="14.00">1</text>
</g>
<!-- rel_favorites&#45;&gt;RECIPE -->
<g id="edge16" class="edge">
<title>rel_favorites&#45;&gt;RECIPE</title>
<path fill="none" stroke="black" d="M666.5,-187.93C760.37,-158.82 1054.41,-67.64 1166.89,-32.76"/>
<polygon fill="black" stroke="black" points="1167.86,-36.12 1176.37,-29.82 1165.79,-29.43 1167.86,-36.12"/>
<text xml:space="preserve" text-anchor="middle" x="910.7" y="-112.79" font-family="Arial" font-size="14.00">M</text>
</g>
<!-- rel_likes&#45;&gt;RECIPE -->
<g id="edge18" class="edge">
<title>rel_likes&#45;&gt;RECIPE</title>
<path fill="none" stroke="black" d="M832.72,-188.29C893.55,-161.08 1081.19,-77.17 1167.27,-38.67"/>
<polygon fill="black" stroke="black" points="1168.66,-41.88 1176.36,-34.61 1165.8,-35.49 1168.66,-41.88"/>
<text xml:space="preserve" text-anchor="middle" x="993.99" y="-115.93" font-family="Arial" font-size="14.00">M</text>
</g>
<!-- rel_views&#45;&gt;VIEW -->
<g id="edge20" class="edge">
<title>rel_views&#45;&gt;VIEW</title>
<path fill="none" stroke="black" d="M2061.87,-185.04C2047.36,-157.09 2045.36,-86.84 2055.88,-47.26"/>
<polygon fill="black" stroke="black" points="2059.15,-48.53 2058.9,-37.94 2052.49,-46.38 2059.15,-48.53"/>
<text xml:space="preserve" text-anchor="middle" x="2054" y="-118.6" font-family="Arial" font-size="14.00">N</text>
</g>
<!-- rel_views&#45;&gt;VIEW -->
<g id="edge22" class="edge">
<title>rel_views&#45;&gt;VIEW</title>
<path fill="none" stroke="black" d="M2090.63,-185.04C2105.14,-157.09 2107.14,-86.84 2096.62,-47.26"/>
<polygon fill="black" stroke="black" points="2100.01,-46.38 2093.6,-37.94 2093.35,-48.53 2100.01,-46.38"/>
<text xml:space="preserve" text-anchor="middle" x="2088.75" y="-118.6" font-family="Arial" font-size="14.00">N</text>
</g>
<!-- rel_view_recipe&#45;&gt;RECIPE -->
<g id="edge24" class="edge">
<title>rel_view_recipe&#45;&gt;RECIPE</title>
<path fill="none" stroke="black" d="M1827.74,-186.79C1714.68,-156.02 1377.51,-64.25 1255.74,-31.11"/>
<polygon fill="black" stroke="black" points="1256.67,-27.74 1246.1,-28.49 1254.83,-34.49 1256.67,-27.74"/>
<text xml:space="preserve" text-anchor="middle" x="1537.99" y="-111.4" font-family="Arial" font-size="14.00">1</text>
</g>
<!-- rel_receives&#45;&gt;REVIEW -->
<g id="edge26" class="edge">
<title>rel_receives&#45;&gt;REVIEW</title>
<path fill="none" stroke="black" d="M432.41,-181.82C416.88,-151.78 382.02,-84.34 362.39,-46.35"/>
<polygon fill="black" stroke="black" points="365.68,-45.1 357.98,-37.82 359.46,-48.31 365.68,-45.1"/>
<text xml:space="preserve" text-anchor="middle" x="392.52" y="-116.54" font-family="Arial" font-size="14.00">N</text>
</g>
<!-- rel_writes&#45;&gt;REVIEW -->
<g id="edge28" class="edge">
<title>rel_writes&#45;&gt;REVIEW</title>
<path fill="none" stroke="black" d="M264.7,-182.43C279.91,-152.68 314.75,-84.53 334.3,-46.29"/>
<polygon fill="black" stroke="black" points="337.25,-48.21 338.69,-37.71 331.02,-45.02 337.25,-48.21"/>
<text xml:space="preserve" text-anchor="middle" x="294.62" y="-116.81" font-family="Arial" font-size="14.00">N</text>
</g>
<!-- rel_searches&#45;&gt;SEARCH_HISTORY -->
<g id="edge30" class="edge">
<title>rel_searches&#45;&gt;SEARCH_HISTORY</title>
<path fill="none" stroke="black" d="M55.16,-183.62C41.26,-154.7 39.53,-85.84 49.96,-46.97"/>
<polygon fill="black" stroke="black" points="53.16,-48.43 52.93,-37.83 46.51,-46.26 53.16,-48.43"/>
<text xml:space="preserve" text-anchor="middle" x="47.68" y="-117.74" font-family="Arial" font-size="14.00">N</text>
</g>
<!-- rel_searches&#45;&gt;SEARCH_HISTORY -->
<g id="edge32" class="edge">
<title>rel_searches&#45;&gt;SEARCH_HISTORY</title>
<path fill="none" stroke="black" d="M85.34,-183.62C99.24,-154.7 100.97,-85.84 90.54,-46.97"/>
<polygon fill="black" stroke="black" points="93.99,-46.26 87.57,-37.83 87.34,-48.43 93.99,-46.26"/>
<text xml:space="preserve" text-anchor="middle" x="83.07" y="-117.74" font-family="Arial" font-size="14.00">N</text>
</g>
<!-- rel_starts&#45;&gt;SESSION -->
<g id="edge34" class="edge">
<title>rel_starts&#45;&gt;SESSION</title>
<path fill="none" stroke="black" d="M2559.01,-185.32C2544.35,-157.51 2542.32,-86.75 2552.93,-47.07"/>
<polygon fill="black" stroke="black" points="2556.2,-48.33 2555.97,-37.74 2549.55,-46.16 2556.2,-48.33"/>
<text xml:space="preserve" text-anchor="middle" x="2551.1" y="-118.65" font-family="Arial" font-size="14.00">N</text>
</g>
<!-- rel_starts&#45;&gt;SESSION -->
<g id="edge36" class="edge">
<title>rel_starts&#45;&gt;SESSION</title>
<path fill="none" stroke="black" d="M2587.49,-185.32C2602.15,-157.51 2604.18,-86.75 2593.57,-47.07"/>
<polygon fill="black" stroke="black" points="2596.95,-46.16 2590.53,-37.74 2590.3,-48.33 2596.95,-46.16"/>
<text xml:space="preserve" text-anchor="middle" x="2585.65" y="-118.65" font-family="Arial" font-size="14.00">N</text>
</g>
<!-- rel_retrieves_user&#45;&gt;USER -->
<g id="edge47" class="edge">
<title>rel_retrieves_user&#45;&gt;USER</title>
<path fill="none" stroke="black" d="M5374,-391.77C5267.19,-435.43 4923.25,-576 4923.25,-576 4923.25,-576 2334.73,-716.08 1986.76,-734.92"/>
<polygon fill="black" stroke="black" points="1986.65,-731.42 1976.85,-735.45 1987.02,-738.41 1986.65,-731.42"/>
<text xml:space="preserve" text-anchor="middle" x="3693.25" y="-644.75" font-family="Arial" font-size="14.00">N</text>
</g>
<!-- rel_retrieves_recipe&#45;&gt;RECIPE -->
<g id="edge49" class="edge">
<title>rel_retrieves_recipe&#45;&gt;RECIPE</title>
<path fill="none" stroke="black" d="M2266.92,-187.68C2069.88,-156.2 1431.48,-54.19 1256.16,-26.18"/>
<polygon fill="black" stroke="black" points="1256.74,-22.72 1246.31,-24.6 1255.63,-29.64 1256.74,-22.72"/>
<text xml:space="preserve" text-anchor="middle" x="1756.67" y="-109.38" font-family="Arial" font-size="14.00">N</text>
</g>
<!-- rel_retrieves_session&#45;&gt;SESSION -->
<g id="edge51" class="edge">
<title>rel_retrieves_session&#45;&gt;SESSION</title>
<path fill="none" stroke="black" d="M3104.07,-184.77C3003.16,-153.25 2734.43,-69.33 2622.87,-34.5"/>
<polygon fill="black" stroke="black" points="2623.98,-31.18 2613.39,-31.54 2621.9,-37.86 2623.98,-31.18"/>
<text xml:space="preserve" text-anchor="middle" x="2858.6" y="-112.08" font-family="Arial" font-size="14.00">N</text>
</g>
<!-- rel_retrieves_view&#45;&gt;VIEW -->
<g id="edge53" class="edge">
<title>rel_retrieves_view&#45;&gt;VIEW</title>
<path fill="none" stroke="black" d="M2767.59,-186.2C2633.95,-153.88 2238.72,-58.29 2114.24,-28.19"/>
<polygon fill="black" stroke="black" points="2115.4,-24.87 2104.86,-25.92 2113.76,-31.67 2115.4,-24.87"/>
<text xml:space="preserve" text-anchor="middle" x="2436.04" y="-109.64" font-family="Arial" font-size="14.00">N</text>
</g>
<!-- rel_tracks_activity&#45;&gt;ADMIN -->
<g id="edge55" class="edge">
<title>rel_tracks_activity&#45;&gt;ADMIN</title>
<path fill="none" stroke="black" d="M3200.88,-549.86C2987.13,-520.7 2182.92,-411.01 1990.02,-384.7"/>
<polygon fill="black" stroke="black" points="1990.6,-381.24 1980.22,-383.36 1989.66,-388.18 1990.6,-381.24"/>
<text xml:space="preserve" text-anchor="middle" x="2590.58" y="-469.73" font-family="Arial" font-size="14.00">N</text>
</g>
</g>
</svg>
