<?xml version="1.0" encoding="UTF-8" standalone="no"?>
<!DOCTYPE svg PUBLIC "-//W3C//DTD SVG 1.1//EN"
 "http://www.w3.org/Graphics/SVG/1.1/DTD/svg11.dtd">
<!-- Generated by graphviz version 14.1.1 (20251213.1925)
 -->
<!-- Title: ERDRecipeConceptual Pages: 1 -->
<svg width="2908pt" height="764pt"
 viewBox="0.00 0.00 2908.00 764.00" xmlns="http://www.w3.org/2000/svg" xmlns:xlink="http://www.w3.org/1999/xlink">
<g id="graph0" class="graph" transform="scale(1 1) rotate(0) translate(4 760)">
<title>ERDRecipeConceptual</title>
<polygon fill="white" stroke="none" points="-4,4 -4,-760 2904.11,-760 2904.11,4 -4,4"/>
<!-- USER -->
<g id="node1" class="node">
<title>USER</title>
<polygon fill="none" stroke="black" points="565.98,-756 511.98,-756 511.98,-720 565.98,-720 565.98,-756"/>
<text xml:space="preserve" text-anchor="middle" x="538.98" y="-732.58" font-family="Arial" font-size="14.00">USER</text>
</g>
<!-- rel_is_admin -->
<g id="node12" class="node">
<title>rel_is_admin</title>
<polygon fill="none" stroke="black" points="538.98,-576 504.17,-558 538.98,-540 573.79,-558 538.98,-576"/>
<text xml:space="preserve" text-anchor="middle" x="538.98" y="-552.58" font-family="Arial" font-size="14.00">is a</text>
</g>
<!-- USER&#45;&gt;rel_is_admin -->
<g id="edge3" class="edge">
<title>USER&#45;&gt;rel_is_admin</title>
<path fill="none" stroke="black" d="M522.14,-719.61C509.01,-686.6 508.61,-615.01 520.93,-579.63"/>
<polygon fill="black" stroke="black" points="524.12,-581.08 524.98,-570.52 517.72,-578.23 524.12,-581.08"/>
<text xml:space="preserve" text-anchor="middle" x="517.78" y="-652.07" font-family="Arial" font-size="14.00">1</text>
</g>
<!-- USER&#45;&gt;rel_is_admin -->
<!-- rel_is_contributor -->
<g id="node13" class="node">
<title>rel_is_contributor</title>
<polygon fill="none" stroke="black" points="835.98,-576 801.17,-558 835.98,-540 870.79,-558 835.98,-576"/>
<text xml:space="preserve" text-anchor="middle" x="835.98" y="-552.58" font-family="Arial" font-size="14.00">is a</text>
</g>
<!-- USER&#45;&gt;rel_is_contributor -->
<g id="edge5" class="edge">
<title>USER&#45;&gt;rel_is_contributor</title>
<path fill="none" stroke="black" d="M566.39,-720.57C623.73,-686.21 755.58,-607.19 810.87,-574.05"/>
<polygon fill="black" stroke="black" points="812.48,-577.16 819.26,-569.02 808.89,-571.16 812.48,-577.16"/>
<text xml:space="preserve" text-anchor="middle" x="684.88" y="-649.76" font-family="Arial" font-size="14.00">1</text>
</g>
<!-- rel_is_guest -->
<g id="node14" class="node">
<title>rel_is_guest</title>
<polygon fill="none" stroke="black" points="1195.98,-576 1161.17,-558 1195.98,-540 1230.79,-558 1195.98,-576"/>
<text xml:space="preserve" text-anchor="middle" x="1195.98" y="-552.58" font-family="Arial" font-size="14.00">is a</text>
</g>
<!-- USER&#45;&gt;rel_is_guest -->
<g id="edge7" class="edge">
<title>USER&#45;&gt;rel_is_guest</title>
<path fill="none" stroke="black" d="M566.38,-729.58C671.44,-701.11 1048.5,-598.96 1162.87,-567.97"/>
<polygon fill="black" stroke="black" points="1163.5,-571.43 1172.24,-565.43 1161.67,-564.67 1163.5,-571.43"/>
<text xml:space="preserve" text-anchor="middle" x="860.87" y="-651.23" font-family="Arial" font-size="14.00">1</text>
</g>
<!-- ADMIN -->
<g id="node2" class="node">
<title>ADMIN</title>
<polygon fill="none" stroke="black" points="569.11,-396 508.86,-396 508.86,-360 569.11,-360 569.11,-396"/>
<text xml:space="preserve" text-anchor="middle" x="538.98" y="-372.57" font-family="Arial" font-size="14.00">ADMIN</text>
</g>
<!-- RECIPE -->
<g id="node5" class="node">
<title>RECIPE</title>
<polygon fill="none" stroke="black" points="1184.11,-36 1117.86,-36 1117.86,0 1184.11,0 1184.11,-36"/>
<text xml:space="preserve" text-anchor="middle" x="1150.98" y="-12.57" font-family="Arial" font-size="14.00">RECIPE</text>
</g>
<!-- ADMIN&#45;&gt;RECIPE -->
<!-- ADMIN&#45;&gt;rel_is_contributor -->
<!-- rel_moderates -->
<g id="node15" class="node">
<title>rel_moderates</title>
<polygon fill="none" stroke="black" points="429.98,-216 354.24,-198 429.98,-180 505.72,-198 429.98,-216"/>
<text xml:space="preserve" text-anchor="middle" x="429.98" y="-192.57" font-family="Arial" font-size="14.00">moderates</text>
</g>
<!-- ADMIN&#45;&gt;rel_moderates -->
<g id="edge9" class="edge">
<title>ADMIN&#45;&gt;rel_moderates</title>
<path fill="none" stroke="black" d="M528.33,-359.61C508.84,-327.78 467.4,-260.1 445.03,-223.58"/>
<polygon fill="black" stroke="black" points="448.26,-222.15 440.06,-215.45 442.29,-225.81 448.26,-222.15"/>
<text xml:space="preserve" text-anchor="middle" x="482.93" y="-294.04" font-family="Arial" font-size="14.00">1</text>
</g>
<!-- rel_manages -->
<g id="node16" class="node">
<title>rel_manages</title>
<polygon fill="none" stroke="black" points="67.98,-216 0,-198 67.98,-180 135.96,-198 67.98,-216"/>
<text xml:space="preserve" text-anchor="middle" x="67.98" y="-192.57" font-family="Arial" font-size="14.00">manages</text>
</g>
<!-- ADMIN&#45;&gt;rel_manages -->
<g id="edge11" class="edge">
<title>ADMIN&#45;&gt;rel_manages</title>
<path fill="none" stroke="black" d="M508.44,-365.46C425.57,-334.14 196.6,-247.61 105.79,-213.29"/>
<polygon fill="black" stroke="black" points="107.18,-210.07 96.59,-209.81 104.71,-216.62 107.18,-210.07"/>
<text xml:space="preserve" text-anchor="middle" x="303.37" y="-291.82" font-family="Arial" font-size="14.00">1</text>
</g>
<!-- rel_views_stats -->
<g id="node17" class="node">
<title>rel_views_stats</title>
<polygon fill="none" stroke="black" points="2273.98,-216 2196.83,-198 2273.98,-180 2351.14,-198 2273.98,-216"/>
<text xml:space="preserve" text-anchor="middle" x="2273.98" y="-192.57" font-family="Arial" font-size="14.00">views stats</text>
</g>
<!-- ADMIN&#45;&gt;rel_views_stats -->
<g id="edge13" class="edge">
<title>ADMIN&#45;&gt;rel_views_stats</title>
<path fill="none" stroke="black" d="M569.56,-373.96C792.56,-351.81 2159.98,-216 2159.98,-216 2159.98,-216 2188.48,-211.75 2216.99,-207.5"/>
<polygon fill="black" stroke="black" points="2217.4,-210.98 2226.77,-206.04 2216.37,-204.05 2217.4,-210.98"/>
<text xml:space="preserve" text-anchor="middle" x="1389.7" y="-294.58" font-family="Arial" font-size="14.00">1</text>
</g>
<!-- CONTRIBUTOR -->
<g id="node3" class="node">
<title>CONTRIBUTOR</title>
<polygon fill="none" stroke="black" points="1239.23,-396 1122.73,-396 1122.73,-360 1239.23,-360 1239.23,-396"/>
<text xml:space="preserve" text-anchor="middle" x="1180.98" y="-372.57" font-family="Arial" font-size="14.00">CONTRIBUTOR</text>
</g>
<!-- CONTRIBUTOR&#45;&gt;RECIPE -->
<!-- rel_creates -->
<g id="node11" class="node">
<title>rel_creates</title>
<polygon fill="none" stroke="black" points="633.98,-216 577.29,-198 633.98,-180 690.67,-198 633.98,-216"/>
<text xml:space="preserve" text-anchor="middle" x="633.98" y="-192.57" font-family="Arial" font-size="14.00">creates</text>
</g>
<!-- CONTRIBUTOR&#45;&gt;rel_creates -->
<g id="edge1" class="edge">
<title>CONTRIBUTOR&#45;&gt;rel_creates</title>
<path fill="none" stroke="black" d="M1127.29,-359.53C1016.97,-323.63 767.18,-242.34 671.89,-211.33"/>
<polygon fill="black" stroke="black" points="673.08,-208.04 662.49,-208.28 670.92,-214.7 673.08,-208.04"/>
<text xml:space="preserve" text-anchor="middle" x="895.84" y="-287.88" font-family="Arial" font-size="14.00">1</text>
</g>
<!-- CONTRIBUTOR&#45;&gt;rel_is_guest -->
<!-- rel_favorites -->
<g id="node18" class="node">
<title>rel_favorites</title>
<polygon fill="none" stroke="black" points="825.98,-216 762.94,-198 825.98,-180 889.02,-198 825.98,-216"/>
<text xml:space="preserve" text-anchor="middle" x="825.98" y="-192.57" font-family="Arial" font-size="14.00">favorites</text>
</g>
<!-- CONTRIBUTOR&#45;&gt;rel_favorites -->
<g id="edge15" class="edge">
<title>CONTRIBUTOR&#45;&gt;rel_favorites</title>
<path fill="none" stroke="black" d="M1146.3,-359.61C1077.4,-325.07 924.25,-248.27 857.78,-214.95"/>
<polygon fill="black" stroke="black" points="859.75,-212.02 849.24,-210.66 856.61,-218.27 859.75,-212.02"/>
<text xml:space="preserve" text-anchor="middle" x="996.04" y="-289.73" font-family="Arial" font-size="14.00">M</text>
</g>
<!-- rel_likes -->
<g id="node19" class="node">
<title>rel_likes</title>
<polygon fill="none" stroke="black" points="1001.98,-216 961.52,-198 1001.98,-180 1042.44,-198 1001.98,-216"/>
<text xml:space="preserve" text-anchor="middle" x="1001.98" y="-192.57" font-family="Arial" font-size="14.00">likes</text>
</g>
<!-- CONTRIBUTOR&#45;&gt;rel_likes -->
<g id="edge17" class="edge">
<title>CONTRIBUTOR&#45;&gt;rel_likes</title>
<path fill="none" stroke="black" d="M1163.49,-359.61C1130.08,-326.38 1057.36,-254.07 1022.04,-218.94"/>
<polygon fill="black" stroke="black" points="1024.54,-216.5 1014.98,-211.93 1019.61,-221.46 1024.54,-216.5"/>
<text xml:space="preserve" text-anchor="middle" x="1086.76" y="-291.73" font-family="Arial" font-size="14.00">M</text>
</g>
<!-- rel_views -->
<g id="node20" class="node">
<title>rel_views</title>
<polygon fill="none" stroke="black" points="1306.98,-216 1260.17,-198 1306.98,-180 1353.79,-198 1306.98,-216"/>
<text xml:space="preserve" text-anchor="middle" x="1306.98" y="-192.57" font-family="Arial" font-size="14.00">views</text>
</g>
<!-- CONTRIBUTOR&#45;&gt;rel_views -->
<g id="edge19" class="edge">
<title>CONTRIBUTOR&#45;&gt;rel_views</title>
<path fill="none" stroke="black" d="M1193.29,-359.61C1216.16,-327.3 1265.18,-258.05 1290.74,-221.95"/>
<polygon fill="black" stroke="black" points="1293.48,-224.13 1296.4,-213.94 1287.77,-220.08 1293.48,-224.13"/>
<text xml:space="preserve" text-anchor="middle" x="1236.01" y="-293.23" font-family="Arial" font-size="14.00">M</text>
</g>
<!-- rel_writes -->
<g id="node22" class="node">
<title>rel_writes</title>
<polygon fill="none" stroke="black" points="1816.98,-216 1768.76,-198 1816.98,-180 1865.2,-198 1816.98,-216"/>
<text xml:space="preserve" text-anchor="middle" x="1816.98" y="-192.57" font-family="Arial" font-size="14.00">writes</text>
</g>
<!-- CONTRIBUTOR&#45;&gt;rel_writes -->
<g id="edge25" class="edge">
<title>CONTRIBUTOR&#45;&gt;rel_writes</title>
<path fill="none" stroke="black" d="M1239.67,-360.57C1368.44,-324.53 1672.74,-239.37 1779.32,-209.54"/>
<polygon fill="black" stroke="black" points="1780.02,-212.98 1788.7,-206.91 1778.13,-206.24 1780.02,-212.98"/>
<text xml:space="preserve" text-anchor="middle" x="1505.75" y="-287.51" font-family="Arial" font-size="14.00">1</text>
</g>
<!-- rel_searches -->
<g id="node23" class="node">
<title>rel_searches</title>
<polygon fill="none" stroke="black" points="2489.98,-216 2423.41,-198 2489.98,-180 2556.55,-198 2489.98,-216"/>
<text xml:space="preserve" text-anchor="middle" x="2489.98" y="-192.57" font-family="Arial" font-size="14.00">searches</text>
</g>
<!-- CONTRIBUTOR&#45;&gt;rel_searches -->
<g id="edge27" class="edge">
<title>CONTRIBUTOR&#45;&gt;rel_searches</title>
<path fill="none" stroke="black" d="M1239.56,-369.18C1481.07,-336.94 2386.98,-216 2386.98,-216 2386.98,-216 2412.75,-211.75 2438.51,-207.49"/>
<polygon fill="black" stroke="black" points="2439.07,-210.95 2448.37,-205.87 2437.93,-204.04 2439.07,-210.95"/>
<text xml:space="preserve" text-anchor="middle" x="1835.4" y="-291.58" font-family="Arial" font-size="14.00">1</text>
</g>
<!-- rel_starts -->
<g id="node24" class="node">
<title>rel_starts</title>
<polygon fill="none" stroke="black" points="2674.98,-216 2628.88,-198 2674.98,-180 2721.09,-198 2674.98,-216"/>
<text xml:space="preserve" text-anchor="middle" x="2674.98" y="-192.57" font-family="Arial" font-size="14.00">starts</text>
</g>
<!-- CONTRIBUTOR&#45;&gt;rel_starts -->
<g id="edge31" class="edge">
<title>CONTRIBUTOR&#45;&gt;rel_starts</title>
<path fill="none" stroke="black" d="M1239.41,-370.34C1505.88,-339.95 2592.98,-216 2592.98,-216 2592.98,-216 2614.03,-211.64 2634.79,-207.33"/>
<polygon fill="black" stroke="black" points="2635.28,-210.81 2644.36,-205.35 2633.86,-203.95 2635.28,-210.81"/>
<text xml:space="preserve" text-anchor="middle" x="1933.66" y="-293.2" font-family="Arial" font-size="14.00">1</text>
</g>
<!-- GUEST -->
<g id="node4" class="node">
<title>GUEST</title>
<polygon fill="none" stroke="black" points="1433.61,-396 1370.36,-396 1370.36,-360 1433.61,-360 1433.61,-396"/>
<text xml:space="preserve" text-anchor="middle" x="1401.98" y="-372.57" font-family="Arial" font-size="14.00">GUEST</text>
</g>
<!-- GUEST&#45;&gt;RECIPE -->
<!-- GUEST&#45;&gt;rel_views -->
<g id="edge21" class="edge">
<title>GUEST&#45;&gt;rel_views</title>
<path fill="none" stroke="black" d="M1392.7,-359.61C1375.62,-327.6 1339.17,-259.32 1319.77,-222.96"/>
<polygon fill="black" stroke="black" points="1323.06,-221.69 1315.26,-214.52 1316.89,-224.99 1323.06,-221.69"/>
<text xml:space="preserve" text-anchor="middle" x="1350.23" y="-293.73" font-family="Arial" font-size="14.00">M</text>
</g>
<!-- GUEST&#45;&gt;rel_searches -->
<g id="edge29" class="edge">
<title>GUEST&#45;&gt;rel_searches</title>
<path fill="none" stroke="black" d="M1433.92,-371.78C1603.09,-344.13 2386.98,-216 2386.98,-216 2386.98,-216 2412.75,-211.75 2438.51,-207.49"/>
<polygon fill="black" stroke="black" points="2439.07,-210.95 2448.37,-205.87 2437.93,-204.04 2439.07,-210.95"/>
<text xml:space="preserve" text-anchor="middle" x="1932.47" y="-292.13" font-family="Arial" font-size="14.00">1</text>
</g>
<!-- GUEST&#45;&gt;rel_starts -->
<g id="edge33" class="edge">
<title>GUEST&#45;&gt;rel_starts</title>
<path fill="none" stroke="black" d="M1433.84,-372.69C1623.24,-347.09 2592.98,-216 2592.98,-216 2592.98,-216 2614.03,-211.64 2634.79,-207.33"/>
<polygon fill="black" stroke="black" points="2635.28,-210.81 2644.36,-205.35 2633.86,-203.95 2635.28,-210.81"/>
<text xml:space="preserve" text-anchor="middle" x="2030.82" y="-293.94" font-family="Arial" font-size="14.00">1</text>
</g>
<!-- rel_receives -->
<g id="node21" class="node">
<title>rel_receives</title>
<polygon fill="none" stroke="black" points="1633.98,-216 1571.65,-198 1633.98,-180 1696.32,-198 1633.98,-216"/>
<text xml:space="preserve" text-anchor="middle" x="1633.98" y="-192.57" font-family="Arial" font-size="14.00">receives</text>
</g>
<!-- RECIPE&#45;&gt;rel_receives -->
<g id="edge23" class="edge">
<title>RECIPE&#45;&gt;rel_receives</title>
<path fill="none" stroke="black" d="M1184.49,-31.35C1271.83,-63.54 1505.99,-149.83 1597.04,-183.39"/>
<polygon fill="black" stroke="black" points="1595.66,-186.61 1606.25,-186.78 1598.08,-180.04 1595.66,-186.61"/>
<text xml:space="preserve" text-anchor="middle" x="1387.02" y="-109.82" font-family="Arial" font-size="14.00">1</text>
</g>
<!-- REVIEW -->
<g id="node6" class="node">
<title>REVIEW</title>
<polygon fill="none" stroke="black" points="1759.98,-36 1689.98,-36 1689.98,0 1759.98,0 1759.98,-36"/>
<text xml:space="preserve" text-anchor="middle" x="1724.98" y="-12.57" font-family="Arial" font-size="14.00">REVIEW</text>
</g>
<!-- SEARCH_HISTORY -->
<g id="node7" class="node">
<title>SEARCH_HISTORY</title>
<polygon fill="none" stroke="black" points="2560.23,-36 2419.73,-36 2419.73,0 2560.23,0 2560.23,-36"/>
<text xml:space="preserve" text-anchor="middle" x="2489.98" y="-12.57" font-family="Arial" font-size="14.00">SEARCH_HISTORY</text>
</g>
<!-- ACTIVITY_LOG -->
<g id="node8" class="node">
<title>ACTIVITY_LOG</title>
<polygon fill="none" stroke="black" points="2900.11,-36 2785.86,-36 2785.86,0 2900.11,0 2900.11,-36"/>
<text xml:space="preserve" text-anchor="middle" x="2842.98" y="-12.57" font-family="Arial" font-size="14.00">ACTIVITY_LOG</text>
</g>
<!-- SESSION -->
<g id="node9" class="node">
<title>SESSION</title>
<polygon fill="none" stroke="black" points="2713.36,-36 2636.61,-36 2636.61,0 2713.36,0 2713.36,-36"/>
<text xml:space="preserve" text-anchor="middle" x="2674.98" y="-12.57" font-family="Arial" font-size="14.00">SESSION</text>
</g>
<!-- DAILY_STAT -->
<g id="node10" class="node">
<title>DAILY_STAT</title>
<polygon fill="none" stroke="black" points="2321.36,-36 2226.61,-36 2226.61,0 2321.36,0 2321.36,-36"/>
<text xml:space="preserve" text-anchor="middle" x="2273.98" y="-12.57" font-family="Arial" font-size="14.00">DAILY_STAT</text>
</g>
<!-- rel_tracks_users -->
<g id="node25" class="node">
<title>rel_tracks_users</title>
<polygon fill="none" stroke="black" points="1401.98,-576 1318.47,-558 1401.98,-540 1485.49,-558 1401.98,-576"/>
<text xml:space="preserve" text-anchor="middle" x="1401.98" y="-552.58" font-family="Arial" font-size="14.00">tracks users</text>
</g>
<!-- DAILY_STAT&#45;&gt;rel_tracks_users -->
<g id="edge35" class="edge">
<title>DAILY_STAT&#45;&gt;rel_tracks_users</title>
<path fill="none" stroke="black" d="M2321.61,-34.88C2443.47,-75.5 2756.98,-180 2756.98,-180 2756.98,-180 2756.98,-216 2756.98,-216 2756.98,-216 1691.38,-484.17 1450.14,-544.88"/>
<polygon fill="black" stroke="black" points="1449.59,-541.41 1440.75,-547.24 1451.3,-548.2 1449.59,-541.41"/>
<text xml:space="preserve" text-anchor="middle" x="2339.79" y="-322.5" font-family="Arial" font-size="14.00">1</text>
</g>
<!-- rel_tracks_recipes -->
<g id="node26" class="node">
<title>rel_tracks_recipes</title>
<polygon fill="none" stroke="black" points="2030.98,-216 1937.6,-198 2030.98,-180 2124.37,-198 2030.98,-216"/>
<text xml:space="preserve" text-anchor="middle" x="2030.98" y="-192.57" font-family="Arial" font-size="14.00">tracks recipes</text>
</g>
<!-- DAILY_STAT&#45;&gt;rel_tracks_recipes -->
<g id="edge38" class="edge">
<title>DAILY_STAT&#45;&gt;rel_tracks_recipes</title>
<path fill="none" stroke="black" d="M2250.34,-36.32C2205.23,-69.36 2107.1,-141.25 2058.87,-176.57"/>
<polygon fill="black" stroke="black" points="2056.87,-173.7 2050.87,-182.43 2061,-179.35 2056.87,-173.7"/>
<text xml:space="preserve" text-anchor="middle" x="2150.85" y="-108.9" font-family="Arial" font-size="14.00">1</text>
</g>
<!-- rel_creates&#45;&gt;RECIPE -->
<g id="edge2" class="edge">
<title>rel_creates&#45;&gt;RECIPE</title>
<path fill="none" stroke="black" d="M660.33,-187.93C743.72,-159.22 1002.46,-70.13 1106.75,-34.23"/>
<polygon fill="black" stroke="black" points="1107.77,-37.58 1116.09,-31.01 1105.49,-30.96 1107.77,-37.58"/>
<text xml:space="preserve" text-anchor="middle" x="878.67" y="-113.53" font-family="Arial" font-size="14.00">N</text>
</g>
<!-- rel_is_admin&#45;&gt;ADMIN -->
<g id="edge4" class="edge">
<title>rel_is_admin&#45;&gt;ADMIN</title>
<path fill="none" stroke="black" d="M525.48,-546.66C510.15,-519.86 507.88,-447.43 518.66,-407.09"/>
<polygon fill="black" stroke="black" points="521.9,-408.43 521.67,-397.83 515.25,-406.26 521.9,-408.43"/>
<text xml:space="preserve" text-anchor="middle" x="510.82" y="-479.33" font-family="Arial" font-size="14.00">0..1</text>
</g>
<!-- rel_is_admin&#45;&gt;ADMIN -->
<!-- rel_is_contributor&#45;&gt;CONTRIBUTOR -->
<g id="edge6" class="edge">
<title>rel_is_contributor&#45;&gt;CONTRIBUTOR</title>
<path fill="none" stroke="black" d="M845.57,-544.48C888.47,-514.59 1034.22,-438.73 1119.82,-401"/>
<polygon fill="black" stroke="black" points="1121.04,-404.29 1128.82,-397.09 1118.25,-397.87 1121.04,-404.29"/>
<text xml:space="preserve" text-anchor="middle" x="971.45" y="-475.19" font-family="Arial" font-size="14.00">0..1</text>
</g>
<!-- rel_is_contributor&#45;&gt;CONTRIBUTOR -->
<!-- rel_is_guest&#45;&gt;GUEST -->
<g id="edge8" class="edge">
<title>rel_is_guest&#45;&gt;GUEST</title>
<path fill="none" stroke="black" d="M1198.3,-540.89C1222.27,-508.35 1306.77,-434.88 1360.71,-399.2"/>
<polygon fill="black" stroke="black" points="1362.26,-402.36 1368.8,-394.02 1358.49,-396.46 1362.26,-402.36"/>
<text xml:space="preserve" text-anchor="middle" x="1268.26" y="-472.49" font-family="Arial" font-size="14.00">0..1</text>
</g>
<!-- rel_is_guest&#45;&gt;GUEST -->
<!-- rel_moderates&#45;&gt;RECIPE -->
<g id="edge10" class="edge">
<title>rel_moderates&#45;&gt;RECIPE</title>
<path fill="none" stroke="black" d="M465.74,-188.17C585.84,-158.52 974.66,-62.53 1106.66,-29.94"/>
<polygon fill="black" stroke="black" points="1107.2,-33.42 1116.06,-27.62 1105.52,-26.62 1107.2,-33.42"/>
<text xml:space="preserve" text-anchor="middle" x="781.32" y="-111.51" font-family="Arial" font-size="14.00">N</text>
</g>
<!-- rel_manages&#45;&gt;USER -->
<g id="edge12" class="edge">
<title>rel_manages&#45;&gt;USER</title>
<path fill="none" stroke="black" d="M80.14,-212.89C143.17,-284.88 432.95,-615.89 516.42,-711.23"/>
<polygon fill="black" stroke="black" points="513.63,-713.35 522.85,-718.57 518.89,-708.74 513.63,-713.35"/>
<text xml:space="preserve" text-anchor="middle" x="293.41" y="-464.51" font-family="Arial" font-size="14.00">N</text>
</g>
<!-- rel_views_stats&#45;&gt;DAILY_STAT -->
<g id="edge14" class="edge">
<title>rel_views_stats&#45;&gt;DAILY_STAT</title>
<path fill="none" stroke="black" d="M2273.98,-179.61C2273.98,-148.9 2273.98,-84.81 2273.98,-47.54"/>
<polygon fill="black" stroke="black" points="2277.48,-47.98 2273.98,-37.98 2270.48,-47.98 2277.48,-47.98"/>
<text xml:space="preserve" text-anchor="middle" x="2267.98" y="-116.03" font-family="Arial" font-size="14.00">M</text>
</g>
<!-- rel_favorites&#45;&gt;RECIPE -->
<g id="edge16" class="edge">
<title>rel_favorites&#45;&gt;RECIPE</title>
<path fill="none" stroke="black" d="M846.81,-185.59C899.55,-156.71 1039.19,-80.23 1109.42,-41.76"/>
<polygon fill="black" stroke="black" points="1110.84,-44.97 1117.93,-37.1 1107.48,-38.84 1110.84,-44.97"/>
<text xml:space="preserve" text-anchor="middle" x="972.11" y="-116.13" font-family="Arial" font-size="14.00">M</text>
</g>
<!-- rel_likes&#45;&gt;RECIPE -->
<g id="edge18" class="edge">
<title>rel_likes&#45;&gt;RECIPE</title>
<path fill="none" stroke="black" d="M1012.46,-184.48C1036.62,-155.62 1096.66,-83.89 1129.2,-45.02"/>
<polygon fill="black" stroke="black" points="1131.75,-47.42 1135.49,-37.51 1126.38,-42.93 1131.75,-47.42"/>
<text xml:space="preserve" text-anchor="middle" x="1064.83" y="-117.2" font-family="Arial" font-size="14.00">M</text>
</g>
<!-- rel_views&#45;&gt;RECIPE -->
<g id="edge20" class="edge">
<title>rel_views&#45;&gt;RECIPE</title>
<path fill="none" stroke="black" d="M1285.91,-187.68C1247.12,-161.61 1179.48,-87.19 1154.89,-46.46"/>
<polygon fill="black" stroke="black" points="1157.99,-44.82 1150.11,-37.74 1151.85,-48.19 1157.99,-44.82"/>
<text xml:space="preserve" text-anchor="middle" x="1214.4" y="-119.52" font-family="Arial" font-size="14.00">M</text>
</g>
<!-- rel_views&#45;&gt;RECIPE -->
<g id="edge22" class="edge">
<title>rel_views&#45;&gt;RECIPE</title>
<path fill="none" stroke="black" d="M1308.89,-180.25C1294.13,-148.68 1235.03,-80.22 1191.73,-43.47"/>
<polygon fill="black" stroke="black" points="1194.15,-40.93 1184.19,-37.31 1189.72,-46.35 1194.15,-40.93"/>
<text xml:space="preserve" text-anchor="middle" x="1244.31" y="-114.31" font-family="Arial" font-size="14.00">M</text>
</g>
<!-- rel_receives&#45;&gt;REVIEW -->
<g id="edge24" class="edge">
<title>rel_receives&#45;&gt;REVIEW</title>
<path fill="none" stroke="black" d="M1641.74,-181.82C1657.1,-151.78 1691.58,-84.34 1711,-46.35"/>
<polygon fill="black" stroke="black" points="1713.92,-48.32 1715.36,-37.82 1707.69,-45.13 1713.92,-48.32"/>
<text xml:space="preserve" text-anchor="middle" x="1671.49" y="-116.54" font-family="Arial" font-size="14.00">N</text>
</g>
<!-- rel_writes&#45;&gt;REVIEW -->
<g id="edge26" class="edge">
<title>rel_writes&#45;&gt;REVIEW</title>
<path fill="none" stroke="black" d="M1809.45,-182.43C1794.08,-152.68 1758.85,-84.53 1739.09,-46.29"/>
<polygon fill="black" stroke="black" points="1742.35,-44.98 1734.65,-37.71 1736.13,-48.2 1742.35,-44.98"/>
<text xml:space="preserve" text-anchor="middle" x="1769.4" y="-116.81" font-family="Arial" font-size="14.00">N</text>
</g>
<!-- rel_searches&#45;&gt;SEARCH_HISTORY -->
<g id="edge28" class="edge">
<title>rel_searches&#45;&gt;SEARCH_HISTORY</title>
<path fill="none" stroke="black" d="M2474.89,-183.62C2460.99,-154.7 2459.26,-85.84 2469.69,-46.97"/>
<polygon fill="black" stroke="black" points="2472.89,-48.43 2472.67,-37.83 2466.24,-46.26 2472.89,-48.43"/>
<text xml:space="preserve" text-anchor="middle" x="2467.41" y="-117.74" font-family="Arial" font-size="14.00">N</text>
</g>
<!-- rel_searches&#45;&gt;SEARCH_HISTORY -->
<g id="edge30" class="edge">
<title>rel_searches&#45;&gt;SEARCH_HISTORY</title>
<path fill="none" stroke="black" d="M2505.07,-183.62C2518.97,-154.7 2520.7,-85.84 2510.27,-46.97"/>
<polygon fill="black" stroke="black" points="2513.72,-46.26 2507.3,-37.83 2507.07,-48.43 2513.72,-46.26"/>
<text xml:space="preserve" text-anchor="middle" x="2502.8" y="-117.74" font-family="Arial" font-size="14.00">N</text>
</g>
<!-- rel_starts&#45;&gt;SESSION -->
<g id="edge32" class="edge">
<title>rel_starts&#45;&gt;SESSION</title>
<path fill="none" stroke="black" d="M2660.74,-185.32C2646.08,-157.51 2644.05,-86.75 2654.66,-47.07"/>
<polygon fill="black" stroke="black" points="2657.93,-48.33 2657.7,-37.74 2651.28,-46.16 2657.93,-48.33"/>
<text xml:space="preserve" text-anchor="middle" x="2652.83" y="-118.65" font-family="Arial" font-size="14.00">N</text>
</g>
<!-- rel_starts&#45;&gt;SESSION -->
<g id="edge34" class="edge">
<title>rel_starts&#45;&gt;SESSION</title>
<path fill="none" stroke="black" d="M2689.22,-185.32C2703.88,-157.51 2705.91,-86.75 2695.3,-47.07"/>
<polygon fill="black" stroke="black" points="2698.69,-46.16 2692.26,-37.74 2692.03,-48.33 2698.69,-46.16"/>
<text xml:space="preserve" text-anchor="middle" x="2687.39" y="-118.65" font-family="Arial" font-size="14.00">N</text>
</g>
<!-- rel_tracks_users&#45;&gt;CONTRIBUTOR -->
<g id="edge36" class="edge">
<title>rel_tracks_users&#45;&gt;CONTRIBUTOR</title>
<path fill="none" stroke="black" d="M1385.01,-543.33C1347.77,-513.33 1258.47,-441.41 1211.32,-403.44"/>
<polygon fill="black" stroke="black" points="1213.65,-400.82 1203.66,-397.27 1209.26,-406.27 1213.65,-400.82"/>
<text xml:space="preserve" text-anchor="middle" x="1292.17" y="-475.83" font-family="Arial" font-size="14.00">M</text>
</g>
<!-- rel_tracks_users&#45;&gt;GUEST -->
<g id="edge37" class="edge">
<title>rel_tracks_users&#45;&gt;GUEST</title>
<path fill="none" stroke="black" d="M1401.98,-539.61C1401.98,-508.9 1401.98,-444.81 1401.98,-407.54"/>
<polygon fill="black" stroke="black" points="1405.48,-407.98 1401.98,-397.98 1398.48,-407.98 1405.48,-407.98"/>
<text xml:space="preserve" text-anchor="middle" x="1395.98" y="-476.03" font-family="Arial" font-size="14.00">M</text>
</g>
<!-- rel_tracks_recipes&#45;&gt;RECIPE -->
<g id="edge39" class="edge">
<title>rel_tracks_recipes&#45;&gt;RECIPE</title>
<path fill="none" stroke="black" d="M1986.74,-188.05C1836.43,-157.65 1346.37,-58.52 1195.56,-28.02"/>
<polygon fill="black" stroke="black" points="1196.45,-24.63 1185.96,-26.07 1195.07,-31.49 1196.45,-24.63"/>
<text xml:space="preserve" text-anchor="middle" x="1585.15" y="-110.48" font-family="Arial" font-size="14.00">M</text>
</g>
</g>
</svg>
