<?xml version="1.0" encoding="UTF-8" standalone="no"?>
<!DOCTYPE svg PUBLIC "-//W3C//DTD SVG 1.1//EN"
 "http://www.w3.org/Graphics/SVG/1.1/DTD/svg11.dtd">
<!-- Generated by graphviz version 14.1.1 (20251213.1925)
 -->
<!-- Title: ERDRecipeConceptual Pages: 1 -->
<svg width="2981pt" height="764pt"
 viewBox="0.00 0.00 2981.00 764.00" xmlns="http://www.w3.org/2000/svg" xmlns:xlink="http://www.w3.org/1999/xlink">
<g id="graph0" class="graph" transform="scale(1 1) rotate(0) translate(4 760)">
<title>ERDRecipeConceptual</title>
<polygon fill="white" stroke="none" points="-4,4 -4,-760 2976.98,-760 2976.98,4 -4,4"/>
<!-- USER -->
<g id="node1" class="node">
<title>USER</title>
<polygon fill="none" stroke="black" points="671.98,-756 617.98,-756 617.98,-720 671.98,-720 671.98,-756"/>
<text xml:space="preserve" text-anchor="middle" x="644.98" y="-732.58" font-family="Arial" font-size="14.00">USER</text>
</g>
<!-- rel_is_admin -->
<g id="node12" class="node">
<title>rel_is_admin</title>
<polygon fill="none" stroke="black" points="644.98,-576 610.17,-558 644.98,-540 679.79,-558 644.98,-576"/>
<text xml:space="preserve" text-anchor="middle" x="644.98" y="-552.58" font-family="Arial" font-size="14.00">is a</text>
</g>
<!-- USER&#45;&gt;rel_is_admin -->
<g id="edge3" class="edge">
<title>USER&#45;&gt;rel_is_admin</title>
<path fill="none" stroke="black" d="M628.14,-719.61C615.01,-686.6 614.61,-615.01 626.93,-579.63"/>
<polygon fill="black" stroke="black" points="630.12,-581.08 630.98,-570.52 623.72,-578.23 630.12,-581.08"/>
<text xml:space="preserve" text-anchor="middle" x="623.78" y="-652.07" font-family="Arial" font-size="14.00">1</text>
</g>
<!-- USER&#45;&gt;rel_is_admin -->
<!-- rel_is_contributor -->
<g id="node13" class="node">
<title>rel_is_contributor</title>
<polygon fill="none" stroke="black" points="1048.98,-576 1014.17,-558 1048.98,-540 1083.79,-558 1048.98,-576"/>
<text xml:space="preserve" text-anchor="middle" x="1048.98" y="-552.58" font-family="Arial" font-size="14.00">is a</text>
</g>
<!-- USER&#45;&gt;rel_is_contributor -->
<g id="edge5" class="edge">
<title>USER&#45;&gt;rel_is_contributor</title>
<path fill="none" stroke="black" d="M672.43,-724.91C745.75,-692.6 945.62,-604.54 1020.31,-571.63"/>
<polygon fill="black" stroke="black" points="1021.67,-574.86 1029.41,-567.62 1018.85,-568.45 1021.67,-574.86"/>
<text xml:space="preserve" text-anchor="middle" x="842.62" y="-650.72" font-family="Arial" font-size="14.00">1</text>
</g>
<!-- rel_is_guest -->
<g id="node14" class="node">
<title>rel_is_guest</title>
<polygon fill="none" stroke="black" points="1399.98,-576 1365.17,-558 1399.98,-540 1434.79,-558 1399.98,-576"/>
<text xml:space="preserve" text-anchor="middle" x="1399.98" y="-552.58" font-family="Arial" font-size="14.00">is a</text>
</g>
<!-- USER&#45;&gt;rel_is_guest -->
<g id="edge7" class="edge">
<title>USER&#45;&gt;rel_is_guest</title>
<path fill="none" stroke="black" d="M672.3,-730.56C788.05,-703.27 1237.96,-597.2 1365.88,-567.04"/>
<polygon fill="black" stroke="black" points="1366.5,-570.49 1375.43,-564.79 1364.89,-563.68 1366.5,-570.49"/>
<text xml:space="preserve" text-anchor="middle" x="1015.34" y="-651.25" font-family="Arial" font-size="14.00">1</text>
</g>
<!-- ADMIN -->
<g id="node2" class="node">
<title>ADMIN</title>
<polygon fill="none" stroke="black" points="675.11,-396 614.86,-396 614.86,-360 675.11,-360 675.11,-396"/>
<text xml:space="preserve" text-anchor="middle" x="644.98" y="-372.57" font-family="Arial" font-size="14.00">ADMIN</text>
</g>
<!-- RECIPE -->
<g id="node5" class="node">
<title>RECIPE</title>
<polygon fill="none" stroke="black" points="1380.11,-36 1313.86,-36 1313.86,0 1380.11,0 1380.11,-36"/>
<text xml:space="preserve" text-anchor="middle" x="1346.98" y="-12.57" font-family="Arial" font-size="14.00">RECIPE</text>
</g>
<!-- ADMIN&#45;&gt;RECIPE -->
<!-- ADMIN&#45;&gt;rel_is_contributor -->
<!-- rel_moderates -->
<g id="node15" class="node">
<title>rel_moderates</title>
<polygon fill="none" stroke="black" points="644.98,-216 569.24,-198 644.98,-180 720.72,-198 644.98,-216"/>
<text xml:space="preserve" text-anchor="middle" x="644.98" y="-192.57" font-family="Arial" font-size="14.00">moderates</text>
</g>
<!-- ADMIN&#45;&gt;rel_moderates -->
<g id="edge9" class="edge">
<title>ADMIN&#45;&gt;rel_moderates</title>
<path fill="none" stroke="black" d="M644.98,-359.61C644.98,-328.9 644.98,-264.81 644.98,-227.54"/>
<polygon fill="black" stroke="black" points="648.48,-227.98 644.98,-217.98 641.48,-227.98 648.48,-227.98"/>
<text xml:space="preserve" text-anchor="middle" x="641.23" y="-296.03" font-family="Arial" font-size="14.00">1</text>
</g>
<!-- rel_manages -->
<g id="node16" class="node">
<title>rel_manages</title>
<polygon fill="none" stroke="black" points="67.98,-216 0,-198 67.98,-180 135.96,-198 67.98,-216"/>
<text xml:space="preserve" text-anchor="middle" x="67.98" y="-192.57" font-family="Arial" font-size="14.00">manages</text>
</g>
<!-- ADMIN&#45;&gt;rel_manages -->
<g id="edge11" class="edge">
<title>ADMIN&#45;&gt;rel_manages</title>
<path fill="none" stroke="black" d="M614.37,-367.56C517.83,-337.78 219.72,-245.81 109.5,-211.81"/>
<polygon fill="black" stroke="black" points="110.56,-208.47 99.97,-208.87 108.49,-215.16 110.56,-208.47"/>
<text xml:space="preserve" text-anchor="middle" x="358.18" y="-292.13" font-family="Arial" font-size="14.00">1</text>
</g>
<!-- rel_views_stats -->
<g id="node17" class="node">
<title>rel_views_stats</title>
<polygon fill="none" stroke="black" points="2489.98,-216 2412.83,-198 2489.98,-180 2567.14,-198 2489.98,-216"/>
<text xml:space="preserve" text-anchor="middle" x="2489.98" y="-192.57" font-family="Arial" font-size="14.00">views stats</text>
</g>
<!-- ADMIN&#45;&gt;rel_views_stats -->
<g id="edge13" class="edge">
<title>ADMIN&#45;&gt;rel_views_stats</title>
<path fill="none" stroke="black" d="M675.39,-374.17C906.44,-352.68 2375.98,-216 2375.98,-216 2375.98,-216 2404.48,-211.75 2432.99,-207.5"/>
<polygon fill="black" stroke="black" points="2433.4,-210.98 2442.77,-206.04 2432.37,-204.05 2433.4,-210.98"/>
<text xml:space="preserve" text-anchor="middle" x="1550.63" y="-294.87" font-family="Arial" font-size="14.00">1</text>
</g>
<!-- rel_generates -->
<g id="node27" class="node">
<title>rel_generates</title>
<polygon fill="none" stroke="black" points="278.98,-216 207.47,-198 278.98,-180 350.49,-198 278.98,-216"/>
<text xml:space="preserve" text-anchor="middle" x="278.98" y="-192.57" font-family="Arial" font-size="14.00">generates</text>
</g>
<!-- ADMIN&#45;&gt;rel_generates -->
<g id="edge40" class="edge">
<title>ADMIN&#45;&gt;rel_generates</title>
<path fill="none" stroke="black" d="M614.41,-362.13C546.42,-329.07 383.18,-249.68 312.52,-215.31"/>
<polygon fill="black" stroke="black" points="314.28,-212.28 303.76,-211.05 311.22,-218.57 314.28,-212.28"/>
<text xml:space="preserve" text-anchor="middle" x="459.71" y="-291.17" font-family="Arial" font-size="14.00">1</text>
</g>
<!-- CONTRIBUTOR -->
<g id="node3" class="node">
<title>CONTRIBUTOR</title>
<polygon fill="none" stroke="black" points="1440.23,-396 1323.73,-396 1323.73,-360 1440.23,-360 1440.23,-396"/>
<text xml:space="preserve" text-anchor="middle" x="1381.98" y="-372.57" font-family="Arial" font-size="14.00">CONTRIBUTOR</text>
</g>
<!-- CONTRIBUTOR&#45;&gt;RECIPE -->
<!-- rel_creates -->
<g id="node11" class="node">
<title>rel_creates</title>
<polygon fill="none" stroke="black" points="1346.98,-216 1290.29,-198 1346.98,-180 1403.67,-198 1346.98,-216"/>
<text xml:space="preserve" text-anchor="middle" x="1346.98" y="-192.57" font-family="Arial" font-size="14.00">creates</text>
</g>
<!-- CONTRIBUTOR&#45;&gt;rel_creates -->
<g id="edge1" class="edge">
<title>CONTRIBUTOR&#45;&gt;rel_creates</title>
<path fill="none" stroke="black" d="M1378.56,-359.61C1372.46,-328.59 1359.66,-263.49 1352.37,-226.4"/>
<polygon fill="black" stroke="black" points="1355.87,-226.05 1350.5,-216.91 1349,-227.4 1355.87,-226.05"/>
<text xml:space="preserve" text-anchor="middle" x="1361.72" y="-295.46" font-family="Arial" font-size="14.00">1</text>
</g>
<!-- CONTRIBUTOR&#45;&gt;rel_is_guest -->
<!-- rel_favorites -->
<g id="node18" class="node">
<title>rel_favorites</title>
<polygon fill="none" stroke="black" points="855.98,-216 792.94,-198 855.98,-180 919.02,-198 855.98,-216"/>
<text xml:space="preserve" text-anchor="middle" x="855.98" y="-192.57" font-family="Arial" font-size="14.00">favorites</text>
</g>
<!-- CONTRIBUTOR&#45;&gt;rel_favorites -->
<g id="edge15" class="edge">
<title>CONTRIBUTOR&#45;&gt;rel_favorites</title>
<path fill="none" stroke="black" d="M1330.59,-359.61C1225.39,-324.01 987.58,-243.53 894.43,-212.01"/>
<polygon fill="black" stroke="black" points="895.83,-208.79 885.24,-208.9 893.59,-215.42 895.83,-208.79"/>
<text xml:space="preserve" text-anchor="middle" x="1106.51" y="-288.26" font-family="Arial" font-size="14.00">M</text>
</g>
<!-- rel_likes -->
<g id="node19" class="node">
<title>rel_likes</title>
<polygon fill="none" stroke="black" points="1031.98,-216 991.52,-198 1031.98,-180 1072.44,-198 1031.98,-216"/>
<text xml:space="preserve" text-anchor="middle" x="1031.98" y="-192.57" font-family="Arial" font-size="14.00">likes</text>
</g>
<!-- CONTRIBUTOR&#45;&gt;rel_likes -->
<g id="edge17" class="edge">
<title>CONTRIBUTOR&#45;&gt;rel_likes</title>
<path fill="none" stroke="black" d="M1347.78,-359.61C1278.84,-324.55 1124.31,-245.95 1060.44,-213.47"/>
<polygon fill="black" stroke="black" points="1062.15,-210.42 1051.65,-209 1058.97,-216.65 1062.15,-210.42"/>
<text xml:space="preserve" text-anchor="middle" x="1198.11" y="-288.99" font-family="Arial" font-size="14.00">M</text>
</g>
<!-- rel_views -->
<g id="node20" class="node">
<title>rel_views</title>
<polygon fill="none" stroke="black" points="1522.98,-216 1476.17,-198 1522.98,-180 1569.79,-198 1522.98,-216"/>
<text xml:space="preserve" text-anchor="middle" x="1522.98" y="-192.57" font-family="Arial" font-size="14.00">views</text>
</g>
<!-- CONTRIBUTOR&#45;&gt;rel_views -->
<g id="edge19" class="edge">
<title>CONTRIBUTOR&#45;&gt;rel_views</title>
<path fill="none" stroke="black" d="M1395.76,-359.61C1421.58,-327.01 1477.22,-256.77 1505.59,-220.96"/>
<polygon fill="black" stroke="black" points="1508.09,-223.43 1511.56,-213.42 1502.6,-219.09 1508.09,-223.43"/>
<text xml:space="preserve" text-anchor="middle" x="1444.67" y="-292.73" font-family="Arial" font-size="14.00">M</text>
</g>
<!-- rel_writes -->
<g id="node22" class="node">
<title>rel_writes</title>
<polygon fill="none" stroke="black" points="2032.98,-216 1984.76,-198 2032.98,-180 2081.2,-198 2032.98,-216"/>
<text xml:space="preserve" text-anchor="middle" x="2032.98" y="-192.57" font-family="Arial" font-size="14.00">writes</text>
</g>
<!-- CONTRIBUTOR&#45;&gt;rel_writes -->
<g id="edge25" class="edge">
<title>CONTRIBUTOR&#45;&gt;rel_writes</title>
<path fill="none" stroke="black" d="M1440.61,-360.97C1571.79,-325.1 1885.96,-239.2 1994.96,-209.4"/>
<polygon fill="black" stroke="black" points="1995.86,-212.78 2004.58,-206.76 1994.01,-206.03 1995.86,-212.78"/>
<text xml:space="preserve" text-anchor="middle" x="1714.04" y="-287.63" font-family="Arial" font-size="14.00">1</text>
</g>
<!-- rel_searches -->
<g id="node23" class="node">
<title>rel_searches</title>
<polygon fill="none" stroke="black" points="2705.98,-216 2639.41,-198 2705.98,-180 2772.55,-198 2705.98,-216"/>
<text xml:space="preserve" text-anchor="middle" x="2705.98" y="-192.57" font-family="Arial" font-size="14.00">searches</text>
</g>
<!-- CONTRIBUTOR&#45;&gt;rel_searches -->
<g id="edge27" class="edge">
<title>CONTRIBUTOR&#45;&gt;rel_searches</title>
<path fill="none" stroke="black" d="M1440.46,-369.29C1683.74,-337.21 2602.98,-216 2602.98,-216 2602.98,-216 2628.75,-211.75 2654.51,-207.49"/>
<polygon fill="black" stroke="black" points="2655.07,-210.95 2664.37,-205.87 2653.93,-204.04 2655.07,-210.95"/>
<text xml:space="preserve" text-anchor="middle" x="2043.86" y="-291.68" font-family="Arial" font-size="14.00">1</text>
</g>
<!-- rel_starts -->
<g id="node24" class="node">
<title>rel_starts</title>
<polygon fill="none" stroke="black" points="2890.98,-216 2844.88,-198 2890.98,-180 2937.09,-198 2890.98,-216"/>
<text xml:space="preserve" text-anchor="middle" x="2890.98" y="-192.57" font-family="Arial" font-size="14.00">starts</text>
</g>
<!-- CONTRIBUTOR&#45;&gt;rel_starts -->
<g id="edge31" class="edge">
<title>CONTRIBUTOR&#45;&gt;rel_starts</title>
<path fill="none" stroke="black" d="M1440.58,-370.39C1709.11,-340.09 2808.98,-216 2808.98,-216 2808.98,-216 2830.03,-211.64 2850.79,-207.33"/>
<polygon fill="black" stroke="black" points="2851.28,-210.81 2860.36,-205.35 2849.86,-203.95 2851.28,-210.81"/>
<text xml:space="preserve" text-anchor="middle" x="2142.25" y="-293.25" font-family="Arial" font-size="14.00">1</text>
</g>
<!-- GUEST -->
<g id="node4" class="node">
<title>GUEST</title>
<polygon fill="none" stroke="black" points="1639.61,-396 1576.36,-396 1576.36,-360 1639.61,-360 1639.61,-396"/>
<text xml:space="preserve" text-anchor="middle" x="1607.98" y="-372.57" font-family="Arial" font-size="14.00">GUEST</text>
</g>
<!-- GUEST&#45;&gt;RECIPE -->
<!-- GUEST&#45;&gt;rel_views -->
<g id="edge21" class="edge">
<title>GUEST&#45;&gt;rel_views</title>
<path fill="none" stroke="black" d="M1599.68,-359.61C1584.53,-327.9 1552.39,-260.58 1534.91,-223.97"/>
<polygon fill="black" stroke="black" points="1538.11,-222.55 1530.64,-215.04 1531.79,-225.57 1538.11,-222.55"/>
<text xml:space="preserve" text-anchor="middle" x="1561.29" y="-294.24" font-family="Arial" font-size="14.00">M</text>
</g>
<!-- GUEST&#45;&gt;rel_searches -->
<g id="edge29" class="edge">
<title>GUEST&#45;&gt;rel_searches</title>
<path fill="none" stroke="black" d="M1639.96,-371.83C1810.27,-344.27 2602.98,-216 2602.98,-216 2602.98,-216 2628.75,-211.75 2654.51,-207.49"/>
<polygon fill="black" stroke="black" points="2655.07,-210.95 2664.37,-205.87 2653.93,-204.04 2655.07,-210.95"/>
<text xml:space="preserve" text-anchor="middle" x="2143.5" y="-276.44" font-family="Arial" font-size="14.00">1</text>
</g>
<!-- GUEST&#45;&gt;rel_starts -->
<g id="edge33" class="edge">
<title>GUEST&#45;&gt;rel_starts</title>
<path fill="none" stroke="black" d="M1640.1,-372.69C1831.1,-347.09 2808.98,-216 2808.98,-216 2808.98,-216 2830.03,-211.64 2850.79,-207.33"/>
<polygon fill="black" stroke="black" points="2851.28,-210.81 2860.36,-205.35 2849.86,-203.95 2851.28,-210.81"/>
<text xml:space="preserve" text-anchor="middle" x="2241.95" y="-293.96" font-family="Arial" font-size="14.00">1</text>
</g>
<!-- rel_receives -->
<g id="node21" class="node">
<title>rel_receives</title>
<polygon fill="none" stroke="black" points="1849.98,-216 1787.65,-198 1849.98,-180 1912.32,-198 1849.98,-216"/>
<text xml:space="preserve" text-anchor="middle" x="1849.98" y="-192.57" font-family="Arial" font-size="14.00">receives</text>
</g>
<!-- RECIPE&#45;&gt;rel_receives -->
<g id="edge23" class="edge">
<title>RECIPE&#45;&gt;rel_receives</title>
<path fill="none" stroke="black" d="M1380.59,-30.89C1470.72,-62.79 1717.33,-150.06 1812.15,-183.61"/>
<polygon fill="black" stroke="black" points="1810.92,-186.89 1821.51,-186.93 1813.25,-180.29 1810.92,-186.89"/>
<text xml:space="preserve" text-anchor="middle" x="1592.62" y="-109.7" font-family="Arial" font-size="14.00">1</text>
</g>
<!-- REVIEW -->
<g id="node6" class="node">
<title>REVIEW</title>
<polygon fill="none" stroke="black" points="1975.98,-36 1905.98,-36 1905.98,0 1975.98,0 1975.98,-36"/>
<text xml:space="preserve" text-anchor="middle" x="1940.98" y="-12.57" font-family="Arial" font-size="14.00">REVIEW</text>
</g>
<!-- SEARCH_HISTORY -->
<g id="node7" class="node">
<title>SEARCH_HISTORY</title>
<polygon fill="none" stroke="black" points="2776.23,-36 2635.73,-36 2635.73,0 2776.23,0 2776.23,-36"/>
<text xml:space="preserve" text-anchor="middle" x="2705.98" y="-12.57" font-family="Arial" font-size="14.00">SEARCH_HISTORY</text>
</g>
<!-- ACTIVITY_LOG -->
<g id="node8" class="node">
<title>ACTIVITY_LOG</title>
<polygon fill="none" stroke="black" points="336.11,-36 221.86,-36 221.86,0 336.11,0 336.11,-36"/>
<text xml:space="preserve" text-anchor="middle" x="278.98" y="-12.57" font-family="Arial" font-size="14.00">ACTIVITY_LOG</text>
</g>
<!-- SESSION -->
<g id="node9" class="node">
<title>SESSION</title>
<polygon fill="none" stroke="black" points="2929.36,-36 2852.61,-36 2852.61,0 2929.36,0 2929.36,-36"/>
<text xml:space="preserve" text-anchor="middle" x="2890.98" y="-12.57" font-family="Arial" font-size="14.00">SESSION</text>
</g>
<!-- DAILY_STAT -->
<g id="node10" class="node">
<title>DAILY_STAT</title>
<polygon fill="none" stroke="black" points="2537.36,-36 2442.61,-36 2442.61,0 2537.36,0 2537.36,-36"/>
<text xml:space="preserve" text-anchor="middle" x="2489.98" y="-12.57" font-family="Arial" font-size="14.00">DAILY_STAT</text>
</g>
<!-- rel_tracks_users -->
<g id="node25" class="node">
<title>rel_tracks_users</title>
<polygon fill="none" stroke="black" points="1607.98,-576 1524.47,-558 1607.98,-540 1691.49,-558 1607.98,-576"/>
<text xml:space="preserve" text-anchor="middle" x="1607.98" y="-552.58" font-family="Arial" font-size="14.00">tracks users</text>
</g>
<!-- DAILY_STAT&#45;&gt;rel_tracks_users -->
<g id="edge35" class="edge">
<title>DAILY_STAT&#45;&gt;rel_tracks_users</title>
<path fill="none" stroke="black" d="M2537.61,-34.88C2659.47,-75.5 2972.98,-180 2972.98,-180 2972.98,-180 2972.98,-216 2972.98,-216 2972.98,-216 1899.52,-484.17 1656.49,-544.88"/>
<polygon fill="black" stroke="black" points="1655.88,-541.43 1647.02,-547.25 1657.57,-548.22 1655.88,-541.43"/>
<text xml:space="preserve" text-anchor="middle" x="2551.07" y="-322.91" font-family="Arial" font-size="14.00">1</text>
</g>
<!-- rel_tracks_recipes -->
<g id="node26" class="node">
<title>rel_tracks_recipes</title>
<polygon fill="none" stroke="black" points="2246.98,-216 2153.6,-198 2246.98,-180 2340.37,-198 2246.98,-216"/>
<text xml:space="preserve" text-anchor="middle" x="2246.98" y="-192.57" font-family="Arial" font-size="14.00">tracks recipes</text>
</g>
<!-- DAILY_STAT&#45;&gt;rel_tracks_recipes -->
<g id="edge38" class="edge">
<title>DAILY_STAT&#45;&gt;rel_tracks_recipes</title>
<path fill="none" stroke="black" d="M2466.34,-36.32C2421.23,-69.36 2323.1,-141.25 2274.87,-176.57"/>
<polygon fill="black" stroke="black" points="2272.87,-173.7 2266.87,-182.43 2277,-179.35 2272.87,-173.7"/>
<text xml:space="preserve" text-anchor="middle" x="2366.85" y="-108.9" font-family="Arial" font-size="14.00">1</text>
</g>
<!-- rel_creates&#45;&gt;RECIPE -->
<g id="edge2" class="edge">
<title>rel_creates&#45;&gt;RECIPE</title>
<path fill="none" stroke="black" d="M1346.98,-179.61C1346.98,-148.9 1346.98,-84.81 1346.98,-47.54"/>
<polygon fill="black" stroke="black" points="1350.48,-47.98 1346.98,-37.98 1343.48,-47.98 1350.48,-47.98"/>
<text xml:space="preserve" text-anchor="middle" x="1342.11" y="-116.03" font-family="Arial" font-size="14.00">N</text>
</g>
<!-- rel_is_admin&#45;&gt;ADMIN -->
<g id="edge4" class="edge">
<title>rel_is_admin&#45;&gt;ADMIN</title>
<path fill="none" stroke="black" d="M631.48,-546.66C616.15,-519.86 613.88,-447.43 624.66,-407.09"/>
<polygon fill="black" stroke="black" points="627.9,-408.43 627.67,-397.83 621.25,-406.26 627.9,-408.43"/>
<text xml:space="preserve" text-anchor="middle" x="616.82" y="-479.33" font-family="Arial" font-size="14.00">0..1</text>
</g>
<!-- rel_is_admin&#45;&gt;ADMIN -->
<!-- rel_is_contributor&#45;&gt;CONTRIBUTOR -->
<g id="edge6" class="edge">
<title>rel_is_contributor&#45;&gt;CONTRIBUTOR</title>
<path fill="none" stroke="black" d="M1058.12,-544.2C1099.49,-514.12 1239.46,-438.64 1322.26,-401.02"/>
<polygon fill="black" stroke="black" points="1323.48,-404.31 1331.18,-397.03 1320.62,-397.92 1323.48,-404.31"/>
<text xml:space="preserve" text-anchor="middle" x="1178.94" y="-475.06" font-family="Arial" font-size="14.00">0..1</text>
</g>
<!-- rel_is_contributor&#45;&gt;CONTRIBUTOR -->
<!-- rel_is_guest&#45;&gt;GUEST -->
<g id="edge8" class="edge">
<title>rel_is_guest&#45;&gt;GUEST</title>
<path fill="none" stroke="black" d="M1402.49,-540.89C1426.81,-508.35 1512.15,-434.88 1566.48,-399.2"/>
<polygon fill="black" stroke="black" points="1568.08,-402.33 1574.63,-394.01 1564.32,-396.43 1568.08,-402.33"/>
<text xml:space="preserve" text-anchor="middle" x="1473.23" y="-472.49" font-family="Arial" font-size="14.00">0..1</text>
</g>
<!-- rel_is_guest&#45;&gt;GUEST -->
<!-- rel_moderates&#45;&gt;RECIPE -->
<g id="edge10" class="edge">
<title>rel_moderates&#45;&gt;RECIPE</title>
<path fill="none" stroke="black" d="M680.27,-188.05C797.41,-158.35 1173.17,-63.07 1302.64,-30.24"/>
<polygon fill="black" stroke="black" points="1303.38,-33.67 1312.21,-27.82 1301.66,-26.88 1303.38,-33.67"/>
<text xml:space="preserve" text-anchor="middle" x="986.58" y="-111.6" font-family="Arial" font-size="14.00">N</text>
</g>
<!-- rel_manages&#45;&gt;USER -->
<g id="edge12" class="edge">
<title>rel_manages&#45;&gt;USER</title>
<path fill="none" stroke="black" d="M82.36,-212.41C158.71,-283.59 516.97,-617.64 618.25,-712.07"/>
<polygon fill="black" stroke="black" points="615.63,-714.42 625.33,-718.68 620.4,-709.3 615.63,-714.42"/>
<text xml:space="preserve" text-anchor="middle" x="345.43" y="-464.69" font-family="Arial" font-size="14.00">N</text>
</g>
<!-- rel_views_stats&#45;&gt;DAILY_STAT -->
<g id="edge14" class="edge">
<title>rel_views_stats&#45;&gt;DAILY_STAT</title>
<path fill="none" stroke="black" d="M2489.98,-179.61C2489.98,-148.9 2489.98,-84.81 2489.98,-47.54"/>
<polygon fill="black" stroke="black" points="2493.48,-47.98 2489.98,-37.98 2486.48,-47.98 2493.48,-47.98"/>
<text xml:space="preserve" text-anchor="middle" x="2483.98" y="-116.03" font-family="Arial" font-size="14.00">M</text>
</g>
<!-- rel_favorites&#45;&gt;RECIPE -->
<g id="edge16" class="edge">
<title>rel_favorites&#45;&gt;RECIPE</title>
<path fill="none" stroke="black" d="M882.73,-187.3C963.16,-158.14 1203.41,-71.05 1302.99,-34.95"/>
<polygon fill="black" stroke="black" points="1303.95,-38.32 1312.16,-31.62 1301.56,-31.74 1303.95,-38.32"/>
<text xml:space="preserve" text-anchor="middle" x="1086.86" y="-113.58" font-family="Arial" font-size="14.00">M</text>
</g>
<!-- rel_likes&#45;&gt;RECIPE -->
<g id="edge18" class="edge">
<title>rel_likes&#45;&gt;RECIPE</title>
<path fill="none" stroke="black" d="M1048.92,-187.43C1097.27,-160.11 1236.95,-81.17 1306.56,-41.84"/>
<polygon fill="black" stroke="black" points="1308,-45.05 1314.99,-37.08 1304.56,-38.95 1308,-45.05"/>
<text xml:space="preserve" text-anchor="middle" x="1171.74" y="-117.09" font-family="Arial" font-size="14.00">M</text>
</g>
<!-- rel_views&#45;&gt;RECIPE -->
<g id="edge20" class="edge">
<title>rel_views&#45;&gt;RECIPE</title>
<path fill="none" stroke="black" d="M1501.26,-187.93C1459.49,-162 1382.72,-86.82 1353.69,-46.05"/>
<polygon fill="black" stroke="black" points="1356.64,-44.17 1348.22,-37.75 1350.79,-48.02 1356.64,-44.17"/>
<text xml:space="preserve" text-anchor="middle" x="1421.48" y="-119.44" font-family="Arial" font-size="14.00">M</text>
</g>
<!-- rel_views&#45;&gt;RECIPE -->
<g id="edge22" class="edge">
<title>rel_views&#45;&gt;RECIPE</title>
<path fill="none" stroke="black" d="M1522.63,-179.61C1503.67,-147.54 1436.71,-79.07 1389.54,-42.75"/>
<polygon fill="black" stroke="black" points="1391.72,-40.01 1381.61,-36.84 1387.54,-45.62 1391.72,-40.01"/>
<text xml:space="preserve" text-anchor="middle" x="1450.09" y="-113.63" font-family="Arial" font-size="14.00">M</text>
</g>
<!-- rel_receives&#45;&gt;REVIEW -->
<g id="edge24" class="edge">
<title>rel_receives&#45;&gt;REVIEW</title>
<path fill="none" stroke="black" d="M1857.74,-181.82C1873.1,-151.78 1907.58,-84.34 1927,-46.35"/>
<polygon fill="black" stroke="black" points="1929.92,-48.32 1931.36,-37.82 1923.69,-45.13 1929.92,-48.32"/>
<text xml:space="preserve" text-anchor="middle" x="1887.49" y="-116.54" font-family="Arial" font-size="14.00">N</text>
</g>
<!-- rel_writes&#45;&gt;REVIEW -->
<g id="edge26" class="edge">
<title>rel_writes&#45;&gt;REVIEW</title>
<path fill="none" stroke="black" d="M2025.45,-182.43C2010.08,-152.68 1974.85,-84.53 1955.09,-46.29"/>
<polygon fill="black" stroke="black" points="1958.35,-44.98 1950.65,-37.71 1952.13,-48.2 1958.35,-44.98"/>
<text xml:space="preserve" text-anchor="middle" x="1985.4" y="-116.81" font-family="Arial" font-size="14.00">N</text>
</g>
<!-- rel_searches&#45;&gt;SEARCH_HISTORY -->
<g id="edge28" class="edge">
<title>rel_searches&#45;&gt;SEARCH_HISTORY</title>
<path fill="none" stroke="black" d="M2690.89,-183.62C2676.99,-154.7 2675.26,-85.84 2685.69,-46.97"/>
<polygon fill="black" stroke="black" points="2688.89,-48.43 2688.67,-37.83 2682.24,-46.26 2688.89,-48.43"/>
<text xml:space="preserve" text-anchor="middle" x="2683.41" y="-117.74" font-family="Arial" font-size="14.00">N</text>
</g>
<!-- rel_searches&#45;&gt;SEARCH_HISTORY -->
<g id="edge30" class="edge">
<title>rel_searches&#45;&gt;SEARCH_HISTORY</title>
<path fill="none" stroke="black" d="M2721.07,-183.62C2734.97,-154.7 2736.7,-85.84 2726.27,-46.97"/>
<polygon fill="black" stroke="black" points="2729.72,-46.26 2723.3,-37.83 2723.07,-48.43 2729.72,-46.26"/>
<text xml:space="preserve" text-anchor="middle" x="2718.8" y="-117.74" font-family="Arial" font-size="14.00">N</text>
</g>
<!-- rel_starts&#45;&gt;SESSION -->
<g id="edge32" class="edge">
<title>rel_starts&#45;&gt;SESSION</title>
<path fill="none" stroke="black" d="M2876.74,-185.32C2862.08,-157.51 2860.05,-86.75 2870.66,-47.07"/>
<polygon fill="black" stroke="black" points="2873.93,-48.33 2873.7,-37.74 2867.28,-46.16 2873.93,-48.33"/>
<text xml:space="preserve" text-anchor="middle" x="2868.83" y="-118.65" font-family="Arial" font-size="14.00">N</text>
</g>
<!-- rel_starts&#45;&gt;SESSION -->
<g id="edge34" class="edge">
<title>rel_starts&#45;&gt;SESSION</title>
<path fill="none" stroke="black" d="M2905.22,-185.32C2919.88,-157.51 2921.91,-86.75 2911.3,-47.07"/>
<polygon fill="black" stroke="black" points="2914.69,-46.16 2908.26,-37.74 2908.03,-48.33 2914.69,-46.16"/>
<text xml:space="preserve" text-anchor="middle" x="2903.39" y="-118.65" font-family="Arial" font-size="14.00">N</text>
</g>
<!-- rel_tracks_users&#45;&gt;CONTRIBUTOR -->
<g id="edge36" class="edge">
<title>rel_tracks_users&#45;&gt;CONTRIBUTOR</title>
<path fill="none" stroke="black" d="M1590.62,-543.33C1552.54,-513.33 1461.23,-441.41 1413.01,-403.44"/>
<polygon fill="black" stroke="black" points="1415.18,-400.69 1405.16,-397.26 1410.85,-406.19 1415.18,-400.69"/>
<text xml:space="preserve" text-anchor="middle" x="1495.82" y="-475.83" font-family="Arial" font-size="14.00">M</text>
</g>
<!-- rel_tracks_users&#45;&gt;GUEST -->
<g id="edge37" class="edge">
<title>rel_tracks_users&#45;&gt;GUEST</title>
<path fill="none" stroke="black" d="M1607.98,-539.61C1607.98,-508.9 1607.98,-444.81 1607.98,-407.54"/>
<polygon fill="black" stroke="black" points="1611.48,-407.98 1607.98,-397.98 1604.48,-407.98 1611.48,-407.98"/>
<text xml:space="preserve" text-anchor="middle" x="1601.98" y="-476.03" font-family="Arial" font-size="14.00">M</text>
</g>
<!-- rel_tracks_recipes&#45;&gt;RECIPE -->
<g id="edge39" class="edge">
<title>rel_tracks_recipes&#45;&gt;RECIPE</title>
<path fill="none" stroke="black" d="M2202.35,-188.17C2049.04,-157.85 1544.96,-58.16 1391.63,-27.83"/>
<polygon fill="black" stroke="black" points="1392.34,-24.4 1381.85,-25.9 1390.98,-31.27 1392.34,-24.4"/>
<text xml:space="preserve" text-anchor="middle" x="1790.99" y="-110.45" font-family="Arial" font-size="14.00">M</text>
</g>
<!-- rel_generates&#45;&gt;ACTIVITY_LOG -->
<g id="edge41" class="edge">
<title>rel_generates&#45;&gt;ACTIVITY_LOG</title>
<path fill="none" stroke="black" d="M278.98,-179.61C278.98,-148.9 278.98,-84.81 278.98,-47.54"/>
<polygon fill="black" stroke="black" points="282.48,-47.98 278.98,-37.98 275.48,-47.98 282.48,-47.98"/>
<text xml:space="preserve" text-anchor="middle" x="274.11" y="-116.03" font-family="Arial" font-size="14.00">N</text>
</g>
</g>
</svg>
