<?xml version="1.0" encoding="UTF-8" standalone="no"?>
<!DOCTYPE svg PUBLIC "-//W3C//DTD SVG 1.1//EN"
 "http://www.w3.org/Graphics/SVG/1.1/DTD/svg11.dtd">
<!-- Generated by graphviz version 14.1.1 (20251213.1925)
 -->
<!-- Title: ERDRecipeConceptual Pages: 1 -->
<svg width="4081pt" height="764pt"
 viewBox="0.00 0.00 4081.00 764.00" xmlns="http://www.w3.org/2000/svg" xmlns:xlink="http://www.w3.org/1999/xlink">
<g id="graph0" class="graph" transform="scale(1 1) rotate(0) translate(4 760)">
<title>ERDRecipeConceptual</title>
<polygon fill="white" stroke="none" points="-4,4 -4,-760 4077.45,-760 4077.45,4 -4,4"/>
<!-- USER -->
<g id="node1" class="node">
<title>USER</title>
<polygon fill="none" stroke="black" points="2751.25,-756 2697.25,-756 2697.25,-720 2751.25,-720 2751.25,-756"/>
<text xml:space="preserve" text-anchor="middle" x="2724.25" y="-732.58" font-family="Arial" font-size="14.00">USER</text>
</g>
<!-- rel_is_admin -->
<g id="node12" class="node">
<title>rel_is_admin</title>
<polygon fill="none" stroke="black" points="2724.25,-576 2689.44,-558 2724.25,-540 2759.06,-558 2724.25,-576"/>
<text xml:space="preserve" text-anchor="middle" x="2724.25" y="-552.58" font-family="Arial" font-size="14.00">is a</text>
</g>
<!-- USER&#45;&gt;rel_is_admin -->
<g id="edge3" class="edge">
<title>USER&#45;&gt;rel_is_admin</title>
<path fill="none" stroke="black" d="M2707.41,-719.61C2694.28,-686.6 2693.88,-615.01 2706.2,-579.63"/>
<polygon fill="black" stroke="black" points="2709.39,-581.08 2710.25,-570.52 2702.99,-578.23 2709.39,-581.08"/>
<text xml:space="preserve" text-anchor="middle" x="2703.05" y="-652.07" font-family="Arial" font-size="14.00">1</text>
</g>
<!-- USER&#45;&gt;rel_is_admin -->
<!-- rel_is_contributor -->
<g id="node13" class="node">
<title>rel_is_contributor</title>
<polygon fill="none" stroke="black" points="2309.25,-576 2274.44,-558 2309.25,-540 2344.06,-558 2309.25,-576"/>
<text xml:space="preserve" text-anchor="middle" x="2309.25" y="-552.58" font-family="Arial" font-size="14.00">is a</text>
</g>
<!-- USER&#45;&gt;rel_is_contributor -->
<g id="edge5" class="edge">
<title>USER&#45;&gt;rel_is_contributor</title>
<path fill="none" stroke="black" d="M2697.02,-725.32C2622.26,-693.25 2414.3,-604.06 2337.89,-571.28"/>
<polygon fill="black" stroke="black" points="2339.56,-568.19 2328.99,-567.47 2336.8,-574.63 2339.56,-568.19"/>
<text xml:space="preserve" text-anchor="middle" x="2513.7" y="-650.75" font-family="Arial" font-size="14.00">1</text>
</g>
<!-- rel_is_guest -->
<g id="node14" class="node">
<title>rel_is_guest</title>
<polygon fill="none" stroke="black" points="1489.25,-576 1454.44,-558 1489.25,-540 1524.06,-558 1489.25,-576"/>
<text xml:space="preserve" text-anchor="middle" x="1489.25" y="-552.58" font-family="Arial" font-size="14.00">is a</text>
</g>
<!-- USER&#45;&gt;rel_is_guest -->
<g id="edge7" class="edge">
<title>USER&#45;&gt;rel_is_guest</title>
<path fill="none" stroke="black" d="M2697.02,-733.07C2536.41,-709.93 1713.56,-591.33 1526.93,-564.43"/>
<polygon fill="black" stroke="black" points="1527.71,-561.01 1517.31,-563.04 1526.71,-567.93 1527.71,-561.01"/>
<text xml:space="preserve" text-anchor="middle" x="2108.22" y="-651.2" font-family="Arial" font-size="14.00">1</text>
</g>
<!-- ADMIN -->
<g id="node2" class="node">
<title>ADMIN</title>
<polygon fill="none" stroke="black" points="2754.38,-396 2694.12,-396 2694.12,-360 2754.38,-360 2754.38,-396"/>
<text xml:space="preserve" text-anchor="middle" x="2724.25" y="-372.57" font-family="Arial" font-size="14.00">ADMIN</text>
</g>
<!-- RECIPE -->
<g id="node5" class="node">
<title>RECIPE</title>
<polygon fill="none" stroke="black" points="1801.38,-36 1735.12,-36 1735.12,0 1801.38,0 1801.38,-36"/>
<text xml:space="preserve" text-anchor="middle" x="1768.25" y="-12.57" font-family="Arial" font-size="14.00">RECIPE</text>
</g>
<!-- ADMIN&#45;&gt;RECIPE -->
<!-- ADMIN&#45;&gt;rel_is_contributor -->
<!-- rel_moderates -->
<g id="node15" class="node">
<title>rel_moderates</title>
<polygon fill="none" stroke="black" points="2524.25,-216 2448.51,-198 2524.25,-180 2599.99,-198 2524.25,-216"/>
<text xml:space="preserve" text-anchor="middle" x="2524.25" y="-192.57" font-family="Arial" font-size="14.00">moderates</text>
</g>
<!-- ADMIN&#45;&gt;rel_moderates -->
<g id="edge9" class="edge">
<title>ADMIN&#45;&gt;rel_moderates</title>
<path fill="none" stroke="black" d="M2704.71,-359.61C2667.87,-326.82 2588.26,-255.97 2548.24,-220.35"/>
<polygon fill="black" stroke="black" points="2550.58,-217.75 2540.78,-213.71 2545.92,-222.98 2550.58,-217.75"/>
<text xml:space="preserve" text-anchor="middle" x="2622.73" y="-292.43" font-family="Arial" font-size="14.00">1</text>
</g>
<!-- rel_manages -->
<g id="node16" class="node">
<title>rel_manages</title>
<polygon fill="none" stroke="black" points="3630.25,-216 3562.27,-198 3630.25,-180 3698.23,-198 3630.25,-216"/>
<text xml:space="preserve" text-anchor="middle" x="3630.25" y="-192.57" font-family="Arial" font-size="14.00">manages</text>
</g>
<!-- ADMIN&#45;&gt;rel_manages -->
<g id="edge11" class="edge">
<title>ADMIN&#45;&gt;rel_manages</title>
<path fill="none" stroke="black" d="M2754.65,-371.03C2887.4,-344.95 3416.91,-240.92 3581.3,-208.62"/>
<polygon fill="black" stroke="black" points="3581.88,-212.07 3591.01,-206.71 3580.53,-205.2 3581.88,-212.07"/>
<text xml:space="preserve" text-anchor="middle" x="3164.23" y="-292.27" font-family="Arial" font-size="14.00">1</text>
</g>
<!-- rel_accesses_dashboard -->
<g id="node17" class="node">
<title>rel_accesses_dashboard</title>
<polygon fill="none" stroke="black" points="3422.25,-216 3354.27,-198 3422.25,-180 3490.23,-198 3422.25,-216"/>
<text xml:space="preserve" text-anchor="middle" x="3422.25" y="-192.57" font-family="Arial" font-size="14.00">accesses</text>
</g>
<!-- ADMIN&#45;&gt;rel_accesses_dashboard -->
<g id="edge13" class="edge">
<title>ADMIN&#45;&gt;rel_accesses_dashboard</title>
<path fill="none" stroke="black" d="M2754.69,-369.24C2865.47,-340.99 3247.47,-243.57 3378.07,-210.27"/>
<polygon fill="black" stroke="black" points="3378.54,-213.76 3387.36,-207.9 3376.81,-206.98 3378.54,-213.76"/>
<text xml:space="preserve" text-anchor="middle" x="3062.63" y="-292.2" font-family="Arial" font-size="14.00">1</text>
</g>
<!-- CONTRIBUTOR -->
<g id="node3" class="node">
<title>CONTRIBUTOR</title>
<polygon fill="none" stroke="black" points="1752.5,-396 1636,-396 1636,-360 1752.5,-360 1752.5,-396"/>
<text xml:space="preserve" text-anchor="middle" x="1694.25" y="-372.57" font-family="Arial" font-size="14.00">CONTRIBUTOR</text>
</g>
<!-- CONTRIBUTOR&#45;&gt;RECIPE -->
<!-- rel_creates -->
<g id="node11" class="node">
<title>rel_creates</title>
<polygon fill="none" stroke="black" points="2009.25,-216 1952.56,-198 2009.25,-180 2065.94,-198 2009.25,-216"/>
<text xml:space="preserve" text-anchor="middle" x="2009.25" y="-192.57" font-family="Arial" font-size="14.00">creates</text>
</g>
<!-- CONTRIBUTOR&#45;&gt;rel_creates -->
<g id="edge1" class="edge">
<title>CONTRIBUTOR&#45;&gt;rel_creates</title>
<path fill="none" stroke="black" d="M1725.03,-359.61C1785.63,-325.36 1919.73,-249.58 1979.5,-215.81"/>
<polygon fill="black" stroke="black" points="1981.13,-218.91 1988.11,-210.95 1977.68,-212.82 1981.13,-218.91"/>
<text xml:space="preserve" text-anchor="middle" x="1848.51" y="-290.16" font-family="Arial" font-size="14.00">1</text>
</g>
<!-- CONTRIBUTOR&#45;&gt;rel_is_guest -->
<!-- rel_favorites -->
<g id="node18" class="node">
<title>rel_favorites</title>
<polygon fill="none" stroke="black" points="1205.25,-216 1142.21,-198 1205.25,-180 1268.29,-198 1205.25,-216"/>
<text xml:space="preserve" text-anchor="middle" x="1205.25" y="-192.57" font-family="Arial" font-size="14.00">favorites</text>
</g>
<!-- CONTRIBUTOR&#45;&gt;rel_favorites -->
<g id="edge15" class="edge">
<title>CONTRIBUTOR&#45;&gt;rel_favorites</title>
<path fill="none" stroke="black" d="M1646.47,-359.61C1549.31,-324.24 1330.5,-244.59 1242.72,-212.64"/>
<polygon fill="black" stroke="black" points="1243.97,-209.37 1233.38,-209.24 1241.58,-215.95 1243.97,-209.37"/>
<text xml:space="preserve" text-anchor="middle" x="1438.6" y="-288.57" font-family="Arial" font-size="14.00">M</text>
</g>
<!-- rel_likes -->
<g id="node19" class="node">
<title>rel_likes</title>
<polygon fill="none" stroke="black" points="1694.25,-216 1653.79,-198 1694.25,-180 1734.71,-198 1694.25,-216"/>
<text xml:space="preserve" text-anchor="middle" x="1694.25" y="-192.57" font-family="Arial" font-size="14.00">likes</text>
</g>
<!-- CONTRIBUTOR&#45;&gt;rel_likes -->
<g id="edge17" class="edge">
<title>CONTRIBUTOR&#45;&gt;rel_likes</title>
<path fill="none" stroke="black" d="M1694.25,-359.61C1694.25,-328.9 1694.25,-264.81 1694.25,-227.54"/>
<polygon fill="black" stroke="black" points="1697.75,-227.98 1694.25,-217.98 1690.75,-227.98 1697.75,-227.98"/>
<text xml:space="preserve" text-anchor="middle" x="1688.25" y="-296.03" font-family="Arial" font-size="14.00">M</text>
</g>
<!-- rel_views -->
<g id="node20" class="node">
<title>rel_views</title>
<polygon fill="none" stroke="black" points="255.25,-216 208.44,-198 255.25,-180 302.06,-198 255.25,-216"/>
<text xml:space="preserve" text-anchor="middle" x="255.25" y="-192.57" font-family="Arial" font-size="14.00">views</text>
</g>
<!-- CONTRIBUTOR&#45;&gt;rel_views -->
<g id="edge19" class="edge">
<title>CONTRIBUTOR&#45;&gt;rel_views</title>
<path fill="none" stroke="black" d="M1635.51,-370.03C1375.04,-339.13 337.25,-216 337.25,-216 337.25,-216 316.48,-211.69 295.84,-207.42"/>
<polygon fill="black" stroke="black" points="296.84,-204.05 286.34,-205.44 295.42,-210.9 296.84,-204.05"/>
<text xml:space="preserve" text-anchor="middle" x="959.38" y="-292.97" font-family="Arial" font-size="14.00">M</text>
</g>
<!-- rel_writes -->
<g id="node23" class="node">
<title>rel_writes</title>
<polygon fill="none" stroke="black" points="679.25,-216 631.03,-198 679.25,-180 727.47,-198 679.25,-216"/>
<text xml:space="preserve" text-anchor="middle" x="679.25" y="-192.57" font-family="Arial" font-size="14.00">writes</text>
</g>
<!-- CONTRIBUTOR&#45;&gt;rel_writes -->
<g id="edge27" class="edge">
<title>CONTRIBUTOR&#45;&gt;rel_writes</title>
<path fill="none" stroke="black" d="M1635.72,-366.87C1431.71,-331.55 764.25,-216 764.25,-216 764.25,-216 742.23,-211.6 720.61,-207.27"/>
<polygon fill="black" stroke="black" points="721.43,-203.87 710.94,-205.34 720.06,-210.73 721.43,-203.87"/>
<text xml:space="preserve" text-anchor="middle" x="1174.31" y="-290.09" font-family="Arial" font-size="14.00">1</text>
</g>
<!-- rel_searches -->
<g id="node24" class="node">
<title>rel_searches</title>
<polygon fill="none" stroke="black" points="70.25,-216 3.68,-198 70.25,-180 136.82,-198 70.25,-216"/>
<text xml:space="preserve" text-anchor="middle" x="70.25" y="-192.57" font-family="Arial" font-size="14.00">searches</text>
</g>
<!-- CONTRIBUTOR&#45;&gt;rel_searches -->
<g id="edge29" class="edge">
<title>CONTRIBUTOR&#45;&gt;rel_searches</title>
<path fill="none" stroke="black" d="M1635.52,-370.79C1355.81,-341.2 172.25,-216 172.25,-216 172.25,-216 146.9,-211.78 121.48,-207.54"/>
<polygon fill="black" stroke="black" points="122.2,-204.11 111.76,-205.92 121.05,-211.02 122.2,-204.11"/>
<text xml:space="preserve" text-anchor="middle" x="874.54" y="-293.14" font-family="Arial" font-size="14.00">1</text>
</g>
<!-- rel_starts -->
<g id="node25" class="node">
<title>rel_starts</title>
<polygon fill="none" stroke="black" points="2330.25,-216 2284.15,-198 2330.25,-180 2376.35,-198 2330.25,-216"/>
<text xml:space="preserve" text-anchor="middle" x="2330.25" y="-192.57" font-family="Arial" font-size="14.00">starts</text>
</g>
<!-- CONTRIBUTOR&#45;&gt;rel_starts -->
<g id="edge33" class="edge">
<title>CONTRIBUTOR&#45;&gt;rel_starts</title>
<path fill="none" stroke="black" d="M1752.94,-360.57C1882.03,-324.45 2187.49,-238.95 2293.36,-209.32"/>
<polygon fill="black" stroke="black" points="2294.26,-212.71 2302.95,-206.64 2292.38,-205.97 2294.26,-212.71"/>
<text xml:space="preserve" text-anchor="middle" x="2019.4" y="-287.4" font-family="Arial" font-size="14.00">1</text>
</g>
<!-- GUEST -->
<g id="node4" class="node">
<title>GUEST</title>
<polygon fill="none" stroke="black" points="1314.88,-396 1251.62,-396 1251.62,-360 1314.88,-360 1314.88,-396"/>
<text xml:space="preserve" text-anchor="middle" x="1283.25" y="-372.57" font-family="Arial" font-size="14.00">GUEST</text>
</g>
<!-- GUEST&#45;&gt;RECIPE -->
<!-- GUEST&#45;&gt;rel_views -->
<g id="edge21" class="edge">
<title>GUEST&#45;&gt;rel_views</title>
<path fill="none" stroke="black" d="M1251.23,-371.55C1085.98,-343.43 337.25,-216 337.25,-216 337.25,-216 316.48,-211.69 295.84,-207.42"/>
<polygon fill="black" stroke="black" points="296.84,-204.05 286.34,-205.44 295.42,-210.9 296.84,-204.05"/>
<text xml:space="preserve" text-anchor="middle" x="767.4" y="-292.68" font-family="Arial" font-size="14.00">M</text>
</g>
<!-- GUEST&#45;&gt;rel_searches -->
<g id="edge31" class="edge">
<title>GUEST&#45;&gt;rel_searches</title>
<path fill="none" stroke="black" d="M1251.2,-372.36C1069.04,-345.96 172.25,-216 172.25,-216 172.25,-216 146.9,-211.78 121.48,-207.54"/>
<polygon fill="black" stroke="black" points="122.2,-204.11 111.76,-205.92 121.05,-211.02 122.2,-204.11"/>
<text xml:space="preserve" text-anchor="middle" x="682.5" y="-292.94" font-family="Arial" font-size="14.00">1</text>
</g>
<!-- GUEST&#45;&gt;rel_starts -->
<g id="edge35" class="edge">
<title>GUEST&#45;&gt;rel_starts</title>
<path fill="none" stroke="black" d="M1315.16,-371.58C1466.92,-345.77 2115.49,-235.51 2287.98,-206.19"/>
<polygon fill="black" stroke="black" points="2288.34,-209.68 2297.61,-204.55 2287.17,-202.77 2288.34,-209.68"/>
<text xml:space="preserve" text-anchor="middle" x="1797.82" y="-291.33" font-family="Arial" font-size="14.00">1</text>
</g>
<!-- rel_receives -->
<g id="node22" class="node">
<title>rel_receives</title>
<polygon fill="none" stroke="black" points="862.25,-216 799.91,-198 862.25,-180 924.59,-198 862.25,-216"/>
<text xml:space="preserve" text-anchor="middle" x="862.25" y="-192.57" font-family="Arial" font-size="14.00">receives</text>
</g>
<!-- RECIPE&#45;&gt;rel_receives -->
<g id="edge25" class="edge">
<title>RECIPE&#45;&gt;rel_receives</title>
<path fill="none" stroke="black" d="M1734.98,-25.54C1597.11,-52.62 1070.29,-156.13 909.28,-187.76"/>
<polygon fill="black" stroke="black" points="908.95,-184.26 899.81,-189.62 910.3,-191.13 908.95,-184.26"/>
<text xml:space="preserve" text-anchor="middle" x="1318.38" y="-109.1" font-family="Arial" font-size="14.00">1</text>
</g>
<!-- REVIEW -->
<g id="node6" class="node">
<title>REVIEW</title>
<polygon fill="none" stroke="black" points="805.25,-36 735.25,-36 735.25,0 805.25,0 805.25,-36"/>
<text xml:space="preserve" text-anchor="middle" x="770.25" y="-12.57" font-family="Arial" font-size="14.00">REVIEW</text>
</g>
<!-- SEARCH_HISTORY -->
<g id="node7" class="node">
<title>SEARCH_HISTORY</title>
<polygon fill="none" stroke="black" points="140.5,-36 0,-36 0,0 140.5,0 140.5,-36"/>
<text xml:space="preserve" text-anchor="middle" x="70.25" y="-12.57" font-family="Arial" font-size="14.00">SEARCH_HISTORY</text>
</g>
<!-- SESSION -->
<g id="node8" class="node">
<title>SESSION</title>
<polygon fill="none" stroke="black" points="2368.62,-36 2291.88,-36 2291.88,0 2368.62,0 2368.62,-36"/>
<text xml:space="preserve" text-anchor="middle" x="2330.25" y="-12.57" font-family="Arial" font-size="14.00">SESSION</text>
</g>
<!-- VIEW -->
<g id="node9" class="node">
<title>VIEW</title>
<polygon fill="none" stroke="black" points="387.25,-36 333.25,-36 333.25,0 387.25,0 387.25,-36"/>
<text xml:space="preserve" text-anchor="middle" x="360.25" y="-12.57" font-family="Arial" font-size="14.00">VIEW</text>
</g>
<!-- rel_view_recipe -->
<g id="node21" class="node">
<title>rel_view_recipe</title>
<polygon fill="none" stroke="black" points="466.25,-216 373.57,-198 466.25,-180 558.93,-198 466.25,-216"/>
<text xml:space="preserve" text-anchor="middle" x="466.25" y="-192.57" font-family="Arial" font-size="14.00">viewed recipe</text>
</g>
<!-- VIEW&#45;&gt;rel_view_recipe -->
<g id="edge23" class="edge">
<title>VIEW&#45;&gt;rel_view_recipe</title>
<path fill="none" stroke="black" d="M370.61,-36.4C389.5,-68.12 429.61,-135.47 451.4,-172.06"/>
<polygon fill="black" stroke="black" points="448.13,-173.41 456.25,-180.21 454.14,-169.83 448.13,-173.41"/>
<text xml:space="preserve" text-anchor="middle" x="406.13" y="-106.68" font-family="Arial" font-size="14.00">N</text>
</g>
<!-- STATS_DASHBOARD -->
<g id="node10" class="node">
<title>STATS_DASHBOARD</title>
<polygon fill="none" stroke="black" points="3358.12,-36 3206.38,-36 3206.38,0 3358.12,0 3358.12,-36"/>
<text xml:space="preserve" text-anchor="middle" x="3282.25" y="-12.57" font-family="Arial" font-size="14.00">STATS_DASHBOARD</text>
</g>
<!-- rel_retrieves_user -->
<g id="node26" class="node">
<title>rel_retrieves_user</title>
<polygon fill="none" stroke="black" points="3953.25,-396 3833.05,-378 3953.25,-360 4073.45,-378 3953.25,-396"/>
<text xml:space="preserve" text-anchor="middle" x="3953.25" y="-372.57" font-family="Arial" font-size="14.00">retrieves user data</text>
</g>
<!-- STATS_DASHBOARD&#45;&gt;rel_retrieves_user -->
<g id="edge37" class="edge">
<title>STATS_DASHBOARD&#45;&gt;rel_retrieves_user</title>
<path fill="none" stroke="black" d="M3345.15,-36.46C3495.3,-78.14 3862.25,-180 3862.25,-180 3862.25,-180 3916.36,-297.13 3941.13,-350.76"/>
<polygon fill="black" stroke="black" points="3937.8,-351.89 3945.17,-359.5 3944.15,-348.96 3937.8,-351.89"/>
<text xml:space="preserve" text-anchor="middle" x="3690.57" y="-135.84" font-family="Arial" font-size="14.00">1</text>
</g>
<!-- rel_retrieves_recipe -->
<g id="node27" class="node">
<title>rel_retrieves_recipe</title>
<polygon fill="none" stroke="black" points="2802.25,-216 2672.17,-198 2802.25,-180 2932.33,-198 2802.25,-216"/>
<text xml:space="preserve" text-anchor="middle" x="2802.25" y="-192.57" font-family="Arial" font-size="14.00">retrieves recipe data</text>
</g>
<!-- STATS_DASHBOARD&#45;&gt;rel_retrieves_recipe -->
<g id="edge39" class="edge">
<title>STATS_DASHBOARD&#45;&gt;rel_retrieves_recipe</title>
<path fill="none" stroke="black" d="M3235.2,-36.45C3142.62,-70.78 2937.94,-146.68 2847.14,-180.35"/>
<polygon fill="black" stroke="black" points="2845.96,-177.06 2837.8,-183.82 2848.4,-183.62 2845.96,-177.06"/>
<text xml:space="preserve" text-anchor="middle" x="3037.42" y="-110.85" font-family="Arial" font-size="14.00">1</text>
</g>
<!-- rel_retrieves_session -->
<g id="node28" class="node">
<title>rel_retrieves_session</title>
<polygon fill="none" stroke="black" points="3143.25,-216 3004.7,-198 3143.25,-180 3281.8,-198 3143.25,-216"/>
<text xml:space="preserve" text-anchor="middle" x="3143.25" y="-192.57" font-family="Arial" font-size="14.00">retrieves session data</text>
</g>
<!-- STATS_DASHBOARD&#45;&gt;rel_retrieves_session -->
<g id="edge41" class="edge">
<title>STATS_DASHBOARD&#45;&gt;rel_retrieves_session</title>
<path fill="none" stroke="black" d="M3268.72,-36.32C3243.95,-68.05 3191.21,-135.58 3162.63,-172.18"/>
<polygon fill="black" stroke="black" points="3159.91,-169.98 3156.52,-180.01 3165.43,-174.28 3159.91,-169.98"/>
<text xml:space="preserve" text-anchor="middle" x="3211.93" y="-106.7" font-family="Arial" font-size="14.00">1</text>
</g>
<!-- rel_retrieves_view -->
<g id="node29" class="node">
<title>rel_retrieves_view</title>
<polygon fill="none" stroke="black" points="1461.25,-216 1340.34,-198 1461.25,-180 1582.16,-198 1461.25,-216"/>
<text xml:space="preserve" text-anchor="middle" x="1461.25" y="-192.57" font-family="Arial" font-size="14.00">retrieves view data</text>
</g>
<!-- STATS_DASHBOARD&#45;&gt;rel_retrieves_view -->
<g id="edge43" class="edge">
<title>STATS_DASHBOARD&#45;&gt;rel_retrieves_view</title>
<path fill="none" stroke="black" d="M3205.88,-26.39C2879.49,-57.97 1618.25,-180 1618.25,-180 1618.25,-180 1579.47,-184.2 1540.45,-188.42"/>
<polygon fill="black" stroke="black" points="1540.27,-184.92 1530.7,-189.48 1541.02,-191.88 1540.27,-184.92"/>
<text xml:space="preserve" text-anchor="middle" x="2369.37" y="-109.41" font-family="Arial" font-size="14.00">1</text>
</g>
<!-- rel_tracks_activity -->
<g id="node30" class="node">
<title>rel_tracks_activity</title>
<polygon fill="none" stroke="black" points="3123.25,-576 3031.98,-558 3123.25,-540 3214.52,-558 3123.25,-576"/>
<text xml:space="preserve" text-anchor="middle" x="3123.25" y="-552.58" font-family="Arial" font-size="14.00">tracks activity</text>
</g>
<!-- STATS_DASHBOARD&#45;&gt;rel_tracks_activity -->
<g id="edge45" class="edge">
<title>STATS_DASHBOARD&#45;&gt;rel_tracks_activity</title>
<path fill="none" stroke="black" d="M3331.05,-36.38C3447.93,-78.01 3734.25,-180 3734.25,-180 3734.25,-180 3734.25,-216 3734.25,-216 3734.25,-216 3282.75,-467.98 3155.99,-538.73"/>
<polygon fill="black" stroke="black" points="3154.43,-535.59 3147.41,-543.52 3157.85,-541.7 3154.43,-535.59"/>
<text xml:space="preserve" text-anchor="middle" x="3643.96" y="-266.75" font-family="Arial" font-size="14.00">1</text>
</g>
<!-- rel_creates&#45;&gt;RECIPE -->
<g id="edge2" class="edge">
<title>rel_creates&#45;&gt;RECIPE</title>
<path fill="none" stroke="black" d="M1992.69,-184.77C1953.24,-155.63 1853.16,-81.71 1801,-43.19"/>
<polygon fill="black" stroke="black" points="1803.18,-40.45 1793.06,-37.32 1799.02,-46.08 1803.18,-40.45"/>
<text xml:space="preserve" text-anchor="middle" x="1891.97" y="-116.43" font-family="Arial" font-size="14.00">N</text>
</g>
<!-- rel_is_admin&#45;&gt;ADMIN -->
<g id="edge4" class="edge">
<title>rel_is_admin&#45;&gt;ADMIN</title>
<path fill="none" stroke="black" d="M2710.75,-546.66C2695.42,-519.86 2693.15,-447.43 2703.92,-407.09"/>
<polygon fill="black" stroke="black" points="2707.17,-408.43 2706.94,-397.83 2700.51,-406.26 2707.17,-408.43"/>
<text xml:space="preserve" text-anchor="middle" x="2696.09" y="-479.33" font-family="Arial" font-size="14.00">0..1</text>
</g>
<!-- rel_is_admin&#45;&gt;ADMIN -->
<!-- rel_is_contributor&#45;&gt;CONTRIBUTOR -->
<g id="edge6" class="edge">
<title>rel_is_contributor&#45;&gt;CONTRIBUTOR</title>
<path fill="none" stroke="black" d="M2284.48,-552.51C2191.36,-531.4 1877.09,-441.3 1748.39,-399.92"/>
<polygon fill="black" stroke="black" points="1749.65,-396.65 1739.06,-396.9 1747.49,-403.31 1749.65,-396.65"/>
<text xml:space="preserve" text-anchor="middle" x="2005.18" y="-478.67" font-family="Arial" font-size="14.00">0..1</text>
</g>
<!-- rel_is_contributor&#45;&gt;CONTRIBUTOR -->
<!-- rel_is_guest&#45;&gt;GUEST -->
<g id="edge8" class="edge">
<title>rel_is_guest&#45;&gt;GUEST</title>
<path fill="none" stroke="black" d="M1469.42,-549.8C1424.13,-525.68 1330.14,-446.85 1293.82,-405.25"/>
<polygon fill="black" stroke="black" points="1296.63,-403.16 1287.57,-397.66 1291.22,-407.61 1296.63,-403.16"/>
<text xml:space="preserve" text-anchor="middle" x="1370.37" y="-479.98" font-family="Arial" font-size="14.00">0..1</text>
</g>
<!-- rel_is_guest&#45;&gt;GUEST -->
<!-- rel_moderates&#45;&gt;RECIPE -->
<g id="edge10" class="edge">
<title>rel_moderates&#45;&gt;RECIPE</title>
<path fill="none" stroke="black" d="M2487.27,-188.29C2361.27,-158.63 1948.93,-61.54 1812.51,-29.42"/>
<polygon fill="black" stroke="black" points="1813.69,-26.1 1803.15,-27.22 1812.08,-32.92 1813.69,-26.1"/>
<text xml:space="preserve" text-anchor="middle" x="2145.02" y="-111.31" font-family="Arial" font-size="14.00">N</text>
</g>
<!-- rel_manages&#45;&gt;USER -->
<g id="edge12" class="edge">
<title>rel_manages&#45;&gt;USER</title>
<path fill="none" stroke="black" d="M3616.73,-212.42C3549.03,-279.58 3250.25,-576 3250.25,-576 3250.25,-576 2883.2,-688.35 2762.33,-725.34"/>
<polygon fill="black" stroke="black" points="2761.41,-721.97 2752.87,-728.24 2763.46,-728.66 2761.41,-721.97"/>
<text xml:space="preserve" text-anchor="middle" x="3247.49" y="-576.35" font-family="Arial" font-size="14.00">N</text>
</g>
<!-- rel_accesses_dashboard&#45;&gt;STATS_DASHBOARD -->
<g id="edge14" class="edge">
<title>rel_accesses_dashboard&#45;&gt;STATS_DASHBOARD</title>
<path fill="none" stroke="black" d="M3411.03,-182.73C3387.58,-152.92 3333.08,-83.63 3303.04,-45.43"/>
<polygon fill="black" stroke="black" points="3305.83,-43.32 3296.9,-37.63 3300.33,-47.65 3305.83,-43.32"/>
<text xml:space="preserve" text-anchor="middle" x="3353.29" y="-116.53" font-family="Arial" font-size="14.00">1</text>
</g>
<!-- rel_favorites&#45;&gt;RECIPE -->
<g id="edge16" class="edge">
<title>rel_favorites&#45;&gt;RECIPE</title>
<path fill="none" stroke="black" d="M1234.33,-187.8C1326.64,-158.62 1613.38,-67.96 1724.05,-32.97"/>
<polygon fill="black" stroke="black" points="1724.89,-36.38 1733.37,-30.03 1722.78,-29.7 1724.89,-36.38"/>
<text xml:space="preserve" text-anchor="middle" x="1473.19" y="-112.84" font-family="Arial" font-size="14.00">M</text>
</g>
<!-- rel_likes&#45;&gt;RECIPE -->
<g id="edge18" class="edge">
<title>rel_likes&#45;&gt;RECIPE</title>
<path fill="none" stroke="black" d="M1700.31,-182.43C1712.62,-152.81 1740.77,-85.11 1756.7,-46.79"/>
<polygon fill="black" stroke="black" points="1759.84,-48.34 1760.45,-37.76 1753.38,-45.65 1759.84,-48.34"/>
<text xml:space="preserve" text-anchor="middle" x="1722.5" y="-117.06" font-family="Arial" font-size="14.00">M</text>
</g>
<!-- rel_views&#45;&gt;VIEW -->
<g id="edge20" class="edge">
<title>rel_views&#45;&gt;VIEW</title>
<path fill="none" stroke="black" d="M248.2,-182.43C252.35,-152.17 292.33,-82.19 325.73,-44.36"/>
<polygon fill="black" stroke="black" points="327.89,-47.17 332.14,-37.47 322.77,-42.4 327.89,-47.17"/>
<text xml:space="preserve" text-anchor="middle" x="282.09" y="-115.85" font-family="Arial" font-size="14.00">N</text>
</g>
<!-- rel_views&#45;&gt;VIEW -->
<g id="edge22" class="edge">
<title>rel_views&#45;&gt;VIEW</title>
<path fill="none" stroke="black" d="M274.55,-186.92C305.6,-160.41 350.66,-88.01 363.88,-47.47"/>
<polygon fill="black" stroke="black" points="367.23,-48.49 366.43,-37.93 360.47,-46.69 367.23,-48.49"/>
<text xml:space="preserve" text-anchor="middle" x="314.34" y="-119.64" font-family="Arial" font-size="14.00">N</text>
</g>
<!-- rel_view_recipe&#45;&gt;RECIPE -->
<g id="edge24" class="edge">
<title>rel_view_recipe&#45;&gt;RECIPE</title>
<path fill="none" stroke="black" d="M518.9,-189.8C731.62,-160.72 1525.58,-52.18 1723.39,-25.13"/>
<polygon fill="black" stroke="black" points="1723.83,-28.61 1733.26,-23.78 1722.88,-21.67 1723.83,-28.61"/>
<text xml:space="preserve" text-anchor="middle" x="1117.4" y="-109.92" font-family="Arial" font-size="14.00">1</text>
</g>
<!-- rel_receives&#45;&gt;REVIEW -->
<g id="edge26" class="edge">
<title>rel_receives&#45;&gt;REVIEW</title>
<path fill="none" stroke="black" d="M854.41,-181.82C838.88,-151.78 804.02,-84.34 784.39,-46.35"/>
<polygon fill="black" stroke="black" points="787.68,-45.1 779.98,-37.82 781.46,-48.31 787.68,-45.1"/>
<text xml:space="preserve" text-anchor="middle" x="814.52" y="-116.54" font-family="Arial" font-size="14.00">N</text>
</g>
<!-- rel_writes&#45;&gt;REVIEW -->
<g id="edge28" class="edge">
<title>rel_writes&#45;&gt;REVIEW</title>
<path fill="none" stroke="black" d="M686.7,-182.43C701.91,-152.68 736.75,-84.53 756.3,-46.29"/>
<polygon fill="black" stroke="black" points="759.25,-48.21 760.69,-37.71 753.02,-45.02 759.25,-48.21"/>
<text xml:space="preserve" text-anchor="middle" x="716.62" y="-116.81" font-family="Arial" font-size="14.00">N</text>
</g>
<!-- rel_searches&#45;&gt;SEARCH_HISTORY -->
<g id="edge30" class="edge">
<title>rel_searches&#45;&gt;SEARCH_HISTORY</title>
<path fill="none" stroke="black" d="M55.16,-183.62C41.26,-154.7 39.53,-85.84 49.96,-46.97"/>
<polygon fill="black" stroke="black" points="53.16,-48.43 52.93,-37.83 46.51,-46.26 53.16,-48.43"/>
<text xml:space="preserve" text-anchor="middle" x="47.68" y="-117.74" font-family="Arial" font-size="14.00">N</text>
</g>
<!-- rel_searches&#45;&gt;SEARCH_HISTORY -->
<g id="edge32" class="edge">
<title>rel_searches&#45;&gt;SEARCH_HISTORY</title>
<path fill="none" stroke="black" d="M85.34,-183.62C99.24,-154.7 100.97,-85.84 90.54,-46.97"/>
<polygon fill="black" stroke="black" points="93.99,-46.26 87.57,-37.83 87.34,-48.43 93.99,-46.26"/>
<text xml:space="preserve" text-anchor="middle" x="83.07" y="-117.74" font-family="Arial" font-size="14.00">N</text>
</g>
<!-- rel_starts&#45;&gt;SESSION -->
<g id="edge34" class="edge">
<title>rel_starts&#45;&gt;SESSION</title>
<path fill="none" stroke="black" d="M2316.01,-185.32C2301.35,-157.51 2299.32,-86.75 2309.93,-47.07"/>
<polygon fill="black" stroke="black" points="2313.2,-48.33 2312.97,-37.74 2306.55,-46.16 2313.2,-48.33"/>
<text xml:space="preserve" text-anchor="middle" x="2308.1" y="-118.65" font-family="Arial" font-size="14.00">N</text>
</g>
<!-- rel_starts&#45;&gt;SESSION -->
<g id="edge36" class="edge">
<title>rel_starts&#45;&gt;SESSION</title>
<path fill="none" stroke="black" d="M2344.49,-185.32C2359.15,-157.51 2361.18,-86.75 2350.57,-47.07"/>
<polygon fill="black" stroke="black" points="2353.95,-46.16 2347.53,-37.74 2347.3,-48.33 2353.95,-46.16"/>
<text xml:space="preserve" text-anchor="middle" x="2342.65" y="-118.65" font-family="Arial" font-size="14.00">N</text>
</g>
<!-- rel_retrieves_user&#45;&gt;USER -->
<g id="edge38" class="edge">
<title>rel_retrieves_user&#45;&gt;USER</title>
<path fill="none" stroke="black" d="M3939.6,-394.46C3898.58,-440.9 3779.25,-576 3779.25,-576 3779.25,-576 2953.26,-702.05 2763.01,-731.09"/>
<polygon fill="black" stroke="black" points="2762.51,-727.62 2753.15,-732.59 2763.57,-734.54 2762.51,-727.62"/>
<text xml:space="preserve" text-anchor="middle" x="3385.97" y="-637.72" font-family="Arial" font-size="14.00">N</text>
</g>
<!-- rel_retrieves_recipe&#45;&gt;RECIPE -->
<g id="edge40" class="edge">
<title>rel_retrieves_recipe&#45;&gt;RECIPE</title>
<path fill="none" stroke="black" d="M2745.92,-187.3C2561.65,-155.58 1979.06,-55.29 1812.89,-26.69"/>
<polygon fill="black" stroke="black" points="1813.6,-23.26 1803.15,-25.01 1812.41,-30.15 1813.6,-23.26"/>
<text xml:space="preserve" text-anchor="middle" x="2274.53" y="-109.44" font-family="Arial" font-size="14.00">N</text>
</g>
<!-- rel_retrieves_session&#45;&gt;SESSION -->
<g id="edge42" class="edge">
<title>rel_retrieves_session&#45;&gt;SESSION</title>
<path fill="none" stroke="black" d="M3093.31,-186.07C2947.83,-154.22 2525.5,-61.75 2380.11,-29.92"/>
<polygon fill="black" stroke="black" points="2380.92,-26.51 2370.4,-27.79 2379.42,-33.35 2380.92,-26.51"/>
<text xml:space="preserve" text-anchor="middle" x="2731.84" y="-110.44" font-family="Arial" font-size="14.00">N</text>
</g>
<!-- rel_retrieves_view&#45;&gt;VIEW -->
<g id="edge44" class="edge">
<title>rel_retrieves_view&#45;&gt;VIEW</title>
<path fill="none" stroke="black" d="M1405.14,-187.93C1209.78,-156.35 562.46,-51.69 398.34,-25.16"/>
<polygon fill="black" stroke="black" points="399.29,-21.77 388.86,-23.63 398.18,-28.68 399.29,-21.77"/>
<text xml:space="preserve" text-anchor="middle" x="896.86" y="-108.99" font-family="Arial" font-size="14.00">N</text>
</g>
<!-- rel_tracks_activity&#45;&gt;ADMIN -->
<g id="edge46" class="edge">
<title>rel_tracks_activity&#45;&gt;ADMIN</title>
<path fill="none" stroke="black" d="M3096.14,-544.91C3027.48,-514.28 2846.45,-433.51 2764.99,-397.17"/>
<polygon fill="black" stroke="black" points="2766.58,-394.05 2756.02,-393.17 2763.72,-400.44 2766.58,-394.05"/>
<text xml:space="preserve" text-anchor="middle" x="2925.69" y="-473.49" font-family="Arial" font-size="14.00">N</text>
</g>
</g>
</svg>
